<svg width="62" height="62" viewBox="0 0 62 62" fill="none" xmlns="http://www.w3.org/2000/svg">
<path d="M49.5915 22.8225C43.3743 22.2145 36.3217 21.6086 29.4265 21.457C22.5344 21.3056 15.7889 21.6071 10.1798 22.815L10.1801 22.8166C9.66184 22.9282 9.15112 22.5986 9.03949 22.0803C9.02365 22.007 9.01646 21.9321 9.01804 21.8571C9.02203 14.64 11.0396 11.3469 14.7773 10.1469C18.3179 9.0101 23.2562 9.94157 29.4832 11.142C32.0665 11.64 34.3776 11.9928 36.4088 12.3028C44.8716 13.5944 48.7135 14.1808 50.6909 21.6326L50.693 21.632C50.8289 22.1445 50.5237 22.6702 50.0113 22.8061C49.8743 22.8426 49.7309 22.8482 49.5915 22.8225L49.5915 22.8225ZM43.2837 12.6005C42.7881 11.7008 42.0416 10.9305 41.1173 10.2835C39.4504 9.11672 37.1889 8.35823 34.8189 7.97774C32.4796 7.6022 30.0201 7.58885 27.9236 7.91066C26.3951 8.14532 25.0326 8.56742 23.9999 9.16934C25.899 9.46199 27.7964 9.83909 29.665 10.1993C31.954 10.6406 34.2499 11.0021 36.5537 11.3537C38.7007 11.6814 40.9271 11.991 43.03 12.5336C43.1147 12.5554 43.1993 12.5777 43.2837 12.6005V12.6005Z" fill="white"/>
<path d="M30.107 22.4328C33.264 23.3924 36.4493 24.4836 39.5729 25.6278C43.9189 27.2196 48.1064 28.8956 51.9321 30.4625C52.0686 30.5322 52.2198 30.5681 52.3731 30.5671C52.9033 30.5644 53.3309 30.1324 53.3282 29.6022L53.3245 29.6023C53.3143 27.5929 53.0498 25.9843 52.5169 24.629C52.2419 23.9294 51.8989 23.3007 51.4863 22.7237C51.249 23.2052 50.8137 23.5865 50.2577 23.734C49.9943 23.8038 49.7266 23.8109 49.4578 23.7731C44.0993 23.0176 38.6176 22.7035 33.2114 22.5215C32.1767 22.4869 31.1419 22.4573 30.107 22.4328H30.107Z" fill="#2992CE"/>
<path d="M8.53097 23.139C8.26292 23.7322 8.03876 24.3739 7.85759 25.0814C7.48358 26.5418 7.29791 28.2769 7.29059 30.4457H7.28687C7.28513 30.9758 7.71353 31.4071 8.24372 31.4088C8.558 31.4098 8.83751 31.2597 9.0134 31.0268C13.1384 26.3105 19.4823 26.1609 25.0858 26.0293C28.5697 25.9474 31.7875 25.8716 34.2376 24.7663C32.7744 24.2736 31.3046 23.8003 29.8278 23.3514L26.6355 22.381C24.2165 22.3731 21.7952 22.4304 19.3835 22.5843C16.5024 22.7683 13.5923 23.0893 10.7608 23.6737L10.3825 23.7552C9.67652 23.9072 8.97578 23.6478 8.53094 23.139L8.53097 23.139Z" fill="white"/>
<path d="M47.2286 26.5993C46.7958 26.2949 46.1981 26.399 45.8936 26.8318C43.191 30.6629 43.8668 37.0447 44.4672 42.7141C44.8947 46.751 45.2812 50.4013 44.3582 52.0454L44.3571 52.0448C44.0974 52.507 44.2616 53.0923 44.7238 53.352C44.7879 53.388 44.8559 53.4166 44.9265 53.4372C46.6702 54.0724 48.1941 53.6502 49.6064 53.2588C50.7498 52.9419 51.7943 52.6524 52.5513 53.2611L52.5497 53.2631C52.9628 53.5954 53.5672 53.5299 53.8995 53.1168C54.0276 52.9579 54.1016 52.7622 54.1104 52.5583C54.3559 50.2086 53.4469 47.1039 52.4283 43.6255C51.0513 38.9234 49.4638 33.5021 50.4643 28.8506C50.1601 28.3828 48.2276 27.302 47.2286 26.5993V26.5993Z" fill="#2992CE"/>
</svg>
