<svg width="224" height="75" viewBox="0 0 224 75" fill="none" xmlns="http://www.w3.org/2000/svg">
<path d="M125.409 9.44724H125.795C128.752 13.9477 130.488 17.2889 131.004 19.4729L130.811 19.6657H130.233C129.075 18.6385 128.496 17.9965 128.496 17.7377H128.303V17.9305C131.261 34.2554 132.741 43.5069 132.741 45.6938C132.741 49.5498 131.068 52.183 127.725 53.5986L122.709 55.5266C118.078 57.4546 114.476 60.5395 111.904 64.7806C109.203 69.1475 106.435 71.3358 103.608 71.3358H103.029C100.198 71.3358 98.269 69.5346 97.2412 65.9374V62.0814C97.2412 60.9246 98.462 57.9665 100.907 53.2125H100.714C95.8245 57.3245 90.8082 62.2081 85.665 67.8654C81.0345 72.6194 77.6249 74.9995 75.4394 74.9995H74.0888C70.616 74.9995 68.5569 72.3634 67.9149 67.0947V66.1307C67.9149 63.1721 69.0064 59.7682 71.1948 55.9122L71.3877 55.5266V54.7554C69.7145 55.0114 66.4978 56.2973 61.7409 58.6114C58.7803 60.7954 56.4019 63.2387 54.6023 65.9374C52.0276 69.7934 49.3265 71.7214 46.499 71.7214H45.9202C42.8332 71.7214 40.7741 70.2426 39.7463 67.2875V62.8526C39.7463 61.1805 41.9954 56.6164 46.499 49.1642C44.6965 49.6766 43.4752 49.9359 42.8332 49.9359C40.0024 49.9359 37.9438 48.4566 36.6593 45.501C36.2734 43.8289 35.5649 42.9951 34.537 42.9951C33.6355 43.1213 32.2218 44.215 30.2924 46.2727C29.3909 47.6854 28.9418 48.5863 28.9418 48.9724C30.6117 51.4127 32.2849 52.6356 33.9582 52.6356C37.431 53.4068 39.1675 54.5636 39.1675 56.1055V56.2983C39.1675 57.9675 38.9079 58.8047 38.3957 58.8047L32.4147 57.4551H28.7489C24.1185 58.997 20.772 61.181 18.7162 64.0103C18.3304 64.3964 16.2081 66.7096 12.3494 70.9512C10.6761 72.2343 8.81043 72.8792 6.75422 72.8792H6.17541C4.50218 72.8792 2.76624 71.9783 0.966144 70.18C0.321256 69.0232 0.00146484 67.7367 0.00146484 66.324V65.1672C0.00146484 62.8531 1.47887 59.0607 4.43899 53.7919V53.5991C2.50963 51.6711 1.54495 49.6129 1.54495 47.429V45.3087C1.54495 39.7806 4.1163 33.1622 9.26239 25.4502L10.0341 24.8718L10.2271 25.2574C10.2271 25.643 8.74677 28.6647 5.78954 34.319C4.1163 38.5606 3.28137 41.5794 3.28137 43.3807C3.28137 46.9774 4.24605 49.035 6.17541 49.5503H6.36835C7.65234 49.5503 8.74677 48.0084 9.64826 44.9231L9.84119 44.7303H10.2271V45.5015C10.2271 47.6854 9.45532 50.0627 7.91184 52.6356C5.72298 53.7924 4.63193 54.8827 4.63193 55.9132C2.18695 60.0247 0.966144 62.9167 0.966144 64.5892V66.5172C1.60814 69.2169 2.82894 70.5656 4.63193 70.5656C6.94716 70.5656 10.2271 67.8008 14.4717 62.2756C17.6855 58.6755 20.7725 56.1691 23.7326 54.7564L27.5913 52.6356L27.3984 50.5148C27.3984 45.7579 28.9418 42.4171 32.0288 40.4891C33.4426 39.073 34.9229 38.3688 36.4663 38.3688C37.2381 38.3688 38.4589 40.0375 40.1321 43.3811C41.2897 44.7939 42.3808 45.5015 43.412 45.5015C44.8258 45.5015 49.1336 44.2155 56.3387 41.6455V41.0675C54.2796 40.4226 51.0629 39.3323 46.692 37.7894L46.1131 37.5971L45.3414 38.3688L37.8169 37.7899C38.2028 34.9615 39.3604 33.5488 41.2897 33.5488L43.0262 33.356H45.7273C47.9128 33.356 52.4139 34.7687 59.2328 37.5976C63.8632 38.7539 68.171 39.5892 72.1595 40.104L72.3524 40.4891C71.8368 41.7727 71.1282 42.9295 70.2301 43.9595L66.5643 43.3811C61.6744 43.3811 56.0797 44.9235 49.7789 48.0088C48.3608 49.1652 46.5622 51.4788 44.3767 54.9492C42.0615 59.0611 40.9039 62.3388 40.9039 64.7815C40.9039 67.3516 41.7388 68.8304 43.412 69.2165H45.3414C46.7551 69.2165 50.4209 65.5528 56.3387 58.2263C61.0961 54.2406 65.084 51.9902 68.3008 51.4783C72.4156 49.9364 74.4747 48.8422 74.4747 48.2007V46.2727C74.4747 44.8566 73.5732 39.8442 71.7736 31.2342C70.3565 22.495 69.3291 16.8402 68.6866 14.2677C69.0725 12.213 69.4584 11.1829 69.8443 11.1829H70.0372C73.6364 17.2263 75.4394 20.6302 75.4394 21.4014L75.0535 21.787L72.3524 19.4734L76.0182 41.4527L76.4041 45.3087C76.4041 48.9054 75.3096 51.9902 73.1242 54.5631C70.9353 58.6751 69.8443 62.0163 69.8443 64.5888V64.9743C69.8443 67.6736 70.7429 69.4724 72.5454 70.3728H73.703C77.4319 70.3728 83.7993 65.3604 92.8036 55.3343C96.0175 52.5054 99.8125 49.5503 104.187 46.4655L104.766 46.0804V45.8876C101.549 44.7308 98.7846 43.0587 96.4694 40.8747C96.0835 40.36 95.7608 39.1395 95.5047 37.2115C95.5047 35.1539 96.9185 33.7411 99.7493 32.9699H102.257C107.014 32.9699 115.248 34.0004 126.953 36.0547C127.466 36.0547 127.725 36.2475 127.725 36.6331C127.08 39.2027 126.052 40.4891 124.639 40.4891C121.937 41.7727 120.457 42.4808 120.201 42.6095C119.685 43.893 119.429 45.1795 119.429 46.4655V46.6583L120.201 47.4295C120.714 47.4295 121.166 46.8516 121.552 45.6943C121.552 45.9502 121.744 46.0804 122.13 46.0804V46.2727C121.744 48.4566 121.422 49.5503 121.166 49.5503H120.587C119.17 49.1647 118.465 48.5863 118.465 47.8151V45.501L119.043 43.1879V42.9951C113.511 45.0494 110.747 46.143 110.747 46.2727V46.6583C112.032 47.8151 112.677 49.1647 112.677 50.7071V52.0567L112.098 52.4423H111.712C109.783 52.4423 108.303 51.3486 107.275 49.1647H106.889C104.444 49.1647 101.743 53.1475 98.7856 61.1183C98.5266 61.5044 98.3997 62.0163 98.3997 62.6607V64.5888C98.7856 67.0291 99.8771 68.2524 101.68 68.2524C104.381 68.2524 106.889 66.3876 109.204 62.6607C113.189 56.6174 118.013 52.6982 123.674 50.9004C128.431 49.3575 130.813 48.0084 130.813 46.8516C130.813 46.2066 129.526 39.0094 126.954 25.2579C126.309 19.9891 125.537 15.7475 124.639 12.533C124.639 11.8915 124.895 10.8643 125.411 9.4482L125.409 9.44724ZM15.2424 51.8634C16.7859 52.6346 17.5577 53.4685 17.5577 54.3693C17.5577 55.0114 16.7198 55.3333 15.0495 55.3333C15.0495 57.3881 12.7975 60.2165 8.29674 63.8166C6.87963 64.9734 5.72201 65.6786 4.8239 65.9374L4.63096 65.7446C10.8049 59.8304 13.8919 56.5528 13.8919 55.9117V53.0197L15.2424 51.8629V51.8634ZM65.0199 12.1465V12.5321C65.0199 13.4329 62.8315 14.4601 58.4601 15.6169C39.0367 22.1721 24.6302 28.0858 15.2424 33.3545L14.2778 33.9329C14.0183 33.9329 13.8919 33.7401 13.8919 33.3545C13.8919 32.3274 18.8421 29.6282 28.7479 25.2569C37.623 21.4009 48.8133 17.2258 62.3188 12.7249L65.0199 12.1465V12.1465ZM22.9599 36.6322C23.9877 37.0178 24.5034 37.5296 24.5034 38.1746V38.7525L24.1175 39.1386H23.7316C23.216 38.6238 22.9599 38.1746 22.9599 37.7885C21.9286 37.7885 21.2866 40.3585 21.0305 45.5005V46.0794L20.6446 46.2722H20.4517C20.1922 46.2722 19.9361 45.5005 19.68 43.9586C18.9082 42.8018 18.2628 42.0306 17.7506 41.6445H15.4354C14.9197 41.2594 14.6636 40.6805 14.6636 39.9093C14.7905 39.3945 15.1127 39.1381 15.6283 39.1381C17.5577 39.1381 19.0351 40.5513 20.0658 43.3797H20.4517V40.8733C20.4517 38.9458 21.2866 37.5296 22.9599 36.6322V36.6322ZM26.4327 14.4601C27.5903 15.1045 28.1691 15.8762 28.1691 16.7737L27.5903 17.1593H27.3974L26.2398 16.1953C25.209 16.1953 24.3104 19.0241 23.5387 24.6785L23.3457 24.8713H23.1528C22.7669 24.8713 22.3811 23.9073 21.9952 21.9793L20.4517 19.6657L19.1012 20.2441H18.7153C17.4284 19.8585 16.7859 19.1538 16.7859 18.1233V17.3521C16.7859 17.0961 17.2355 16.9665 18.1365 16.9665H18.3294C19.7431 16.9665 21.3503 18.5749 23.1528 21.7865H23.3457V21.4009C23.858 16.7737 24.8892 14.4601 26.4327 14.4601V14.4601ZM30.8702 64.0099C33.3123 64.9078 34.536 65.7451 34.536 66.5163C34.536 67.0286 33.9572 68.252 32.7996 70.18C32.4137 70.18 31.3825 69.5351 29.7126 68.252H28.9409L28.1691 70.3728L27.3974 70.7584C24.8231 69.6016 23.5387 68.7643 23.5387 68.2524C23.5387 67.6075 24.1175 66.3244 25.2751 64.3964L28.9409 66.5172L30.8702 64.0108V64.0099ZM32.6067 27.9561C32.733 27.9561 32.7996 28.3417 32.7996 29.1129C34.3431 29.8841 35.1148 30.6553 35.1148 31.4265V32.1977C34.4699 33.8698 33.5713 34.7041 32.4137 34.7041H31.642C30.8702 34.7041 30.4844 34.2554 30.4844 33.3545V32.7761C31.5122 29.5646 32.2208 27.9561 32.6067 27.9561V27.9561ZM31.2561 32.9689L31.642 33.3545C33.3118 33.0986 34.1502 32.7125 34.1502 32.1977V31.8121C33.5053 31.0409 32.8633 30.6553 32.2208 30.6553C31.8349 30.6553 31.5122 31.4265 31.2561 32.9689ZM41.2888 9.44724C43.7309 9.44724 44.9546 9.64004 44.9546 10.0256V10.604C44.9546 12.0202 43.9899 13.6257 42.0605 15.4241C39.8717 16.5809 38.265 17.1593 37.2371 17.1593L36.8513 16.7737C37.7499 16.0025 39.1665 15.0385 41.0958 13.8817V13.3033H37.4301L36.0795 13.6889H35.5007L35.1148 13.3033C36.0134 10.7337 37.364 9.44724 39.1665 9.44724H41.2888V9.44724ZM46.1122 21.2081L46.3051 21.4009C45.2739 23.9738 44.7616 25.709 44.7616 26.6065C44.7616 27.1218 44.9546 27.5705 45.3404 27.9561H45.9192C46.0456 27.9561 46.3051 27.3146 46.691 26.0281H47.0769L47.2698 26.4137V26.9921C47.2698 28.0226 46.7542 28.9201 45.7263 29.6913C44.3092 29.3057 43.604 28.6642 43.604 27.7633V26.4137C43.604 24.3594 44.4389 22.6242 46.1122 21.2081V21.2081ZM46.498 57.069L47.0769 57.4551V58.8047C47.975 58.8047 48.7467 59.3831 49.3921 60.5404V61.3116C49.3921 62.5947 48.4906 63.4956 46.691 64.0108H46.1122C45.3404 64.0108 44.9546 63.3659 44.9546 62.0828C45.5966 59.5089 46.1122 57.8412 46.498 57.07V57.069ZM46.498 59.961L46.1122 61.3111V62.2751H46.498C47.2698 62.2751 47.8486 62.0163 48.2345 61.5039V61.3111C47.8486 60.9255 47.2698 60.4725 46.498 59.9615V59.961ZM54.0225 49.1642H54.9872C55.3731 49.1642 55.566 49.4201 55.566 49.9359L54.6014 53.0202H55.566C56.7236 53.0202 58.3935 51.7338 60.5824 49.1642L60.9682 49.5498C60.5824 51.0922 59.1657 52.6346 56.7236 54.177C55.9519 54.433 55.2433 54.5631 54.6014 54.5631H54.0225C53.5069 54.433 53.2508 54.111 53.2508 53.5991L54.0225 50.8999V50.7071H53.2508L52.8649 51.0927H52.4791L52.0932 50.7071C52.3488 49.6756 52.9903 49.1647 54.0225 49.1647V49.1642ZM62.3188 22.7505C63.6028 24.0365 64.3113 25.2569 64.4411 26.4137V26.9921C64.4411 28.1489 63.9887 28.7273 63.0905 28.7273C62.189 28.6006 61.481 28.4078 60.9682 28.1489C60.9682 29.1794 60.1304 29.7578 58.4601 29.8841C57.4288 29.7578 56.9166 29.3057 56.9166 28.5345V25.8353L55.566 26.6065V26.0281C55.8222 24.8713 56.401 24.2929 57.3025 24.2929L57.8813 24.6785V27.9561C57.8813 28.0858 58.3303 28.2786 59.2318 28.5345H59.4248C59.8106 28.2786 60.0036 27.9561 60.0036 27.5705V27.1849L59.2318 23.3289H59.8106C60.0667 23.3289 60.7087 24.4226 61.74 26.6065L62.1259 26.9921H63.0905L63.2835 26.6065L61.74 23.3289L62.3188 22.7505ZM60.0036 63.8171C62.4456 64.4591 63.8623 67.0952 64.2481 71.7219C63.8623 73.5202 63.4764 74.4211 63.0905 74.4211L62.7047 74.036C62.9608 73.2643 63.0905 72.4931 63.0905 71.7219V71.3363C63.0905 69.6642 62.0598 67.7998 60.0036 65.7446L59.6177 64.7806C59.7431 64.1347 59.8733 63.8166 60.0036 63.8166V63.8171ZM82.77 3.08481C83.6681 3.08481 84.1205 3.47041 84.1205 4.24162V5.01282C83.3488 6.81454 82.2544 7.71203 80.8406 7.71203H80.2618L80.0689 7.51923H79.876L79.1042 8.86884L78.5254 8.67604L78.7183 7.32643H78.5254C78.2664 7.32643 77.8168 7.58575 77.1749 8.09763C76.6592 8.09763 76.2102 7.84169 75.8243 7.32643H75.6314C75.2455 7.32643 74.7299 7.58575 74.0879 8.09763H73.702V7.71203C73.702 6.68489 74.5369 6.04334 76.2102 5.78402C76.4663 6.29928 76.9154 6.55523 77.5607 6.55523H77.7537V3.66322H77.9466C78.2027 3.66322 78.6518 4.37128 79.2971 5.78402H79.683C80.966 3.98567 81.9983 3.08481 82.77 3.08481V3.08481ZM79.683 51.8634L79.876 52.0557V52.2481C78.5886 56.2313 77.9466 58.8038 77.9466 59.9601C78.073 60.8581 78.5254 61.3102 79.2971 61.3102C80.0689 61.3102 80.4548 60.6653 80.4548 59.3822L81.0336 58.9961L81.2265 59.1889V60.7313C81.2265 62.2737 80.518 63.3008 79.1042 63.8156H78.7183C77.431 63.8156 76.789 62.5928 76.789 60.1524C76.789 58.8664 77.6239 56.2304 79.2971 52.2476L79.683 51.862V51.8634ZM80.2618 10.604C83.0898 14.5897 84.763 17.8042 85.2782 20.2441L85.0852 20.8225H84.5064L82.5771 18.7017V19.0873L85.0852 35.8609C86.1131 41.5158 86.6287 45.3082 86.6287 47.2362C86.1131 51.9897 85.7272 54.3698 85.4711 54.3698H85.0852C84.8257 54.3698 84.5064 52.3758 84.1205 48.393C82.7034 36.0542 81.3534 26.4142 80.0689 19.4729C80.0689 17.5449 79.7462 15.8097 79.1042 14.2673C79.4901 11.8274 79.876 10.604 80.2618 10.604V10.604ZM80.6477 6.16963H81.6124C82.2544 6.16963 82.7034 5.97682 82.9629 5.59122V4.62722H81.9983C81.6124 4.88654 81.159 5.39842 80.6477 6.16963ZM95.1179 67.6731L95.3108 67.8659V68.6371C95.0513 69.2791 93.3149 70.5651 90.1016 72.4931C88.4283 74.1623 87.2707 75 86.6287 75L86.4358 74.8072V74.036C88.1056 71.9778 90.9365 69.857 94.925 67.6731H95.1179ZM97.819 2.50641C98.7176 2.50641 99.8752 4.04882 101.292 7.13363L101.678 9.25444V10.9896H101.871C102.899 10.9896 105.985 9.57642 111.132 6.74803L112.289 6.55523H112.482L113.061 7.32643V7.90483C113.061 8.54975 111.644 10.3481 108.816 13.3033C108.301 14.3338 108.045 15.2313 108.045 16.0025V16.1953C116.148 13.3698 120.649 11.9536 121.55 11.9536L121.743 12.1465V12.3393C121.743 13.1105 118.463 14.4601 111.903 16.3881C97.2402 21.5305 89.9086 24.9378 89.9086 26.6065V26.9921C92.4805 27.2514 93.7673 27.5705 93.7673 27.9561C93.7673 28.4714 93.6376 28.7938 93.3815 28.9201H92.6097C90.0355 28.6642 88.751 28.0226 88.751 26.9921V26.6065C88.751 24.0365 94.6659 20.6957 106.501 16.5809C106.887 16.3249 107.336 15.2978 107.852 13.4961C108.494 12.3393 109.781 10.7337 111.71 8.67604L111.517 8.29043H111.132L104.572 11.9536L100.906 13.1105L98.0119 13.3033H97.2402C96.7246 13.3033 95.6967 13.1105 94.1532 12.7249H93.9603L92.6097 13.6889H91.0662L89.7157 12.9177C89.4562 13.0473 89.0071 13.4961 88.3651 14.2673L87.7863 13.8817V13.3033C88.6844 11.8905 89.3298 11.1824 89.7157 11.1824C90.2284 11.1824 90.8733 11.568 91.645 12.3393L92.2239 12.5321L92.8027 11.568L92.2239 8.09763L92.4168 7.90483H92.6097L94.3462 10.604C94.9881 11.2485 95.7599 11.568 96.6614 11.568H100.52L100.713 10.604V9.83284C100.713 8.03449 99.5554 5.91368 97.2402 3.47041V2.69921C97.2402 2.57244 97.4331 2.50641 97.819 2.50641V2.50641ZM91.0662 30.8481L91.2592 31.4265L90.4874 35.8609V36.6322L91.4521 37.5962L92.6097 35.8609C92.7366 35.8609 92.8027 35.9877 92.8027 36.2465C92.8027 37.6598 92.4168 38.6869 91.645 39.3314H91.2592C89.9718 38.6864 89.3298 37.9152 89.3298 37.0178C89.8411 32.9058 90.4199 30.8481 91.0662 30.8481V30.8481ZM91.4521 43.3802C94.1532 44.1519 95.5038 44.9857 95.5038 45.8866C94.732 48.327 94.2164 49.5498 93.9603 49.5498H93.5744C92.6729 49.4201 91.3855 48.6489 89.7157 47.2362V46.6578C90.4874 44.471 91.0662 43.3802 91.4521 43.3802ZM98.0119 37.5962V37.9818C102.769 40.4221 105.856 42.4162 107.273 43.9586C111.258 42.1569 115.117 40.5518 118.849 39.1386V38.7525H118.463C109.974 37.7229 103.925 37.2106 100.327 37.2106C98.7837 37.2106 98.0119 37.3368 98.0119 37.5962V37.5962ZM108.045 22.5577H108.816C109.202 22.5577 109.522 23.1361 109.781 24.2929L109.395 24.8713L107.852 24.1001C106.95 24.8713 106.178 27.3777 105.536 31.6193V31.8121H105.151C104.891 31.8121 104.572 30.9146 104.186 29.1129C103.414 27.8298 102.642 27.1849 101.871 27.1849C100.327 27.1849 99.5554 26.7362 99.5554 25.8353V25.4497C99.6823 24.9373 100.134 24.6785 100.906 24.6785C102.064 24.6785 103.414 25.9645 104.958 28.5345H105.151C105.792 24.5522 106.757 22.5577 108.045 22.5577V22.5577ZM105.151 55.9122C105.277 56.8097 105.536 57.2618 105.922 57.2618C106.95 57.6479 107.466 58.1598 107.466 58.8042V59.5759C107.466 60.9887 106.501 61.823 104.572 62.0819H103.8C103.284 61.823 103.028 61.4369 103.028 60.9251V60.5399C103.028 58.7372 103.732 57.1948 105.151 55.9127V55.9122ZM104.572 58.4186L103.993 60.5394L104.958 60.7318C105.856 60.3462 106.308 60.0237 106.308 59.7678V59.3822C106.308 59.1219 105.729 58.8038 104.572 58.4182V58.4186ZM119.621 21.9793C120.392 21.9793 121.098 23.2658 121.743 25.8353V26.2209C121.613 27.3777 121.098 27.9561 120.2 27.9561H119.621L118.849 27.3777H118.656C118.656 28.1489 117.884 28.6006 116.341 28.7273C115.183 28.2149 114.604 27.2509 114.604 25.8353V25.2569C114.218 25.2569 114.026 25.1306 114.026 24.8713V24.2929L114.797 23.3289H115.183L115.762 24.1001V24.6785C115.762 26.4797 116.081 27.3777 116.727 27.3777C117.498 27.2509 117.884 26.9285 117.884 26.4137L117.112 23.3289V23.1361L117.498 22.5577C118.011 22.8165 118.59 23.9738 119.235 26.0281L120.2 26.4137L120.392 26.2209H120.585L119.427 22.9433V22.5577L119.62 21.9793H119.621ZM122.322 61.3107C123.35 61.3107 123.865 61.4369 123.865 61.6963V62.0819C123.865 63.3649 123.094 64.8442 121.55 66.5163L121.357 67.4803H121.744C123.413 67.4803 125.988 65.8718 129.461 62.6603H129.653V63.2387C129.653 64.7806 127.338 66.9019 122.708 69.6006L121.551 69.7934C120.519 69.5346 120.007 69.2155 120.007 68.8294V67.4798C120.007 66.5794 120.713 65.2925 122.129 63.6238V63.2382H121.936L119.235 64.0094V63.6238C119.235 62.5923 120.263 61.8211 122.322 61.3102L122.322 61.3107ZM142.58 62.0819H142.773V62.8531C141.742 64.1366 138.336 66.2574 132.547 69.216L126.567 73.072H126.374L126.181 72.6859V72.108C127.209 70.821 130.103 68.8299 134.863 66.1312C138.461 64.2031 141.037 62.8535 142.581 62.0823L142.58 62.0819ZM139.107 0.192801C140.135 0.192801 140.65 0.771203 140.65 1.92801C140.65 3.08481 139.686 4.11533 137.756 5.01282H136.599C136.213 5.91368 135.89 6.36243 135.634 6.36243V6.16963H135.248L135.634 5.59122L135.248 4.62722H135.055L132.74 5.59122L131.968 5.01282H131.389C131.389 5.52808 130.936 5.78402 130.038 5.78402C130.551 4.50045 131.003 3.72973 131.389 3.47041H132.546L133.511 4.04882L134.089 3.66322L133.704 2.69921V1.34961L134.089 1.1568C134.216 1.1568 134.539 1.73521 135.054 2.89201L136.019 3.66322C137.302 1.34961 138.334 0.192801 139.106 0.192801H139.107ZM136.213 8.67604C139.812 14.4601 141.615 18.0601 141.615 19.4729V19.6657H141.422C140.005 18.5089 139.04 17.9305 138.528 17.9305L140.843 31.6193H141.036C142.32 31.3634 145.087 29.821 149.332 26.9921L149.718 26.4137L149.332 25.2569C149.588 22.6874 150.167 21.4009 151.069 21.4009C152.483 21.4009 153.833 22.5577 155.12 24.8713V26.2209L154.348 26.9921H153.962L152.805 26.4137H151.454C151.324 27.4437 148.367 29.3718 142.579 32.1977L141.229 33.1617C142.127 38.1746 142.579 43.0577 142.579 47.8146C142.32 49.9985 142.064 51.0922 141.807 51.0922C141.422 51.0922 140.713 46.9769 139.685 38.7525C138.011 30.2697 136.661 21.9793 135.633 13.8817C135.118 13.1105 134.861 12.4684 134.861 11.9536C134.861 10.5409 135.31 9.44724 136.212 8.67604H136.213ZM217.053 27.5705C220.14 30.5286 221.684 32.3905 221.684 33.1617V33.3545H221.105L219.947 32.9689V33.1617C219.947 33.6765 220.912 35.8609 222.841 39.7165C223.613 41.9004 223.999 43.2505 223.999 43.7653V45.8861C223.999 48.5853 222.712 50.1913 220.14 50.7061H219.754C217.952 50.32 216.152 49.356 214.353 47.8141C213.966 50.5133 212.55 51.8629 210.108 51.8629H208.564C206.761 50.32 205.67 49.5488 205.284 49.5488C204.127 52.248 202.004 53.5977 198.917 53.5977C196.343 53.5977 194.22 51.4768 192.551 47.2352L191.972 46.6568H191.2C190.428 46.6568 189.078 47.8136 187.148 50.1272C186.633 50.8989 186.377 51.54 186.377 52.0553C186.377 53.0829 188.625 54.432 193.129 56.1036C194.287 56.8748 194.866 57.7713 194.866 58.8028V58.9951C194.866 60.6643 194.607 61.502 194.094 61.502C190.105 60.3452 187.853 59.7663 187.341 59.7663H186.184C182.452 59.7663 177.435 63.43 171.135 70.756C168.946 72.2984 167.209 73.0701 165.925 73.0701H164.768C163.351 72.9399 161.937 72.2323 160.523 70.9492C159.622 69.2772 159.106 67.7348 158.98 66.322C158.98 63.6223 160.331 60.3452 163.031 56.4892L165.539 53.5972V53.2111C164.252 52.0548 163.287 50.4463 162.645 48.3911H162.26C162.26 49.8043 161.551 51.539 160.137 53.5972C157.822 55.7811 155.633 56.8748 153.577 56.8748C150.617 56.8748 148.431 55.0104 147.017 51.2831L146.631 46.6559L147.21 41.643C146.565 41.643 145.667 45.0474 144.509 51.862C143.478 54.9463 142.387 56.4892 141.229 56.4892H140.65C139.619 56.4892 138.398 55.395 136.984 53.2111C136.083 50.253 135.633 48.4547 135.633 47.8132C135.89 44.3427 136.275 42.607 136.791 42.607H136.984L136.791 44.7279C136.791 49.867 137.819 52.826 139.878 53.5967H140.842C142.256 53.5967 143.477 50.5119 144.508 44.3423C145.922 39.1998 147.336 36.6302 148.753 36.6302H149.331L149.524 36.823V37.9798C148.753 42.4779 148.367 45.2402 148.367 46.2703C148.367 49.2259 149.265 51.1539 151.068 52.0543C151.84 52.4399 152.675 52.6327 153.576 52.6327H153.769C156.596 52.6327 158.978 51.0238 160.908 47.8127L161.294 47.0415C161.294 45.3694 160.522 42.0913 158.978 37.2086V32.1958H159.171V31.8102C160.455 31.8102 161.872 35.6662 163.416 43.3783C164.314 47.4902 166.117 49.5479 168.818 49.5479H169.011C170.295 49.5479 171.582 49.1623 172.87 48.3911V47.8127C172.87 47.0415 171.133 42.9261 167.66 35.4734C167.401 34.4463 167.274 33.6119 167.274 32.967V32.3886C167.274 30.8462 167.401 29.9482 167.66 29.6894C169.845 30.9759 171.326 32.7742 172.097 35.0878L171.905 35.4734H171.519L170.362 35.0878C173.319 40.3566 174.799 44.5982 174.799 47.8127V48.1983C174.799 51.4099 173.256 53.3379 170.168 53.9823H167.274C166.63 53.9823 165.665 54.9463 164.38 56.8743C163.093 58.1579 161.806 60.471 160.522 63.8147L160.329 65.1643V66.5139C160.329 69.0834 161.613 70.3699 164.187 70.3699C166.243 70.3699 169.909 67.0923 175.185 60.5375C179.044 57.8378 182.257 56.1026 184.832 55.3314L184.446 53.2106V52.8255C184.446 49.6105 185.989 46.4626 189.076 43.3778C190.104 42.4774 191.199 42.0282 192.356 42.0282H192.935C193.963 42.6697 194.735 43.826 195.25 45.4981C196.148 47.9385 197.499 49.1618 199.302 49.1618H200.459C202.644 49.1618 204.637 47.4261 206.44 43.9562L207.405 43.3778H207.791L207.598 44.9202V46.077C208.882 46.974 210.04 47.4261 211.07 47.4261C212.741 47.4261 213.964 45.9473 214.737 42.9922L215.701 42.4138L215.894 42.6061V43.9562H215.701V44.149C217.115 45.5617 218.595 46.2693 220.138 46.2693H220.717L222.068 46.077V45.6914C222.068 44.9202 220.844 41.8985 218.402 36.6297C218.016 35.0873 217.244 33.289 216.086 31.2313V30.0745C216.212 28.4058 216.535 27.5681 217.051 27.5681L217.053 27.5705ZM137.178 3.85602C138.592 3.60007 139.3 3.08481 139.3 2.31361V1.92801H138.721C137.949 1.92801 137.433 2.57244 137.177 3.85602H137.178ZM145.474 6.16963C148.302 7.32643 150.298 8.9985 151.455 11.1824C151.968 12.5986 152.227 13.6257 152.227 14.2673V15.0385L152.613 15.4241L164.961 9.83284L170.363 8.09763L170.749 8.67604V8.86884C170.363 9.51376 166.438 11.1824 158.98 13.8817C154.862 15.8097 150.231 18.1898 145.088 21.0153H144.895V20.2441C144.895 19.2169 146.632 18.0601 150.105 16.7737L151.455 15.6169V14.4601C151.455 12.2761 149.459 9.89936 145.474 7.32643L145.088 6.36243L145.474 6.16963V6.16963ZM150.49 24.6785V24.8713L151.648 25.2569V24.1001L151.262 23.7145C150.746 23.7145 150.49 24.037 150.49 24.6785H150.49ZM152.806 24.1001V24.8713L152.999 25.2569H153.77C153.77 24.4857 153.447 24.1001 152.806 24.1001ZM156.471 3.47041H156.857C157.113 3.47041 157.243 3.72973 157.243 4.24162C157.499 4.24162 158.271 4.7564 159.558 5.78402C158.657 7.97135 157.563 9.06164 156.279 9.06164C155.507 9.06164 155.121 8.29043 155.121 6.74803C155.893 4.56408 156.341 3.47041 156.471 3.47041V3.47041ZM156.279 5.78402L156.086 7.32643H156.858L157.437 7.13363V6.74803C157.437 6.10648 157.051 5.78402 156.279 5.78402H156.279ZM166.89 18.1233H167.083C168.367 19.5394 169.012 20.7593 169.012 21.7865V22.5577C169.012 23.5877 168.626 24.1001 167.855 24.1001H167.276C166.89 24.1001 166.567 23.8442 166.311 23.3289H166.118C165.087 24.6154 164.189 25.2569 163.417 25.2569C162.26 25.2569 161.614 24.4857 161.487 22.9433V21.0153L160.523 21.7865L160.137 21.4009V21.0153C160.137 19.8585 160.909 19.0873 162.452 18.7017H163.031C162.772 19.3461 162.578 20.4369 162.452 21.9793C162.708 22.8802 163.158 23.3289 163.803 23.3289C164.445 23.073 164.831 22.6874 164.96 22.1721L164.381 19.4729V18.5089H164.574C164.83 18.5089 165.472 19.6025 166.504 21.7865L166.89 21.9793H167.854L166.504 18.5089L166.89 18.1233H166.89ZM166.89 59.5754H167.083V60.1534C167.083 60.4093 167.661 60.7954 168.819 61.3102L169.012 62.0814V63.0454C169.012 64.0725 168.111 64.8437 166.311 65.3595C165.41 65.1002 164.96 64.6514 164.96 64.0094V63.4315C164.96 62.0144 165.602 60.7323 166.89 59.5754H166.89ZM166.504 61.6963L165.925 63.2387V63.8166H167.083C167.855 63.5577 168.24 63.1721 168.24 62.6603L166.697 61.6963H166.504H166.504ZM174.029 0.192801L175.958 3.08481C176.856 1.41612 177.695 0.385602 178.466 0H179.817C180.073 0 180.329 0.578402 180.589 1.73521C180.589 2.63607 179.751 3.60007 178.081 4.62722C177.179 4.62722 176.344 5.01282 175.573 5.78402L175.187 4.24162L172.872 5.59122L171.714 4.62722H171.135L170.17 5.59122H169.592V5.01282C169.592 4.24162 170.104 3.60007 171.135 3.08481H172.1L173.064 3.85602C173.706 3.85602 174.093 3.60007 174.222 3.08481L173.836 1.34961V0.578402L174.029 0.192801H174.029ZM175.186 7.13363C175.699 7.51923 176.923 9.70607 178.852 13.6889C179.75 15.4906 180.203 16.8402 180.203 17.7377V17.9305L180.01 18.1233H179.817L177.502 16.0025L177.309 16.7737V17.3521L179.817 31.6193C181.102 39.4576 181.747 44.1514 181.747 45.6938V45.8866C181.488 51.0257 181.168 53.5986 180.782 53.5986H180.01V52.6346C180.01 49.1642 178.4 37.9157 175.187 18.8945C174.801 13.6257 174.349 10.9896 173.836 10.9896C173.962 8.42009 174.415 7.13363 175.187 7.13363H175.186ZM178.852 1.34961C177.821 2.12081 177.309 2.76573 177.309 3.27761C178.593 2.89201 179.238 2.44327 179.238 1.92801L178.852 1.34961ZM191.586 63.6243H191.972V64.0099C191.972 64.9078 190.621 65.8718 187.92 66.9019C181.36 70.7579 178.014 72.6859 177.887 72.6859L177.502 72.108C177.502 71.3363 178.4 70.4991 180.203 69.6011C183.801 67.5429 187.597 65.5523 191.586 63.6243V63.6243ZM194.094 25.8353H194.48C194.866 26.0946 195.252 26.6065 195.637 27.3777C195.507 27.8925 195.315 28.1489 195.059 28.1489L194.094 27.3777H193.901C192.87 27.3777 192.099 30.0769 191.586 35.4753H191.2C190.94 35.216 190.555 34.3846 190.042 32.9689C189.011 31.1706 188.24 30.2697 187.727 30.2697L187.341 30.8481H186.955C185.538 30.8481 184.834 30.2066 184.834 28.9201V28.1489C184.834 28.0226 185.219 27.893 185.991 27.7633C187.661 27.7633 189.397 29.3057 191.2 32.3905C191.712 28.0226 192.676 25.8353 194.094 25.8353H194.094ZM190.042 15.8097C190.684 16.0685 191.007 16.5177 191.007 17.1593V18.1233L190.621 18.5089H190.235L189.271 17.3521L188.498 17.7377V18.7017L189.463 18.8945H190.042L193.129 17.9305C193.385 17.9305 193.515 18.0601 193.515 18.3161C193.515 18.7017 192.357 19.5394 190.042 20.8225C189.527 21.4669 188.947 21.7865 188.305 21.7865H188.112L188.498 20.2441L187.148 19.0873V18.7017C187.148 17.4186 188.112 16.4546 190.042 15.8097H190.042ZM211.458 58.2258H211.651L212.037 58.4186V60.1538C212.037 61.0518 211.199 61.5039 209.529 61.5039C208.757 62.6603 207.856 63.2391 206.827 63.2391H206.441C205.67 62.4679 205.154 62.0823 204.898 62.0823C204.383 62.0823 202.516 64.0103 199.303 67.8664C196.728 70.0503 193.834 71.9152 190.621 73.4576L190.042 73.8432H189.27V73.4571C189.27 73.1983 191.519 71.6563 196.023 68.8299C197.307 67.7998 200.008 65.2298 204.126 61.1179C204.512 60.7323 205.024 60.5399 205.67 60.5399H206.056L207.599 61.5039C208.497 60.9887 208.95 60.0878 208.95 58.8042H209.335L210.107 59.9606H211.072V59.7678C211.072 58.7363 211.197 58.2254 211.458 58.2254L211.458 58.2258ZM198.339 33.9329V34.3185L197.181 37.7885V38.7525C197.181 39.3945 197.437 39.8437 197.953 40.1026H198.339L199.496 38.7525H199.689L200.075 39.1386C199.56 41.3225 198.788 42.4162 197.76 42.4162C196.729 41.7717 196.216 40.9369 196.216 39.9098V39.1386C196.216 37.4665 196.921 35.7313 198.339 33.9329ZM209.722 16.5809H210.108C210.494 16.7105 210.813 17.0961 211.072 17.7377V18.5089L210.686 18.8945H210.494L209.529 17.7377C208.112 18.7677 207.407 20.1805 207.407 21.9793L206.442 25.6425H206.249C205.092 22.3018 204.446 20.6297 204.32 20.6297H203.741L203.354 21.0153H203.161C201.618 20.5029 200.846 19.7953 200.846 18.8945V18.1233C201.232 17.8673 201.618 17.7377 202.003 17.7377C203.933 17.7377 205.347 19.3461 206.248 22.5577H206.441C206.827 18.5754 207.917 16.5809 209.721 16.5809H209.722ZM208.564 28.9201C210.234 29.0498 211.072 29.3722 211.072 29.8841V30.0769C211.072 31.2337 210.171 32.7761 208.371 34.7041C206.182 36.2465 204.512 37.0178 203.354 37.0178V36.6322C203.741 35.9877 204.962 34.8969 207.021 33.3545V33.1617L206.442 32.9689C203.741 33.2283 202.39 33.4211 202.39 33.5473H202.004L201.618 33.3545V32.9689C202.39 30.785 203.225 29.6913 204.127 29.6913L208.564 28.9201V28.9201ZM204.513 7.90483C204.513 8.80569 204.769 9.25444 205.284 9.25444C206.569 9.7697 207.214 10.4112 207.214 11.1824C207.214 12.2125 206.376 13.1105 204.706 13.8817H203.934C203.162 13.8817 202.647 13.3693 202.391 12.3393C203.288 9.51376 203.997 8.03449 204.513 7.90483H204.513ZM203.934 10.4112L203.548 12.5321V12.7249H204.513C205.025 12.7249 205.604 12.3393 206.249 11.568V11.1824L203.934 10.4112ZM223.227 62.8531L223.42 63.4319C223.42 64.2031 220.14 65.8087 213.581 68.252C211.265 69.5351 209.915 70.18 209.529 70.18L209.336 69.9872V69.216C209.722 68.4443 213.129 66.8358 219.562 64.3959C221.361 63.3645 222.581 62.8535 223.228 62.8535L223.227 62.8531ZM219.176 54.3698C221.618 55.141 222.841 56.039 222.841 57.069C222.841 57.8407 222.326 58.997 221.298 60.5399C219.239 59.6391 217.889 58.6119 217.247 57.4551C218.274 55.397 218.916 54.3703 219.176 54.3703L219.176 54.3698Z" fill="#101443"/>
</svg>
