<svg width="64" height="64" viewBox="0 0 64 64" fill="none" xmlns="http://www.w3.org/2000/svg">
<path fill-rule="evenodd" clip-rule="evenodd" d="M32.6577 50.6317L35.802 50.6423L34.4163 47.9229C33.3965 45.9216 33.1225 42.8795 33.0885 40.6567C33.0524 38.2981 33.2636 34.9352 34.1788 32.7441C34.5417 31.8754 34.9819 31.004 35.7538 30.4274C36.6794 29.7358 38.9446 29.3425 40.14 29.133C42.9938 28.6331 45.3525 27.3773 46.7536 24.773C47.1967 23.9492 47.4866 23.1004 47.7565 22.2094C47.9604 21.5365 48.1786 20.5831 48.8088 20.1878C49.5172 19.7434 49.9056 19.9008 50.7293 19.7475C51.355 19.6311 52.0324 19.6442 52.579 20.0108C52.7749 20.1422 53.0045 20.2429 53.2442 20.2429C53.3944 20.2429 53.5329 20.2036 53.6625 20.1285C53.8024 20.0472 53.9167 19.9289 54.0064 19.7952C55.2586 17.928 54.8267 17.7514 52.7577 17.3072C52.4093 17.2324 52.0451 17.1582 51.7095 17.0383C50.5796 16.6344 49.4053 15.4583 48.2072 15.3475C47.2693 15.2608 46.4002 15.3885 45.7352 16.1105C45.1498 16.7461 44.725 18.1117 44.499 18.9354C44.2486 19.8476 44.0996 20.7348 43.7598 21.6301C43.4719 22.3885 43.1245 23.3776 42.3937 23.8151C41.6608 24.2539 40.3836 24.2078 39.5487 24.2078C38.3084 24.2078 37.2115 23.9287 36.3287 23.0152C35.9897 22.6644 35.7246 22.2662 35.4576 21.8606C34.5645 20.504 33.8761 19.6972 32.3554 18.9894C31.7734 18.7186 31.0201 17.4305 30.6636 16.8822C30.2655 16.27 29.6804 15.306 29.1458 14.8237C28.2104 13.9796 26.997 13.3403 25.7238 13.2538C24.647 13.1806 23.657 13.509 22.8891 14.2817L22.7926 14.3789L22.6734 14.4465C21.9635 14.8494 21.5428 15.9367 21.235 16.6469C20.6288 18.0462 19.9478 19.5157 18.3782 20.0264C16.2159 20.7298 14.0242 21.9109 13.3159 24.2261C12.7993 25.9147 13.1476 27.81 13.4603 29.5059C13.5916 30.2182 13.7542 31.011 13.7547 31.7344C13.756 33.4334 13.1537 34.4951 12.1999 35.82C12.0924 35.9694 11.9848 36.1188 11.8796 36.2697C11.4517 36.8835 11.0927 37.485 10.9233 38.2228C10.6949 39.2177 10.8527 40.2847 11.1141 41.2565C11.3227 42.0324 11.563 42.8015 11.8005 43.569C12.0629 44.4173 12.3776 45.2406 12.5481 46.1159L13.414 50.5608L15.9898 50.7134C15.8272 50.5706 15.6673 50.4263 15.5189 50.2679C14.7055 49.4 14.4334 48.1303 14.2942 46.9265L14.2266 46.9324L14.1889 45.7072C14.1386 44.0746 14.0712 42.4269 14.0723 40.7939C14.0728 40.0734 14.0694 39.0824 14.3 38.396C14.5022 37.7943 14.9263 37.5129 15.4422 37.2022C16.3603 36.6492 17.0219 36.1086 17.7614 35.3183C18.3733 34.6644 18.724 33.9012 18.9551 33.0424C19.1385 32.361 19.2394 31.6472 19.3176 30.9468L19.4684 29.5968L20.7126 30.1418C21.9541 30.6856 23.2423 31.0978 24.5811 31.3183C25.4939 31.4685 26.3687 31.511 27.2902 31.5298C27.792 31.5401 28.4398 31.5334 28.9131 31.6988C30.228 32.1584 30.3822 33.0902 30.5871 34.3203C30.6639 34.7813 30.7441 35.2397 30.8373 35.6978C31.3103 38.0228 31.3978 40.4735 31.4942 42.8404C31.5845 45.0598 31.6847 48.5827 32.6577 50.6318L32.6577 50.6317Z" fill="white"/>
<path fill-rule="evenodd" clip-rule="evenodd" d="M31 17.4104C30.8686 17.206 30.7534 17.0205 30.6634 16.8821C30.2654 16.2699 29.6803 15.306 29.1457 14.8237C28.2103 13.9796 26.9969 13.3403 25.7236 13.2538C24.6469 13.1806 23.6568 13.509 22.889 14.2817L22.7924 14.3789L22.6732 14.4465C21.9634 14.8493 21.5426 15.9367 21.2349 16.6469C21.071 17.0253 20.9016 17.4087 20.7106 17.7769V24.0001C24.3657 25.3527 27.7934 25.3404 31 24.0001V17.4104Z" fill="#2992CE"/>
<path d="M13.5778 24.2607C13.8337 24.2981 14.0715 24.1211 14.1088 23.8653C14.1463 23.6094 13.9692 23.3716 13.7134 23.3342C11.0778 22.9457 10.1745 24.2235 9.88466 26.1897C9.74397 27.1443 9.76538 28.2669 9.78759 29.43C9.82347 31.3115 9.8615 33.3044 9.18556 34.7012C9.07331 34.9338 9.17088 35.2134 9.40344 35.3256C9.636 35.4379 9.91559 35.3403 10.0278 35.1078C10.7996 33.5129 10.7594 31.4052 10.7214 29.4154C10.7 28.2976 10.6795 27.2187 10.8112 26.3252C11.0207 24.9037 11.6735 23.98 13.5778 24.2607V24.2607Z" fill="white"/>
</svg>
