<svg width="62" height="62" viewBox="0 0 62 62" fill="none" xmlns="http://www.w3.org/2000/svg">
<path fill-rule="evenodd" clip-rule="evenodd" d="M45.3797 19.1563L17.018 15.5108L11.3925 14.3005L11.3928 14.2988C10.8745 14.1873 10.3639 14.5171 10.2524 15.0354C10.2484 15.0539 10.245 15.0723 10.2422 15.0907L8.14324 24.8471L8.14159 24.8467C8.03014 25.365 8.3599 25.8757 8.87821 25.9871C8.89651 25.9911 8.91491 25.9944 8.93341 25.9973C16.724 27.6734 23.1443 29.8501 31.0195 32.2436C31.5196 31.3594 32.1415 30.5382 32.8754 29.8043C34.1087 28.571 35.5882 27.6538 37.2001 27.1C38.3453 26.6643 39.5877 26.4257 40.8858 26.4257C42.1839 26.4257 43.4264 26.6643 44.5717 27.1001C46.1835 27.654 47.6629 28.5711 48.8961 29.8044C49.907 30.8152 50.7053 31.9914 51.2654 33.2704C52.1854 32.1551 52.8162 30.8041 53.1213 29.3857C53.395 28.1133 53.4071 26.783 53.1312 25.5175C52.8886 24.4048 52.4254 23.3414 51.7241 22.408C49.6734 23.0197 47.5269 21.6313 47.2843 19.4753C46.5936 19.2824 46.1153 19.2508 45.3797 19.1563V19.1563Z" fill="white"/>
<path fill-rule="evenodd" clip-rule="evenodd" d="M40.8858 27.3045C43.6819 27.3045 46.3407 28.4061 48.3176 30.383C50.2944 32.3598 51.396 35.0186 51.396 37.8148C51.396 40.6109 50.2944 43.2697 48.3176 45.2465C46.3407 47.2234 43.6819 48.325 40.8858 48.325C38.0897 48.325 35.4308 47.2234 33.454 45.2465C31.4771 43.2697 30.3755 40.6109 30.3755 37.8148C30.3755 35.0186 31.4771 32.3598 33.454 30.3829C35.4308 28.4061 38.0897 27.3045 40.8858 27.3045V27.3045ZM45.7095 32.991C44.4254 31.7069 42.7021 30.993 40.8858 30.993C39.0695 30.993 37.3461 31.7068 36.062 32.991C34.7779 34.2751 34.064 35.9985 34.064 37.8148C34.064 39.6311 34.7779 41.3543 36.062 42.6385C37.3461 43.9227 39.0695 44.6365 40.8858 44.6365C42.7021 44.6365 44.4254 43.9226 45.7095 42.6385C46.9937 41.3544 47.7075 39.6311 47.7075 37.8148C47.7075 35.9985 46.9937 34.2751 45.7095 32.991V32.991Z" fill="#2992CE"/>
<path d="M40.8856 34.8412C41.7066 34.8412 42.4499 35.1741 42.988 35.7122C43.5261 36.2503 43.859 36.9937 43.859 37.8147C43.859 38.6356 43.5261 39.379 42.9881 39.9171C42.4499 40.4552 41.7066 40.7881 40.8856 40.7881C40.0647 40.7881 39.3213 40.4552 38.7832 39.9171C38.2451 39.379 37.9122 38.6356 37.9122 37.8147C37.9122 36.9937 38.2451 36.2503 38.7832 35.7122C39.3213 35.1741 40.0647 34.8412 40.8856 34.8412ZM41.4056 37.2946C41.3374 37.2262 41.2564 37.172 41.1671 37.1351C41.0779 37.0981 40.9822 37.0792 40.8856 37.0793C40.789 37.0791 40.6934 37.0981 40.6041 37.1351C40.5149 37.172 40.4338 37.2262 40.3656 37.2946C40.2972 37.3628 40.243 37.4439 40.206 37.5332C40.1691 37.6224 40.1501 37.7181 40.1502 37.8147C40.1502 38.0178 40.2326 38.2016 40.3656 38.3347C40.4338 38.4031 40.5149 38.4573 40.6041 38.4942C40.6934 38.5312 40.789 38.5501 40.8856 38.55C41.0887 38.55 41.2726 38.4677 41.4056 38.3347C41.474 38.2665 41.5282 38.1854 41.5652 38.0962C41.6021 38.0069 41.6211 37.9113 41.6209 37.8147C41.6211 37.7181 41.6021 37.6224 41.5652 37.5332C41.5282 37.4439 41.474 37.3628 41.4056 37.2946V37.2946Z" fill="#2992CE"/>
<path d="M41.8196 28.8603C41.8196 28.3301 41.3897 27.9003 40.8596 27.9003C40.3294 27.9003 39.8995 28.3301 39.8995 28.8603V35.5435C39.8995 36.0737 40.3294 36.5035 40.8595 36.5035C41.3897 36.5035 41.8196 36.0737 41.8196 35.5435V28.8603ZM48.935 34.1062C49.3885 33.8329 49.5346 33.2435 49.2613 32.79C48.9879 32.3364 48.3985 32.1903 47.945 32.4637L42.3196 35.8538C41.866 36.1272 41.7199 36.7165 41.9933 37.17C42.2667 37.6236 42.856 37.7697 43.3096 37.4963L48.935 34.1062ZM47.9939 42.7114C48.4619 42.9579 49.0412 42.7782 49.2876 42.3102C49.534 41.8422 49.3544 41.2629 48.8864 41.0165L43.2731 38.0507C42.805 37.8042 42.2258 37.9839 41.9793 38.4519C41.7329 38.9199 41.9125 39.4992 42.3806 39.7456L47.9939 42.7114ZM40.3118 46.9276C40.3387 47.4558 40.7887 47.862 41.3168 47.8351C41.8449 47.8083 42.2512 47.3583 42.2243 46.8301L41.8829 40.1575C41.856 39.6293 41.406 39.2231 40.8779 39.25C40.3498 39.2769 39.9435 39.7269 39.9704 40.255L40.3118 46.9276V46.9276ZM32.9615 42.0121C32.5245 42.3103 32.412 42.9064 32.7102 43.3434C33.0084 43.7804 33.6045 43.8929 34.0415 43.5946L39.4673 39.8934C39.9043 39.5952 40.0168 38.9991 39.7186 38.5621C39.4204 38.1251 38.8243 38.0127 38.3873 38.3109L32.9615 42.0121ZM33.5039 33.3754C33.0234 33.1559 32.4559 33.3675 32.2364 33.8479C32.0169 34.3284 32.2284 34.8959 32.7089 35.1154L38.4802 37.7608C38.9607 37.9803 39.5282 37.7688 39.7477 37.2883C39.9672 36.8078 39.7557 36.2403 39.2752 36.0208L33.5039 33.3754Z" fill="#2992CE"/>
<path d="M50.6375 15.7926C51.5953 15.7926 52.4626 16.181 53.0903 16.8087C53.7181 17.4365 54.1064 18.3038 54.1064 19.2616C54.1064 20.2194 53.7181 21.0866 53.0903 21.7144C52.4626 22.3421 51.5953 22.7305 50.6375 22.7305C49.6798 22.7305 48.8125 22.3422 48.1847 21.7144C47.557 21.0867 47.1686 20.2194 47.1686 19.2616C47.1686 18.3038 47.5569 17.4365 48.1847 16.8088C48.8125 16.181 49.6798 15.7926 50.6375 15.7926Z" fill="white"/>
</svg>
