<svg width="26" height="24" viewBox="0 0 26 24" fill="none" xmlns="http://www.w3.org/2000/svg">
<path d="M8.4752 17.7246H8.47505C8.35991 17.7244 8.24584 17.7041 8.13797 17.6647L5.4113 19.5304C5.22498 19.6579 5.01064 19.7203 4.79759 19.7203C4.79755 19.7203 4.79752 19.7203 4.79748 19.7203V19.6203C4.6677 19.6204 4.53917 19.595 4.41925 19.5453C4.29932 19.4957 4.19037 19.4229 4.09862 19.3311L8.4752 17.7246ZM8.4752 17.7246C8.72696 17.7246 8.97921 17.6287 9.17118 17.4367L15.9873 10.6202C16.339 10.901 16.7721 11.0538 17.2285 11.0538C17.7611 11.0538 18.2624 10.8462 18.639 10.4695L21.8545 7.2539L21.8024 7.2018L21.8545 7.2539C22.4353 6.67306 22.4353 5.72822 21.8545 5.14734L21.7838 5.21805L21.8545 5.14734L21.5704 4.86323C21.9807 4.01832 21.8244 2.97353 21.14 2.289C20.2636 1.41256 18.838 1.41261 17.9617 2.289L5.99311 14.2581L8.4752 17.7246ZM5.70469 14.9544C5.7047 15.0715 5.72545 15.1854 5.76455 15.2922L3.89938 18.0184C3.60393 18.4501 3.65804 19.0319 4.0279 19.4018L5.99291 14.2583C5.90126 14.3495 5.82859 14.458 5.77912 14.5774C5.72963 14.6969 5.70433 14.8251 5.70469 14.9544ZM5.70469 14.9544C5.70469 14.9544 5.70469 14.9543 5.70469 14.9543H5.80452L5.70469 14.9546C5.70469 14.9545 5.70469 14.9545 5.70469 14.9544ZM4.68994 18.5592L6.40094 16.0584L7.37116 17.0287L4.87054 18.7398C4.87051 18.7398 4.87048 18.7398 4.87046 18.7398C4.84546 18.7568 4.81531 18.7646 4.7852 18.7618C4.75505 18.7589 4.72684 18.7457 4.70544 18.7243C4.68403 18.7029 4.67077 18.6747 4.66794 18.6445C4.66511 18.6144 4.67289 18.5842 4.68994 18.5592ZM17.9616 9.79218C17.5574 10.1963 16.8995 10.1964 16.4953 9.79218C16.0911 9.38798 16.0911 8.73004 16.4953 8.32579C16.4953 8.32579 16.4953 8.32579 16.4953 8.32578L19.7107 5.11016C19.8143 5.00659 19.9502 4.95477 20.0866 4.95477C20.223 4.95477 20.359 5.0066 20.4625 5.11015L20.4625 5.11016L21.177 5.82477L21.1771 5.82479C21.3843 6.03192 21.3843 6.36928 21.1771 6.57656L17.9616 9.79218ZM19.5507 2.5887C19.8954 2.5887 20.2188 2.72272 20.4626 2.96638C20.786 3.28988 20.9035 3.75463 20.8025 4.17992C20.2371 3.8703 19.512 3.95426 19.0334 4.43277L19.1042 4.50349L19.0334 4.43278L15.818 7.6484L15.8887 7.71911L15.818 7.64841C15.2226 8.24387 15.0835 9.1246 15.3992 9.85364L8.49392 16.7593C8.48896 16.7642 8.48223 16.767 8.47523 16.767C8.46822 16.767 8.46149 16.7642 8.45653 16.7593L8.45255 16.7553L8.45251 16.7552L8.4516 16.7543L8.45157 16.7543L6.67617 14.9788L6.67607 14.9787L6.67609 14.9786L6.67439 14.9769L6.67031 14.9729L6.67019 14.9727C6.66778 14.9703 6.66587 14.9675 6.66457 14.9643C6.66327 14.9612 6.6626 14.9578 6.66261 14.9544L6.66261 14.9539C6.6626 14.9505 6.66325 14.9472 6.66453 14.9441C6.66581 14.941 6.66769 14.9382 6.67006 14.9359L6.59963 14.8651L6.67026 14.9357L18.6389 2.96638C18.8826 2.72268 19.2061 2.5887 19.5507 2.5887ZM21.8421 22.2949C23.6386 22.2949 25.1 20.8334 25.1 19.0368C25.1 17.2403 23.6386 15.7788 21.8421 15.7788H11.5179C11.3909 15.7788 11.2691 15.8292 11.1792 15.9191C11.0894 16.0089 11.039 16.1307 11.039 16.2577C11.039 16.3847 11.0894 16.5066 11.1792 16.5964C11.2691 16.6862 11.3909 16.7367 11.5179 16.7367H21.8421C23.1102 16.7367 24.1421 17.7686 24.1421 19.0368C24.1421 20.3049 23.1102 21.3368 21.8421 21.3368H4.15787C2.88978 21.3368 1.85787 20.3049 1.85787 19.0368C1.85787 17.7686 2.88978 16.7367 4.15787 16.7367C4.2849 16.7367 4.40672 16.6862 4.49654 16.5964C4.58635 16.5066 4.63681 16.3847 4.63681 16.2577C4.63681 16.1307 4.58635 16.0089 4.49654 15.9191C4.40672 15.8292 4.2849 15.7788 4.15787 15.7788C2.36142 15.7788 0.9 17.2403 0.9 19.0368C0.9 20.8334 2.36142 22.2949 4.15787 22.2949H21.8421Z" fill="#2992CE" stroke="#2992CE" stroke-width="0.2"/>
</svg>
