<svg width="63" height="62" viewBox="0 0 63 62" fill="none" xmlns="http://www.w3.org/2000/svg">
<path fill-rule="evenodd" clip-rule="evenodd" d="M24.1137 18.3734L22.6709 26.2692C22.6317 26.4955 22.4164 26.6472 22.19 26.608C21.9636 26.5689 21.8118 26.3535 21.8511 26.1272L23.4632 17.3045C23.4645 17.2971 23.4659 17.2898 23.4676 17.2826L23.3663 16.8299C23.2159 16.1575 22.6179 15.7053 21.9614 15.5898C20.8244 15.3898 20.4314 15.7809 20.2401 16.8285L18.6774 25.3807C18.6382 25.6071 18.4228 25.7588 18.1964 25.7196C17.9701 25.6804 17.8183 25.4651 17.8575 25.2387L19.1703 18.0546C19.2966 17.3632 18.6698 16.6728 17.9774 16.5511C17.7389 16.5092 17.4907 16.5112 17.2537 16.5612C16.5276 16.7145 16.1045 17.2195 15.9772 17.9444L14.2511 27.759L11.7195 23.8815C11.3469 23.3109 10.8119 22.9878 10.1226 23.0868C9.87592 23.1222 9.63766 23.2138 9.42691 23.346C9.21229 23.4806 9.02125 23.6578 8.87623 23.8659C8.45053 24.4769 8.47162 25.1616 8.83762 25.7973C9.52276 26.9873 10.1051 28.2188 10.5879 29.5041C10.9653 30.5086 11.27 31.5245 11.5688 32.5539C12.1109 34.4212 12.5657 36.0682 13.9069 37.5417C15.1448 38.9018 16.6516 40.1887 18.3966 40.8357C20.0426 41.4459 21.6648 41.4108 23.316 40.8094C27.4559 39.3016 27.7999 37.3336 28.3075 33.3463C28.415 32.5014 28.5253 31.659 28.6729 30.8198L30.2845 21.6549C30.6286 19.6986 27.8748 18.8401 27.5875 20.4106L26.1437 28.3124C26.1045 28.5388 25.8892 28.6905 25.6628 28.6513C25.4364 28.6121 25.2847 28.3968 25.3239 28.1704L26.9336 19.361C27.1699 17.451 24.4009 16.8011 24.1136 18.3734L24.1137 18.3734Z" fill="white"/>
<path d="M23.6666 41.1232L14.8678 39.0217C13.8824 38.7864 12.9062 39.4545 12.6873 40.5141L12.4989 41.4264C12.28 42.486 12.9014 43.5357 13.8868 43.7711L22.6855 45.8726C23.6709 46.1079 24.6471 45.4397 24.866 44.3802L25.0544 43.4678C25.2733 42.4083 24.6519 41.3585 23.6666 41.1232Z" fill="#2992CE"/>
<path fill-rule="evenodd" clip-rule="evenodd" d="M39.0861 18.3734L40.5289 26.2692C40.5681 26.4955 40.7834 26.6472 41.0099 26.608C41.2362 26.5689 41.388 26.3535 41.3487 26.1272L39.7366 17.3045C39.7354 17.2971 39.7339 17.2898 39.7322 17.2826L39.8335 16.8299C39.984 16.1575 40.5819 15.7053 41.2384 15.5898C42.3754 15.3898 42.7684 15.7809 42.9597 16.8285L44.5225 25.3807C44.5616 25.6071 44.777 25.7588 45.0034 25.7196C45.2297 25.6804 45.3815 25.4651 45.3423 25.2387L44.0295 18.0546C43.9032 17.3632 44.5301 16.6728 45.2224 16.5511C45.4609 16.5092 45.7091 16.5112 45.9461 16.5612C46.6722 16.7145 47.0953 17.2195 47.2226 17.9444L48.9487 27.759L51.4803 23.8815C51.8529 23.3109 52.3879 22.9879 53.0772 23.0868C53.3239 23.1222 53.5621 23.2138 53.7729 23.346C53.9875 23.4806 54.1785 23.6578 54.3236 23.8659C54.7493 24.4769 54.7282 25.1616 54.3622 25.7973C53.677 26.9873 53.0947 28.2188 52.6119 29.5041C52.2345 30.5086 51.9298 31.5245 51.631 32.554C51.0889 34.4213 50.6341 36.0682 49.2929 37.5418C48.055 38.9018 46.5482 40.1887 44.8032 40.8357C43.1572 41.4459 41.535 41.4108 39.8838 40.8094C35.7439 39.3016 35.3999 37.3336 34.8923 33.3464C34.7848 32.5015 34.6745 31.659 34.5269 30.8198L32.9153 21.655C32.5712 19.6986 35.325 18.8401 35.6123 20.4106L37.0561 28.3125C37.0953 28.5388 37.3106 28.6905 37.537 28.6513C37.7633 28.6122 37.9151 28.3969 37.8759 28.1705L36.2662 19.361C36.0299 17.451 38.7989 16.8011 39.0862 18.3734H39.0861Z" fill="white"/>
<path d="M39.5334 41.1232L48.3322 39.0217C49.3175 38.7864 50.2938 39.4545 50.5126 40.5141L50.7011 41.4264C50.9199 42.486 50.2985 43.5357 49.3132 43.7711L40.5144 45.8726C39.529 46.1079 38.5528 45.4397 38.3339 44.3802L38.1455 43.4678C37.9266 42.4083 38.548 41.3585 39.5334 41.1232Z" fill="#2992CE"/>
</svg>
