<svg width="24" height="24" viewBox="0 0 24 24" fill="none" xmlns="http://www.w3.org/2000/svg">
<path d="M11.6929 20C16.3873 20 20.1929 16.1944 20.1929 11.5C20.1929 6.80558 16.3873 3 11.6929 3C6.99845 3 3.19287 6.80558 3.19287 11.5C3.19287 16.1944 6.99845 20 11.6929 20Z" fill="#2992CE"/>
<path d="M11.8366 3C10.3387 2.99955 8.86641 3.38828 7.56396 4.12808C7.48006 4.17598 7.41862 4.25524 7.39316 4.34844C7.3677 4.44163 7.38031 4.54112 7.4282 4.62502C7.4761 4.70893 7.55536 4.77036 7.64856 4.79582C7.74175 4.82128 7.84125 4.80868 7.92515 4.76078C9.65156 3.7783 11.684 3.48008 13.6199 3.9252C15.5558 4.37031 17.2539 5.52629 18.3778 7.16414C19.5017 8.80199 19.9695 10.8022 19.6884 12.7686C19.4074 14.7351 18.398 16.5242 16.8603 17.7816C15.3225 19.039 13.3686 19.6731 11.3856 19.5581C9.4025 19.4431 7.53497 18.5874 6.15289 17.1607C4.77082 15.7339 3.97504 13.8401 3.92318 11.8544C3.87132 9.86868 4.56717 7.93592 5.87288 6.43896C5.90641 6.4033 5.93241 6.36125 5.94931 6.31531C5.96622 6.26938 5.97369 6.2205 5.97128 6.17162C5.96887 6.12273 5.95663 6.07483 5.93528 6.03078C5.91394 5.98673 5.88393 5.94743 5.84705 5.91525C5.81018 5.88306 5.76719 5.85864 5.72066 5.84344C5.67413 5.82824 5.62501 5.82259 5.57625 5.8268C5.52748 5.83102 5.48007 5.84503 5.43684 5.86799C5.39361 5.89095 5.35545 5.92239 5.32465 5.96043C4.02602 7.44838 3.276 9.33611 3.19938 11.3096C3.12276 13.283 3.72417 15.2232 4.90353 16.8074C6.08289 18.3915 7.76911 19.5241 9.68164 20.0167C11.5942 20.5093 13.6177 20.3322 15.4156 19.5148C17.2135 18.6975 18.6773 17.2892 19.5635 15.5242C20.4497 13.7593 20.7049 11.7441 20.2867 9.81398C19.8684 7.88383 18.8018 6.1551 17.2644 4.91538C15.7271 3.67567 13.8116 2.99972 11.8366 3V3Z" fill="#101443"/>
<path d="M6.52463 5.65667C6.61002 5.65676 6.69269 5.62669 6.75807 5.57179C6.80357 5.5335 6.84948 5.49591 6.89581 5.45902C6.93314 5.42914 6.96423 5.3922 6.98729 5.35031C7.01035 5.30842 7.02493 5.2624 7.03021 5.21487C7.03548 5.16735 7.03134 5.11925 7.01803 5.07332C7.00471 5.02739 6.98248 4.98454 6.95261 4.9472C6.92273 4.90986 6.88579 4.87878 6.8439 4.85572C6.80201 4.83266 6.75599 4.81807 6.70846 4.8128C6.66093 4.80752 6.61283 4.81166 6.5669 4.82498C6.52098 4.83829 6.47812 4.86052 6.44079 4.8904C6.39023 4.93076 6.3403 4.97196 6.29057 5.01336C6.23322 5.06136 6.19204 5.12587 6.17263 5.1981C6.15322 5.27033 6.15653 5.34678 6.1821 5.41706C6.20767 5.48735 6.25427 5.54805 6.31555 5.59092C6.37684 5.63379 6.44984 5.65675 6.52463 5.65667V5.65667ZM15.8081 16.5108C15.7652 16.5456 15.7221 16.5798 15.6787 16.6135C15.64 16.6425 15.6074 16.6789 15.5829 16.7206C15.5584 16.7623 15.5425 16.8084 15.536 16.8563C15.5295 16.9042 15.5326 16.953 15.5452 16.9996C15.5578 17.0463 15.5795 17.0901 15.6091 17.1283C15.6388 17.1665 15.6757 17.1984 15.7178 17.2221C15.7599 17.2459 15.8063 17.2611 15.8544 17.2667C15.9024 17.2723 15.951 17.2684 15.9975 17.255C16.044 17.2416 16.0873 17.2191 16.125 17.1888C16.1732 17.1516 16.2209 17.1135 16.2679 17.0752C16.3061 17.0454 16.338 17.0083 16.3617 16.966C16.3854 16.9237 16.4004 16.8771 16.4058 16.829C16.4112 16.7808 16.407 16.732 16.3934 16.6855C16.3797 16.639 16.3569 16.5957 16.3263 16.5582C16.2957 16.5206 16.2579 16.4895 16.2151 16.4667C16.1723 16.4439 16.1254 16.4299 16.0772 16.4255C16.0289 16.4211 15.9802 16.4264 15.934 16.441C15.8878 16.4556 15.845 16.4794 15.8081 16.5108V16.5108Z" fill="#101443"/>
<path d="M16.7622 16.1194C16.8371 16.1803 16.9331 16.209 17.0292 16.1991C17.1252 16.1892 17.2134 16.1416 17.2744 16.0668C18.2779 14.8327 18.8318 13.294 18.8451 11.7034C18.8584 10.1129 18.3302 8.56513 17.3474 7.31448C16.3646 6.06383 14.9857 5.18469 13.4371 4.8215C11.8885 4.45832 10.2624 4.63269 8.82606 5.31597C7.3897 5.99926 6.22848 7.1508 5.53321 8.5814C4.83794 10.012 4.64997 11.6365 5.00019 13.1881C5.35042 14.7397 6.218 16.126 7.46038 17.1192C8.70276 18.1124 10.246 18.6535 11.8366 18.6535C12.8304 18.6559 13.8131 18.4451 14.7184 18.0354C14.8064 17.9956 14.8751 17.9225 14.9092 17.8322C14.9433 17.7419 14.9401 17.6417 14.9004 17.5536C14.8606 17.4656 14.7875 17.397 14.6972 17.3629C14.6068 17.3288 14.5066 17.3319 14.4186 17.3717C13.1827 17.9293 11.7995 18.0719 10.4758 17.7784C9.15201 17.4849 7.95879 16.7709 7.07438 15.7431C6.18997 14.7154 5.66185 13.4291 5.56894 12.0764C5.47603 10.7236 5.82332 9.37719 6.55891 8.23817C7.2945 7.09916 8.3789 6.22874 9.65007 5.75698C10.9212 5.28521 12.3109 5.23744 13.6115 5.62078C14.9121 6.00413 16.0537 6.79801 16.8658 7.88382C17.6779 8.96962 18.1168 10.2891 18.117 11.6449C18.1161 13.088 17.6193 14.4868 16.7097 15.6072C16.6488 15.6821 16.6201 15.7781 16.63 15.8741C16.6398 15.9702 16.6873 16.0584 16.7622 16.1194V16.1194Z" fill="#101443"/>
<path d="M15.1258 8.35579C15.0575 8.28755 14.9649 8.24922 14.8683 8.24922C14.7717 8.24922 14.6791 8.28755 14.6108 8.35579L11.8366 11.13L9.06238 8.35579C8.9941 8.28751 8.90148 8.24915 8.80491 8.24915C8.70834 8.24915 8.61573 8.28751 8.54744 8.35579C8.47916 8.42408 8.4408 8.51669 8.4408 8.61326C8.4408 8.70983 8.47916 8.80245 8.54744 8.87073L11.3217 11.645L8.54744 14.4192C8.47916 14.4875 8.4408 14.5801 8.4408 14.6766C8.4408 14.7732 8.47916 14.8658 8.54744 14.9341C8.61573 15.0024 8.70834 15.0408 8.80491 15.0408C8.90148 15.0408 8.9941 15.0024 9.06238 14.9341L15.1258 8.87073C15.194 8.80242 15.2323 8.70982 15.2323 8.61326C15.2323 8.51671 15.194 8.4241 15.1258 8.35579ZM13.1162 12.4098C13.0824 12.376 13.0422 12.3492 12.9981 12.3309C12.9539 12.3126 12.9066 12.3032 12.8588 12.3032C12.811 12.3032 12.7637 12.3126 12.7195 12.3309C12.6753 12.3492 12.6352 12.376 12.6014 12.4098C12.5676 12.4436 12.5408 12.4837 12.5225 12.5279C12.5042 12.572 12.4948 12.6193 12.4948 12.6671C12.4948 12.7149 12.5042 12.7623 12.5225 12.8064C12.5408 12.8506 12.5676 12.8907 12.6014 12.9245L14.6108 14.9341C14.6791 15.0024 14.7717 15.0408 14.8683 15.0408C14.9649 15.0408 15.0575 15.0024 15.1258 14.9341C15.1941 14.8658 15.2324 14.7732 15.2324 14.6766C15.2324 14.5801 15.1941 14.4875 15.1258 14.4192L13.1162 12.4098Z" fill="#101443"/>
</svg>
