<svg width="63" height="62" viewBox="0 0 63 62" fill="none" xmlns="http://www.w3.org/2000/svg">
<path fill-rule="evenodd" clip-rule="evenodd" d="M43.7731 17.7631C43.701 14.444 41.1628 13.4024 38.3768 12.2596C35.9015 11.2444 33.266 10.1627 31.4801 7.67998C29.6941 10.1627 27.0586 11.2444 24.5834 12.2596C21.7973 13.4024 19.2591 14.444 19.187 17.7631H43.7731H43.7731ZM19.1964 46.9422C19.3793 49.1131 21.863 49.8186 24.5833 50.5908C27.0585 51.2934 29.6941 52.0418 31.48 53.7599C33.2659 52.0418 35.9015 51.2934 38.3767 50.5908C41.097 49.8186 43.5807 49.1131 43.7636 46.9422H19.1964Z" fill="white"/>
<path d="M17.0501 20.7135H45.91V18.7231H17.0501V20.7135ZM17.5374 45.9822H45.4225V43.992H17.5374V45.9822Z" fill="#2992CE"/>
<path d="M21.8539 20.3071C21.8539 19.77 21.4084 19.3347 20.8588 19.3347C20.3092 19.3347 19.8636 19.77 19.8636 20.3071V45.0099C19.8636 45.5469 20.3091 45.9823 20.8587 45.9823C21.4083 45.9823 21.8539 45.5469 21.8539 45.0099V20.3071ZM28.9348 20.3071C28.9348 19.77 28.4892 19.3347 27.9396 19.3347C27.39 19.3347 26.9445 19.77 26.9445 20.3071V45.0099C26.9445 45.5469 27.39 45.9823 27.9396 45.9823C28.4892 45.9823 28.9348 45.5469 28.9348 45.0099V20.3071ZM36.0158 20.3071C36.0158 19.77 35.5702 19.3347 35.0206 19.3347C34.471 19.3347 34.0254 19.77 34.0254 20.3071V45.0099C34.0254 45.5469 34.471 45.9823 35.0206 45.9823C35.5702 45.9823 36.0158 45.5469 36.0158 45.0099V20.3071ZM43.0967 20.3071C43.0967 19.77 42.6511 19.3347 42.1015 19.3347C41.5519 19.3347 41.1063 19.77 41.1063 20.3071V45.0099C41.1063 45.5469 41.5519 45.9823 42.1015 45.9823C42.6511 45.9823 43.0967 45.5469 43.0967 45.0099V20.3071Z" fill="#2992CE"/>
</svg>
