<svg width="15" height="24" viewBox="0 0 15 24" fill="none" xmlns="http://www.w3.org/2000/svg">
<g clip-path="url(#clip0_16_16124)">
<path fill-rule="evenodd" clip-rule="evenodd" d="M0.232225 0.00410153H5.29234L9.8507 8.29427C9.94836 8.47005 10.0907 8.60852 10.253 8.69661H3.4488L0.232225 0V0.00410153ZM7.00131 12.9559L8.17103 15.8112L11.2509 16.0434L8.89368 18.0434L9.6261 21.0393L7.00131 19.4123L4.37653 21.0393L5.10894 18.0434L2.74959 16.0417L5.82945 15.8092L7.00131 12.9559ZM7.00131 9.99718C10.8683 9.99718 14.0026 13.1317 14.0026 16.9985C14.0026 20.8653 10.8683 24 7.00131 24C3.13435 23.9979 0 20.8633 0 16.9963C0 13.1298 3.13435 9.99718 7.00131 9.99718ZM7.62221 0.00410153H13.5434L11.1612 6.44487L7.62221 0.00410153Z" fill="#FAB62D"/>
</g>
<defs>
<clipPath id="clip0_16_16124">
<rect width="14.0024" height="24" fill="white"/>
</clipPath>
</defs>
</svg>
