<svg width="48" height="48" viewBox="0 0 48 48" fill="none" xmlns="http://www.w3.org/2000/svg">
<path d="M39.9998 4.79999H8.00015C6.24047 4.79999 4.79999 6.24047 4.79999 8.00015V39.9998C4.79999 41.7595 6.24047 43.2 8.00015 43.2H39.9998C41.7595 43.2 43.2 41.7595 43.2 39.9998V8.00015C43.2 6.24047 41.7595 4.79999 39.9998 4.79999ZM39.9998 39.9998H8.00015V8.00015H39.9998V39.9998Z" fill="#2992CE"/>
<path d="M20.0002 12H15.2002L12 28.0003H15.2002L15.841 24.8002H19.3594L20.0002 28.0003H23.2003L20.0002 12ZM16.4798 21.6L17.6002 16.0003L18.7205 21.6H16.4798Z" fill="#2992CE"/>
<path d="M30.6321 25.584L31.1441 24.656H31.6241C31.5067 24.4426 31.4481 24.224 31.4481 24C31.4481 23.6586 31.5707 23.3653 31.8161 23.12C32.0721 22.8746 32.3761 22.752 32.7281 22.752C33.0481 22.752 33.3467 22.864 33.6241 23.088V24.016C33.3681 23.792 33.1121 23.68 32.8561 23.68C32.5041 23.68 32.3281 23.84 32.3281 24.16C32.3281 24.32 32.3974 24.4853 32.5361 24.656H34.1201L33.6081 25.584H30.6321ZM31.2401 36.8V27.552L33.2561 26.48V36.8H31.2401Z" fill="#2992CE"/>
</svg>
