<svg width="482" height="67" viewBox="0 0 482 67" fill="none" xmlns="http://www.w3.org/2000/svg">
<path d="M0 35.2183C0 30.9616 0.822956 26.932 2.46887 23.1294C4.11478 19.27 6.35663 15.893 9.19441 12.9985C12.0322 10.1039 15.3524 7.83372 19.155 6.18781C22.9576 4.48514 27.044 3.6338 31.4142 3.6338C35.7277 3.6338 39.7857 4.48514 43.5883 6.18781C47.4477 7.83372 50.8247 10.1039 53.7192 12.9985C56.6137 15.893 58.8839 19.27 60.5299 23.1294C62.2325 26.932 63.0839 30.9616 63.0839 35.2183C63.0839 39.5885 62.3177 43.6749 60.7853 47.4775C59.2529 51.2801 57.1245 54.7706 54.4003 57.9489L65.0419 57.1827V66.0366H38.0546C36.9195 66.2636 35.8128 66.4339 34.7344 66.5474C33.6561 66.6609 32.5493 66.7177 31.4142 66.7177C27.044 66.7177 22.9576 65.8947 19.155 64.2488C15.3524 62.6029 12.0322 60.361 9.19441 57.5233C6.35663 54.6287 4.11478 51.2801 2.46887 47.4775C0.822956 43.6749 0 39.5885 0 35.2183ZM9.27954 35.3034C9.27954 38.425 9.8471 41.3763 10.9822 44.1573C12.1741 46.8816 13.7632 49.2653 15.7497 51.3085C17.7929 53.3517 20.1766 54.9693 22.9009 56.1611C25.6252 57.353 28.5481 57.9489 31.6696 57.9489C34.7344 57.9489 37.6006 57.353 40.2681 56.1611C42.9924 54.9693 45.3477 53.3517 47.3342 51.3085C49.3774 49.2653 50.9665 46.8816 52.1017 44.1573C53.2935 41.3763 53.8895 38.3966 53.8895 35.2183C53.8895 32.0967 53.2935 29.1738 52.1017 26.4496C50.9098 23.6685 49.2922 21.2564 47.249 19.2132C45.2626 17.17 42.9072 15.5525 40.183 14.3606C37.4587 13.1687 34.5642 12.5728 31.4994 12.5728C28.4346 12.5728 25.54 13.1687 22.8158 14.3606C20.0915 15.5525 17.7361 17.17 15.7497 19.2132C13.7632 21.2564 12.1741 23.6685 10.9822 26.4496C9.8471 29.2306 9.27954 32.1819 9.27954 35.3034Z" fill="#101443"/>
<path d="M103.994 66.8028H97.8649L97.0135 56.9273C95.7081 59.8219 93.8636 62.2056 91.4798 64.0785C89.1529 65.9515 86.1732 66.8879 82.5408 66.8879C78.9085 66.8879 76.0139 65.9231 73.8572 63.9934C71.7573 62.007 70.6505 59.4246 70.537 56.2463V30.4508H77.7734V53.0112C77.8869 54.7706 78.5112 56.2746 79.6463 57.5233C80.8382 58.7719 82.6543 59.4813 85.0948 59.6516C86.7975 59.6516 88.3583 59.3678 89.7772 58.8003C91.1961 58.1759 92.4163 57.353 93.4379 56.3314C94.4595 55.3098 95.2541 54.0895 95.8217 52.6707C96.3892 51.2518 96.673 49.691 96.673 47.9883V30.4508H103.994V66.8028Z" fill="#101443"/>
<path d="M113.256 16.8295C113.256 15.4673 113.738 14.3322 114.703 13.4241C115.725 12.5161 116.803 12.062 117.938 12.062C119.073 12.062 120.123 12.5161 121.088 13.4241C122.053 14.3322 122.536 15.4673 122.536 16.8295C122.536 18.1916 122.053 19.3267 121.088 20.2348C120.123 21.0862 119.073 21.5118 117.938 21.5118C116.803 21.5118 115.725 21.0862 114.703 20.2348C113.738 19.3267 113.256 18.1916 113.256 16.8295ZM121.429 66.0366H114.193V30.4508H121.429V66.0366Z" fill="#101443"/>
<path d="M161.363 66.0366H127.821L148.253 36.6656H136.334C134.347 36.6656 132.701 36.1264 131.396 35.048C130.091 33.9697 129.438 32.5224 129.438 30.7062V27.0455H135.993V28.1522C135.993 29.1171 136.22 29.7414 136.674 30.0252C137.128 30.3089 137.866 30.4508 138.888 30.4508H161.618L141.782 58.8854H161.363V66.0366Z" fill="#101443"/>
<path d="M198.775 66.0366H165.233L185.665 36.6656H173.746C171.76 36.6656 170.114 36.1264 168.808 35.048C167.503 33.9697 166.85 32.5224 166.85 30.7062V27.0455H173.405V28.1522C173.405 29.1171 173.632 29.7414 174.087 30.0252C174.541 30.3089 175.278 30.4508 176.3 30.4508H199.031L179.195 58.8854H198.775V66.0366Z" fill="#101443"/>
<path d="M231.883 66.8297C228.591 66.8297 225.526 66.2906 222.689 65.2122C219.851 64.1338 217.354 62.6298 215.197 60.7001C213.097 58.7137 211.423 56.3583 210.174 53.6341C208.982 50.853 208.386 47.7598 208.386 44.3545V4.42694H217.751V44.0991C217.751 46.0856 218.091 47.9301 218.773 49.6328C219.51 51.2787 220.504 52.7543 221.752 54.0597C223.058 55.3083 224.562 56.3016 226.264 57.0394C227.967 57.7205 229.84 58.061 231.883 58.061C233.869 58.061 235.714 57.7205 237.417 57.0394C239.176 56.3016 240.68 55.3083 241.929 54.0597C243.234 52.7543 244.256 51.2787 244.994 49.6328C245.731 47.9301 246.1 46.0856 246.1 44.0991V4.42694H255.465V44.3545C255.465 47.7598 254.841 50.853 253.592 53.6341C252.4 56.3583 250.726 58.7137 248.569 60.7001C246.469 62.6298 243.972 64.1338 241.077 65.2122C238.24 66.2906 235.175 66.8297 231.883 66.8297Z" fill="#26C4FE"/>
<path d="M265.876 30.5629H272.261C272.374 32.3223 272.46 33.9399 272.516 35.4155C272.63 36.8344 272.743 38.2533 272.857 39.6722C274.162 36.6074 275.865 34.1953 277.965 32.4358C280.122 30.6197 282.988 29.6832 286.563 29.6264C290.025 29.6264 292.806 30.5061 294.906 32.2656C297.006 34.025 298.227 36.3236 298.567 39.1614C299.986 36.2668 301.717 33.9682 303.76 32.2656C305.86 30.5629 308.67 29.6832 312.188 29.6264C315.878 29.6264 318.772 30.6197 320.872 32.6061C323.029 34.5925 324.164 37.1465 324.277 40.2681V66.1487H316.956V43.5883C316.842 41.7721 316.218 40.2397 315.083 38.9911C314.005 37.6857 312.217 36.9763 309.72 36.8628C306.314 36.8628 303.647 37.9695 301.717 40.183C299.787 42.3397 298.766 45.1207 298.652 48.526V66.1487H291.416V43.5883C291.302 41.7721 290.65 40.2397 289.458 38.9911C288.323 37.6857 286.563 36.9763 284.18 36.8628C282.477 36.8628 280.945 37.1749 279.582 37.7992C278.22 38.3668 277.057 39.1614 276.092 40.183C275.127 41.2046 274.389 42.4248 273.878 43.8437C273.368 45.2626 273.112 46.8234 273.112 48.526V66.1487H265.876V30.5629Z" fill="#26C4FE"/>
<path d="M334.132 30.5629H340.517C340.631 32.3223 340.716 33.9399 340.773 35.4155C340.886 36.8344 341 38.2533 341.113 39.6722C342.419 36.6074 344.121 34.1953 346.221 32.4358C348.378 30.6197 351.244 29.6832 354.82 29.6264C358.282 29.6264 361.063 30.5061 363.163 32.2656C365.263 34.025 366.483 36.3236 366.823 39.1614C368.242 36.2668 369.973 33.9682 372.017 32.2656C374.117 30.5629 376.926 29.6832 380.445 29.6264C384.134 29.6264 387.028 30.6197 389.128 32.6061C391.285 34.5925 392.42 37.1465 392.534 40.2681V66.1487H385.212V43.5883C385.099 41.7721 384.474 40.2397 383.339 38.9911C382.261 37.6857 380.473 36.9763 377.976 36.8628C374.571 36.8628 371.903 37.9695 369.973 40.183C368.044 42.3397 367.022 45.1207 366.909 48.526V66.1487H359.672V43.5883C359.559 41.7721 358.906 40.2397 357.714 38.9911C356.579 37.6857 354.82 36.9763 352.436 36.8628C350.733 36.8628 349.201 37.1749 347.839 37.7992C346.477 38.3668 345.313 39.1614 344.348 40.183C343.383 41.2046 342.646 42.4248 342.135 43.8437C341.624 45.2626 341.369 46.8234 341.369 48.526V66.1487H334.132V30.5629Z" fill="#26C4FE"/>
<path d="M399.92 48.6963C399.92 46.0856 400.402 43.6451 401.367 41.3748C402.389 39.0479 403.751 37.033 405.453 35.3304C407.156 33.5709 409.114 32.1804 411.328 31.1588C413.598 30.1372 416.01 29.6264 418.564 29.6264C420.267 29.6264 421.827 29.8535 423.246 30.3075C424.665 30.7048 425.885 31.2156 426.907 31.8399C427.929 32.4642 428.752 33.1169 429.376 33.798C430 34.479 430.426 35.075 430.653 35.5858L430.993 30.5629H437.974V66.1487H430.653V61.6366C430.369 62.0906 429.915 62.6298 429.291 63.2541C428.666 63.8784 427.844 64.4744 426.822 65.0419C425.857 65.5527 424.694 66.0068 423.331 66.4041C421.969 66.8014 420.409 67 418.649 67C415.925 67 413.399 66.5176 411.072 65.5527C408.802 64.5311 406.844 63.1974 405.198 61.5515C403.552 59.8488 402.247 57.8907 401.282 55.6773C400.374 53.4638 399.92 51.1368 399.92 48.6963ZM407.241 48.2706C407.241 49.9166 407.525 51.449 408.093 52.8679C408.717 54.2867 409.54 55.507 410.561 56.5286C411.583 57.5502 412.803 58.3731 414.222 58.9975C415.641 59.565 417.202 59.8488 418.905 59.8488C420.607 59.8488 422.168 59.565 423.587 58.9975C425.063 58.3731 426.311 57.5502 427.333 56.5286C428.411 55.4502 429.234 54.23 429.802 52.8679C430.369 51.449 430.653 49.9166 430.653 48.2706C430.653 46.6247 430.369 45.1207 429.802 43.7586C429.234 42.3397 428.411 41.1194 427.333 40.0978C426.311 39.0762 425.063 38.2817 423.587 37.7141C422.168 37.0898 420.607 36.7776 418.905 36.7776C417.202 36.7776 415.641 37.0898 414.222 37.7141C412.803 38.2817 411.583 39.0762 410.561 40.0978C409.54 41.1194 408.717 42.3397 408.093 43.7586C407.525 45.1207 407.241 46.6247 407.241 48.2706Z" fill="#26C4FE"/>
<path d="M448.198 0H455.434V39.1614C456.683 36.3236 458.442 34.0534 460.712 32.3507C462.983 30.5913 465.905 29.6832 469.481 29.6264C473.113 29.5697 476.008 30.5345 478.165 32.521C480.378 34.5074 481.542 37.0898 481.655 40.2681V66.1487H474.334V43.5883C474.22 41.7721 473.596 40.2397 472.461 38.9911C471.326 37.6857 469.538 36.9763 467.097 36.8628C465.395 36.8628 463.834 37.1749 462.415 37.7992C460.996 38.3668 459.776 39.1614 458.754 40.183C457.733 41.2046 456.91 42.4248 456.285 43.8437C455.718 45.2626 455.434 46.8234 455.434 48.526V66.1487H448.198V0Z" fill="#26C4FE"/>
</svg>
