<svg width="383" height="417" viewBox="0 0 383 417" fill="none" xmlns="http://www.w3.org/2000/svg">
<path d="M298.4 179.949H55.5428V401.164H298.4V179.949Z" fill="#779DE0"/>
<path d="M246.665 179.949H55.5428V401.162H246.665V179.949Z" fill="#AEBAFF"/>
<path d="M298.4 330.617H246.665V401.162H298.4V330.617Z" fill="#6E6ECE"/>
<path d="M298.4 318.651H246.665V324.224H298.4V318.651Z" fill="#6E6ECE"/>
<path d="M246.665 330.617H55.5428V401.162H246.665V330.617Z" fill="#779DE0"/>
<path d="M246.665 318.651H55.5428V324.224H246.665V318.651Z" fill="#779DE0"/>
<path d="M178.335 21.6991H176.88C176.021 21.6991 175.324 22.3964 175.324 23.2566V45.8474C175.324 46.7076 176.021 47.4049 176.88 47.4049H178.335C179.195 47.4049 179.892 46.7076 179.892 45.8474V23.2566C179.892 22.3964 179.195 21.6991 178.335 21.6991Z" fill="#2992CE"/>
<path d="M305.875 170.366H101.413C100.267 170.366 99.3379 171.296 99.3379 172.443V177.873C99.3379 179.02 100.267 179.949 101.413 179.949H305.875C307.021 179.949 307.95 179.02 307.95 177.873V172.443C307.95 171.296 307.021 170.366 305.875 170.366Z" fill="#AEBAFF"/>
<path d="M253.744 170.366H49.2813C48.1353 170.366 47.2063 171.296 47.2063 172.443V177.873C47.2063 179.02 48.1353 179.949 49.2813 179.949H253.744C254.89 179.949 255.819 179.02 255.819 177.873V172.443C255.819 171.296 254.89 170.366 253.744 170.366Z" fill="#EAEAF4"/>
<path d="M298.4 193.764H246.665V212.586H298.4V193.764Z" fill="#AEBAFF"/>
<path d="M246.665 193.764H55.5428V212.586H246.665V193.764Z" fill="#EAEAF4"/>
<path d="M65.4138 198.4L61.1918 202.625C60.8879 202.929 60.8879 203.422 61.1918 203.726L65.4138 207.951C65.7177 208.256 66.2103 208.256 66.5142 207.951L70.7362 203.726C71.0401 203.422 71.0401 202.929 70.7362 202.625L66.5142 198.4C66.2103 198.095 65.7177 198.095 65.4138 198.4Z" fill="#779DE0"/>
<path d="M80.8249 198.398L76.6029 202.624C76.2991 202.928 76.2991 203.421 76.6029 203.725L80.8249 207.95C81.1288 208.254 81.6215 208.254 81.9254 207.95L86.1474 203.725C86.4512 203.421 86.4512 202.928 86.1474 202.624L81.9254 198.398C81.6215 198.094 81.1288 198.094 80.8249 198.398Z" fill="#779DE0"/>
<path d="M96.2384 198.4L92.0164 202.625C91.7125 202.929 91.7125 203.422 92.0164 203.726L96.2384 207.951C96.5423 208.256 97.0349 208.256 97.3388 207.951L101.561 203.726C101.865 203.422 101.865 202.929 101.561 202.625L97.3388 198.4C97.0349 198.095 96.5423 198.095 96.2384 198.4Z" fill="#779DE0"/>
<path d="M111.65 198.397L107.428 202.623C107.124 202.927 107.124 203.42 107.428 203.724L111.65 207.949C111.953 208.253 112.446 208.253 112.75 207.949L116.972 203.724C117.276 203.42 117.276 202.927 116.972 202.623L112.75 198.397C112.446 198.093 111.953 198.093 111.65 198.397Z" fill="#779DE0"/>
<path d="M127.061 198.398L122.839 202.624C122.535 202.928 122.535 203.421 122.839 203.725L127.061 207.95C127.365 208.254 127.857 208.254 128.161 207.95L132.383 203.725C132.687 203.421 132.687 202.928 132.383 202.624L128.161 198.398C127.857 198.094 127.365 198.094 127.061 198.398Z" fill="#779DE0"/>
<path d="M142.474 198.397L138.252 202.622C137.948 202.926 137.948 203.419 138.252 203.723L142.474 207.949C142.778 208.253 143.271 208.253 143.575 207.949L147.797 203.723C148.1 203.419 148.1 202.926 147.797 202.622L143.575 198.397C143.271 198.093 142.778 198.093 142.474 198.397Z" fill="#779DE0"/>
<path d="M157.885 198.398L153.663 202.623C153.359 202.927 153.359 203.42 153.663 203.724L157.885 207.95C158.189 208.254 158.682 208.254 158.986 207.95L163.208 203.724C163.512 203.42 163.512 202.927 163.208 202.623L158.986 198.398C158.682 198.094 158.189 198.094 157.885 198.398Z" fill="#779DE0"/>
<path d="M173.296 198.396L169.074 202.621C168.771 202.925 168.771 203.419 169.074 203.723L173.296 207.948C173.6 208.252 174.093 208.252 174.397 207.948L178.619 203.723C178.923 203.419 178.923 202.926 178.619 202.621L174.397 198.396C174.093 198.092 173.6 198.092 173.296 198.396Z" fill="#779DE0"/>
<path d="M188.708 198.399L184.486 202.624C184.182 202.928 184.182 203.421 184.486 203.726L188.708 207.951C189.012 208.255 189.505 208.255 189.809 207.951L194.031 203.726C194.335 203.421 194.335 202.928 194.031 202.624L189.809 198.399C189.505 198.095 189.012 198.095 188.708 198.399Z" fill="#779DE0"/>
<path d="M204.119 198.4L199.897 202.625C199.594 202.93 199.594 203.423 199.897 203.727L204.119 207.952C204.423 208.256 204.916 208.256 205.22 207.952L209.442 203.727C209.746 203.423 209.746 202.93 209.442 202.625L205.22 198.4C204.916 198.096 204.423 198.096 204.119 198.4Z" fill="#779DE0"/>
<path d="M219.53 198.398L215.309 202.624C215.005 202.928 215.005 203.421 215.309 203.725L219.531 207.95C219.834 208.254 220.327 208.254 220.631 207.95L224.853 203.725C225.157 203.421 225.157 202.928 224.853 202.624L220.631 198.398C220.327 198.094 219.834 198.094 219.53 198.398Z" fill="#779DE0"/>
<path d="M234.944 198.4L230.722 202.625C230.418 202.929 230.418 203.422 230.722 203.726L234.944 207.951C235.248 208.256 235.741 208.256 236.044 207.951L240.266 203.726C240.57 203.422 240.57 202.929 240.266 202.625L236.044 198.4C235.741 198.095 235.248 198.095 234.944 198.4Z" fill="#779DE0"/>
<path d="M254.98 199.641L251.382 203.242C251.078 203.546 251.078 204.039 251.382 204.343L254.98 207.944C255.284 208.248 255.777 208.248 256.08 207.944L259.679 204.343C259.983 204.039 259.983 203.546 259.679 203.242L256.08 199.641C255.777 199.336 255.284 199.336 254.98 199.641Z" fill="#6E6ECE"/>
<path d="M266.949 199.639L263.351 203.24C263.047 203.544 263.047 204.037 263.351 204.341L266.949 207.942C267.253 208.247 267.746 208.247 268.049 207.942L271.648 204.341C271.952 204.037 271.952 203.544 271.648 203.24L268.049 199.639C267.746 199.335 267.253 199.335 266.949 199.639Z" fill="#6E6ECE"/>
<path d="M278.918 199.638L275.319 203.239C275.015 203.544 275.015 204.037 275.319 204.341L278.918 207.942C279.221 208.246 279.714 208.246 280.018 207.942L283.616 204.341C283.92 204.037 283.92 203.544 283.616 203.239L280.018 199.638C279.714 199.334 279.221 199.334 278.918 199.638Z" fill="#6E6ECE"/>
<path d="M290.886 199.639L287.288 203.241C286.984 203.545 286.984 204.038 287.288 204.342L290.886 207.943C291.19 208.247 291.683 208.247 291.987 207.943L295.585 204.342C295.889 204.038 295.889 203.545 295.585 203.241L291.987 199.639C291.683 199.335 291.19 199.335 290.886 199.639Z" fill="#6E6ECE"/>
<path d="M110.234 401.044V285.602C110.234 266.1 126.525 250.231 146.545 250.231C166.566 250.231 182.859 266.1 182.859 285.602V401.044H110.234Z" fill="white"/>
<path d="M178.642 286.708V401.165H114.49V286.708C114.567 278.244 117.979 270.153 123.986 264.195C129.994 258.237 138.109 254.895 146.566 254.895C155.023 254.895 163.138 258.237 169.146 264.195C175.153 270.153 178.566 278.244 178.642 286.708V286.708Z" fill="url(#paint0_linear_16_15885)"/>
<path d="M289.12 401.282V314.475C289.12 299.806 281.678 287.876 272.533 287.876C263.387 287.876 255.933 299.816 255.933 314.475V401.282H289.12Z" fill="#ABCDFF"/>
<path d="M287.167 398.149V316.123C287.167 302.267 280.602 290.993 272.533 290.993C264.464 290.993 257.899 302.267 257.899 316.123V398.149H287.167Z" fill="url(#paint1_linear_16_15885)"/>
<path d="M271.083 291.121C271.562 291.045 272.047 291.007 272.533 291.007V291.007C280.615 291.007 287.167 301.514 287.167 314.475V398.149H284.264V314.475C284.264 302.303 278.483 292.291 271.083 291.121Z" fill="#779DE0"/>
<path d="M201.804 280.018V257.599C201.853 253.97 203.329 250.507 205.91 247.958C208.492 245.41 211.972 243.981 215.599 243.981C219.225 243.981 222.705 245.41 225.287 247.958C227.868 250.507 229.344 253.97 229.393 257.599V280.018H201.804Z" fill="#779DE0"/>
<path d="M199.713 280.018V257.599C199.713 253.938 201.166 250.427 203.753 247.838C206.34 245.249 209.848 243.795 213.507 243.795C217.165 243.795 220.673 245.249 223.26 247.838C225.847 250.427 227.3 253.938 227.3 257.599V280.018H199.713Z" fill="white"/>
<path d="M212.513 246.65H214.508C217.145 246.65 219.673 247.698 221.538 249.564C223.402 251.43 224.45 253.961 224.45 256.6V277.163H202.569V256.6C202.569 255.293 202.826 253.999 203.326 252.792C203.826 251.584 204.558 250.487 205.482 249.563C206.405 248.639 207.501 247.907 208.708 247.407C209.914 246.907 211.207 246.65 212.513 246.65V246.65Z" fill="url(#paint2_linear_16_15885)"/>
<path d="M214.552 246.702C214.209 246.668 213.859 246.65 213.514 246.65C212.078 246.65 210.655 246.933 209.327 247.483C208 248.033 206.794 248.839 205.778 249.856C204.762 250.873 203.956 252.08 203.406 253.409C202.856 254.737 202.574 256.161 202.574 257.599V277.163H204.667V257.599C204.667 254.878 205.68 252.255 207.507 250.24C209.334 248.226 211.846 246.965 214.552 246.702V246.702Z" fill="#779DE0"/>
<path d="M253.715 257.939V278.593H252.491V257.939C252.491 250.93 256.109 245.22 260.557 245.22C260.762 245.22 260.966 245.232 261.169 245.256C257.006 245.752 253.715 251.252 253.715 257.939Z" fill="#6E6ECE"/>
<path d="M268.178 257.938V275.961H255.383V257.938C255.383 255.156 256.099 252.633 257.258 250.805C258.28 249.193 259.647 248.127 261.17 247.898C261.318 247.876 261.466 247.861 261.616 247.854H261.779C263.548 247.854 265.151 248.983 266.305 250.808C267.46 252.633 268.178 255.156 268.178 257.938Z" fill="#779DE0"/>
<path d="M261.779 245.222C261.575 245.222 261.372 245.234 261.169 245.258C257.019 245.751 253.715 251.252 253.715 257.939V278.593H269.848V257.939C269.848 250.927 266.227 245.222 261.779 245.222ZM268.178 275.961H255.383V257.939C255.383 255.156 256.099 252.633 257.258 250.805C258.28 249.193 259.647 248.127 261.169 247.898C261.317 247.876 261.466 247.861 261.615 247.854H261.779C263.548 247.854 265.151 248.983 266.305 250.808C267.459 252.633 268.178 255.158 268.178 257.941V275.961Z" fill="#ABCDFF"/>
<path d="M268.178 257.938V275.961H255.383V257.938C255.383 255.156 256.099 252.633 257.258 250.805C258.28 249.193 259.647 248.127 261.17 247.898C261.318 247.876 261.466 247.861 261.616 247.854H261.779C263.548 247.854 265.151 248.983 266.305 250.808C267.46 252.633 268.178 255.156 268.178 257.938Z" fill="white"/>
<path d="M268.178 257.938V275.961H255.383V257.938C255.383 255.156 256.099 252.633 257.258 250.805C258.28 249.193 259.647 248.127 261.17 247.898C261.318 247.876 261.466 247.861 261.616 247.854H261.779C263.548 247.854 265.151 248.983 266.305 250.808C267.46 252.633 268.178 255.156 268.178 257.938Z" fill="url(#paint3_linear_16_15885)"/>
<path d="M268.178 257.938V275.961H266.953V257.938C266.953 252.692 264.414 248.386 261.169 247.898C261.317 247.877 261.465 247.862 261.616 247.854H261.779C263.548 247.854 265.151 248.983 266.305 250.808C267.459 252.633 268.178 255.156 268.178 257.938Z" fill="#779DE0"/>
<path d="M277.139 257.939V278.593H275.915V257.939C275.915 250.93 279.546 245.22 283.982 245.22C284.186 245.22 284.391 245.232 284.594 245.256C280.428 245.752 277.139 251.252 277.139 257.939Z" fill="#6E6ECE"/>
<path d="M291.602 257.938V275.961H278.807V257.938C278.807 255.156 279.523 252.633 280.682 250.805C281.702 249.193 283.069 248.127 284.594 247.898C284.741 247.876 284.889 247.861 285.037 247.854H285.203C286.972 247.854 288.575 248.983 289.727 250.808C290.878 252.633 291.602 255.156 291.602 257.938Z" fill="#779DE0"/>
<path d="M285.203 245.222C285 245.222 284.796 245.234 284.594 245.258C280.428 245.751 277.139 251.252 277.139 257.939V278.593H293.27V257.939C293.27 250.927 289.651 245.222 285.203 245.222ZM291.602 275.961H278.807V257.939C278.807 255.156 279.523 252.633 280.682 250.805C281.702 249.193 283.069 248.127 284.594 247.898C284.741 247.876 284.889 247.861 285.037 247.854H285.203C286.972 247.854 288.575 248.983 289.727 250.808C290.878 252.633 291.602 255.158 291.602 257.941V275.961Z" fill="#ABCDFF"/>
<path d="M291.602 257.938V275.961H278.807V257.938C278.807 255.156 279.523 252.633 280.682 250.805C281.702 249.193 283.069 248.127 284.594 247.898C284.741 247.876 284.889 247.861 285.037 247.854H285.203C286.972 247.854 288.575 248.983 289.727 250.808C290.878 252.633 291.602 255.156 291.602 257.938Z" fill="white"/>
<path d="M291.602 257.938V275.961H278.807V257.938C278.807 255.156 279.523 252.633 280.682 250.805C281.702 249.193 283.069 248.127 284.594 247.898C284.741 247.876 284.889 247.861 285.037 247.854H285.203C286.972 247.854 288.575 248.983 289.727 250.808C290.878 252.633 291.602 255.156 291.602 257.938Z" fill="url(#paint4_linear_16_15885)"/>
<path d="M291.602 257.938V275.961H290.378V257.938C290.378 252.692 287.839 248.386 284.594 247.898C284.739 247.877 284.889 247.862 285.037 247.854H285.203C286.972 247.854 288.575 248.983 289.727 250.808C290.878 252.633 291.602 255.156 291.602 257.938Z" fill="#779DE0"/>
<path d="M72.4512 280.018V257.599C72.5009 253.97 73.9762 250.507 76.5578 247.958C79.1394 245.41 82.6198 243.981 86.246 243.981C89.8722 243.981 93.3526 245.41 95.9342 247.958C98.5158 250.507 99.9911 253.97 100.041 257.599V280.018H72.4512Z" fill="#779DE0"/>
<path d="M70.3606 280.018V257.599C70.4103 253.97 71.8856 250.507 74.4672 247.958C77.0488 245.41 80.5292 243.981 84.1554 243.981C87.7816 243.981 91.262 245.41 93.8437 247.958C96.4253 250.507 97.9006 253.97 97.9503 257.599V280.018H70.3606Z" fill="white"/>
<path d="M83.1581 246.65H85.1604C87.7972 246.65 90.3259 247.698 92.1904 249.564C94.0548 251.43 95.1023 253.961 95.1023 256.6V277.163H73.2214V256.6C73.2214 253.962 74.2682 251.432 76.1315 249.566C77.9948 247.7 80.5222 246.651 83.1581 246.65V246.65Z" fill="url(#paint5_linear_16_15885)"/>
<path d="M85.202 246.702C84.8571 246.668 84.5095 246.65 84.1645 246.65C81.263 246.65 78.4802 247.804 76.4285 249.857C74.3768 251.91 73.2241 254.695 73.2241 257.599V277.163H75.3043V257.599C75.3048 254.876 76.3191 252.251 78.1491 250.236C79.9792 248.222 82.4937 246.961 85.202 246.702V246.702Z" fill="#779DE0"/>
<path d="M277.383 170.366H177.638L177.578 170.322V170.366H77.8307C75.4712 168.45 73.3421 166.266 71.4864 163.859C66.4389 157.304 61.848 146.986 64.6129 132.37C69.9353 104.247 91.2273 83.4811 119.229 69.6276C147.231 55.774 159.692 59.2445 168.051 48.4229C170.051 45.8271 172.118 43.2703 174.108 40.6512C174.261 40.4539 174.409 40.2566 174.557 40.0593C175.226 39.3343 176.134 38.8738 177.114 38.7615C177.28 38.7415 177.447 38.7319 177.615 38.7329C178.166 38.7287 178.713 38.8346 179.224 39.0446C179.734 39.2545 180.198 39.5642 180.587 39.9555L181.163 40.7057C183.142 43.2885 185.188 45.8582 187.16 48.4125C194.264 57.6092 204.341 56.4879 224.406 64.4516C227.941 65.8559 231.79 67.5406 235.987 69.6172C263.984 83.4629 285.268 104.234 290.601 132.359C294.582 153.398 283.323 165.564 277.383 170.366Z" fill="url(#paint6_linear_16_15885)"/>
<path d="M189.169 22.2341C186.731 22.1689 184.352 21.4651 182.27 20.1929C180.188 18.9208 178.476 17.1247 177.304 14.9837C176.132 12.8427 175.541 10.4317 175.591 7.99102C175.64 5.55033 176.328 3.16523 177.586 1.07354C177.666 0.939684 177.7 0.783022 177.682 0.627893C177.664 0.472763 177.596 0.327854 177.487 0.215681C177.379 0.103507 177.236 0.0303509 177.082 0.00757804C176.928 -0.0151949 176.77 0.0136911 176.634 0.0897479C174.981 1.03726 173.54 2.31328 172.399 3.83925C171.258 5.36522 170.441 7.10882 169.998 8.96269C169.556 10.8166 169.497 12.7415 169.826 14.6188C170.155 16.4962 170.864 18.2864 171.911 19.879C172.957 21.4716 174.318 22.8331 175.91 23.8795C177.502 24.9259 179.291 25.6351 181.167 25.9635C183.043 26.2918 184.966 26.2324 186.819 25.7888C188.671 25.3451 190.413 24.5268 191.937 23.384C192.064 23.2904 192.156 23.1572 192.198 23.0054C192.241 22.8537 192.232 22.6921 192.172 22.5461C192.113 22.4002 192.006 22.2783 191.87 22.1997C191.733 22.1211 191.574 22.0903 191.418 22.1121C190.673 22.214 189.921 22.2548 189.169 22.2341V22.2341Z" fill="url(#paint7_linear_16_15885)"/>
<path opacity="0.27" d="M277.383 170.366H177.638L177.578 170.322V170.366H77.8307C228.076 170.366 236.391 137.66 224.447 104.553C212.503 71.4472 181.593 67.4004 173.849 63.8157C166.104 60.2309 182.164 59.974 184.742 55.4028C186.475 52.3217 180.924 43.9218 177.122 38.7719C177.288 38.7518 177.455 38.7423 177.622 38.7433C178.174 38.7391 178.721 38.845 179.232 39.055C179.742 39.2649 180.205 39.5746 180.595 39.9659L181.171 40.7161C183.15 43.2988 185.196 45.8686 187.167 48.4229C195.524 59.242 207.995 55.7792 235.995 69.6276C263.994 83.4759 285.276 104.245 290.608 132.37C294.582 153.398 283.323 165.564 277.383 170.366Z" fill="url(#paint8_linear_16_15885)"/>
<path d="M144.557 67.7794C144.557 67.7794 125.459 66.0662 103.389 86.6297C81.3192 107.193 77.3222 119.762 77.1329 128.33C76.9435 136.899 94.4461 128.141 103.008 107.956C111.57 87.7719 131.539 76.3479 142.965 74.2532C154.39 72.1584 149.034 67.621 144.557 67.7794Z" fill="white"/>
<path d="M77.3791 139.614C78.5826 138.9 80.266 138.651 82.4914 139.126C84.9632 139.645 86.7555 141.418 87.0356 143.946C87.7982 150.799 84.1825 155.368 80.5695 153.657C75.024 151.035 72.9931 142.22 77.3791 139.614Z" fill="white"/>
<path d="M178.642 309.571V401.165H114.49V311.733C124.655 312.803 139.818 317.075 138.094 333.179C135.528 357.182 160.478 368.816 171.701 353.146C179.334 342.482 166.97 316.839 178.642 309.571Z" fill="url(#paint9_linear_16_15885)"/>
<path d="M149.745 254.767C148.707 254.663 147.647 254.61 146.565 254.608C138.058 254.609 129.901 257.991 123.886 264.011C117.871 270.03 114.491 278.194 114.49 286.707V401.165H120.85V286.707C120.851 278.745 123.808 271.068 129.148 265.165C134.487 259.263 141.828 255.557 149.745 254.767V254.767Z" fill="#779DE0"/>
<path d="M178.642 372.718V401.165H118.879C122.23 392.059 130.167 380.557 148.43 386.47C162.63 391.078 172.401 382.512 178.642 372.718Z" fill="url(#paint10_linear_16_15885)"/>
<path opacity="0.33" d="M298.4 179.848H55.2311V185.185H298.4V179.848Z" fill="url(#paint11_linear_16_15885)"/>
<path d="M64.9475 220.454C64.9475 220.454 235.271 216.205 231.419 223.076C227.568 229.947 154.154 240.664 121.732 239.803C89.3106 238.941 54.295 221.674 64.9475 220.454Z" fill="#B0D0FF"/>
<path d="M66.0188 286.248C66.0188 286.248 98.2487 290.809 100.407 298.077C102.565 305.345 81.9625 314.71 73.2138 312.169C64.4651 309.628 59.8197 285.218 66.0188 286.248Z" fill="#B0D0FF"/>
<path opacity="0.27" d="M277.383 170.366H177.638L177.578 170.322V170.366H77.8307C75.4713 168.45 73.3422 166.266 71.4865 163.858C99.9787 163.97 198.463 164.313 213.507 163.827C231.126 163.259 277.653 145.12 261.17 103.746C253.842 85.3654 238.832 72.7734 224.408 64.4618C227.944 65.8661 231.793 67.5507 235.989 69.6273C263.986 83.4731 285.271 104.244 290.603 132.369C294.582 153.397 283.323 165.564 277.383 170.366Z" fill="url(#paint12_linear_16_15885)"/>
<rect x="60.6937" y="219.081" width="180.006" height="99.6769" fill="#AEBAFF"/>
<rect x="60.6937" y="318.759" width="180.006" height="5.19151" fill="#779DE0"/>
<rect x="61.2123" y="323.95" width="180.006" height="6.74896" fill="#AEBAFF"/>
<rect x="61.2123" y="330.699" width="180.006" height="70.3449" fill="#779DE0"/>
<path d="M69.0418 340.017C62.827 344.296 62.1774 353.227 62.1774 353.227C70.793 346.525 79.546 352.389 83.7718 347.118C86.022 344.31 77.5302 334.173 69.0418 340.017Z" fill="#F1F4FF"/>
<path d="M65.2281 362.771C62.2814 364.081 60.3527 366.621 59.1673 368.783C59.472 367.777 59.8001 366.796 60.1551 365.794C63.8786 355.362 62.0269 346.552 57.9183 337.209C66.5976 331.552 75.2032 336.921 79.4592 331.612C81.8333 328.65 72.876 317.96 63.9255 324.123C59.5557 327.139 57.8011 332.313 57.1113 335.439C55.6212 332.232 53.8934 328.942 52.0584 325.493C58.4206 319.043 66.7918 322.032 69.4371 316.7C70.9172 313.728 61.2701 306.251 54.764 313.188C51.7872 316.362 51.1242 320.748 51.0438 323.577C49.7245 321.103 48.365 318.513 46.9988 315.819C48.3851 307.28 56.09 303.597 54.4124 297.723C53.4079 294.204 40.0139 295.293 39.8766 305.766C39.8063 310.792 42.7898 314.998 44.8592 317.307C46.1986 319.934 47.538 322.467 48.8171 324.883C47.1496 323.202 45.0719 321.985 42.7898 321.355C33.5747 319.009 29.4795 330.527 32.3257 332.232C37.4255 335.285 42.8467 328.278 51.67 330.249C53.5455 333.738 55.2333 337.326 56.7262 340.996C54.5932 338.677 50.3172 334.91 44.8525 334.565C34.01 333.878 31.8134 347.657 35.3729 348.974C41.879 351.391 46.5669 341.937 57.3725 342.738C59.1505 347.765 59.9944 352.641 59.3816 357.818C58.1996 355.368 55.1123 350.11 49.7044 348.314C39.9335 345.047 34.5726 357.141 37.5126 359.215C42.8969 363.019 49.5035 355.469 59.2342 358.88C58.9245 360.935 58.4165 362.955 57.7174 364.912C56.5106 368.324 55.5384 371.813 54.8075 375.358C53.6624 373.062 51.459 369.714 47.7757 368.253C39.8063 365.066 34.7668 374.865 37.1141 376.735C41.2696 380.042 46.8883 374.553 54.4325 377.184C53.5437 381.996 53.0632 386.875 52.996 391.768C52.0149 390.37 50.6521 388.94 48.7233 388.175C42.5721 385.716 38.6778 393.279 40.4927 394.72C43.5432 397.15 47.6116 393.45 53.0094 394.817C53.0764 397.545 53.2706 399.221 53.294 399.428C53.3321 399.747 53.4867 400.039 53.728 400.25C53.9692 400.46 54.2799 400.573 54.5999 400.568C54.6445 400.571 54.6893 400.571 54.7339 400.568C54.9027 400.548 55.066 400.495 55.2143 400.411C55.3625 400.328 55.4928 400.216 55.5977 400.082C55.7026 399.948 55.78 399.795 55.8254 399.631C55.8708 399.467 55.8834 399.296 55.8623 399.127C55.5936 396.219 55.5187 393.295 55.638 390.377C61.5916 387.726 66.2393 392.053 69.4304 389.318C71.1817 387.807 67.0061 380.398 60.9554 383.092C58.0924 384.365 56.4818 387.113 55.6915 388.929C55.9565 383.31 56.7856 377.731 58.1661 372.278C65.958 368.689 72.0356 374.413 76.1977 370.83C78.4814 368.883 73.0702 359.279 65.2281 362.771Z" fill="#F1F4FF"/>
<path d="M37.181 352.396C34.9274 358.207 38.6309 364.604 38.6309 364.604C41.3967 356.025 50.0894 355.951 50.5247 350.392C50.7725 347.436 40.2683 344.46 37.181 352.396Z" fill="#291D88"/>
<path d="M45.1571 369.694C43.7575 371.963 43.6202 374.59 43.8177 376.617C43.5666 375.8 43.3255 374.965 43.1045 374.117C40.7974 365.267 35.4431 360.117 28.3008 355.653C31.5957 347.758 39.9636 347.419 40.4023 341.816C40.6467 338.693 29.5699 335.563 26.3386 343.931C24.7547 348.019 25.9635 352.369 26.9447 354.822C24.4366 353.327 21.731 351.886 18.8781 350.388C20.2175 343.016 27.3163 341.176 26.65 336.314C26.2783 333.596 16.2261 332.983 15.0073 340.741C14.4514 344.293 16.0353 347.594 17.3043 349.567C15.2551 348.495 13.1221 347.362 10.9422 346.159C7.92855 339.688 11.4713 333.593 7.5937 330.366C5.27654 328.432 -3.35254 335.392 1.41237 342.621C3.69939 346.082 7.68745 347.563 10.172 348.177C12.305 349.35 14.3878 350.455 16.3902 351.504C14.4696 351.132 12.4852 351.27 10.6341 351.903C3.26744 354.604 5.8123 364.352 8.54802 364.192C13.4435 363.903 13.9056 356.601 20.8236 353.843C23.7235 355.351 26.5403 357.013 29.2618 358.823C26.7337 358.233 22.0659 357.65 18.1749 359.956C10.4734 364.533 15.3622 374.955 18.4026 374.201C23.9611 372.821 22.7724 364.192 30.5175 359.711C34.0602 362.312 36.8997 365.247 38.8887 369.067C36.9433 367.948 32.4027 365.807 27.8722 367.087C19.6885 369.402 21.6473 380.156 24.6141 380.196C30.0554 380.283 31.0566 372.063 39.2772 369.858C40.0162 371.4 40.6049 373.009 41.0351 374.664C41.7935 377.554 42.7512 380.388 43.9014 383.145C42.0497 382.113 38.9859 380.86 35.8115 381.564C28.8935 383.095 30.0085 392.126 32.463 392.307C36.8361 392.642 38.1186 386.275 44.4874 384.559C46.1169 388.256 48.0547 391.808 50.2803 395.179C48.8305 394.579 47.2369 394.417 45.6962 394.713C40.3587 395.896 41.2159 402.866 43.1212 403.007C46.3291 403.245 47.3906 398.828 51.7068 397.253C53.0194 399.08 53.9302 400.135 54.0507 400.269C54.2244 400.469 54.466 400.596 54.7283 400.627C54.9907 400.658 55.2552 400.59 55.4705 400.437C55.4998 400.416 55.5278 400.394 55.5542 400.37C55.7673 400.183 55.8975 399.919 55.9164 399.637C55.9352 399.354 55.8411 399.075 55.6547 398.862C54.1231 397.001 52.7148 395.042 51.4389 392.997C54.2717 388.417 59.4552 389.214 60.356 385.86C60.8515 384.013 54.5597 380.9 51.6833 385.555C50.3239 387.753 50.5047 390.384 50.8027 391.985C48.3753 388.027 46.3505 383.835 44.7587 379.472C48.4085 373.397 55.2127 374.476 56.388 370.089C57.0376 367.697 48.9007 363.665 45.1571 369.694Z" fill="#291D88"/>
<path d="M265.169 307.252C255.437 327.033 238.404 344.246 244.621 355.705C253.611 372.318 254.954 389.882 244.621 399.089C236.488 406.321 217.621 419.453 183.101 391.833C161.185 374.319 157.936 391.983 127.652 410.562C106.82 423.356 75.5715 413.433 75.5715 386.428C75.5715 370.499 85.0199 357.189 88.3374 343.429C90.77 333.421 89.9538 323.165 79.8868 311.499C72.938 303.442 66.5551 289.948 64.9704 275.863C63.3839 261.853 66.5568 247.242 78.5876 236.734C79.469 235.95 80.4209 235.201 81.408 234.467C99.5643 221.059 116.591 220.105 130.423 223.808C145.657 227.865 157.04 237.535 161.839 242.331C184.289 264.815 211.687 249.287 234.853 248.303C247.436 247.752 258.77 251.505 267.387 267.951C267.72 268.601 268.035 269.236 268.319 269.892C269.841 273.182 270.82 276.697 271.219 280.3C272.254 289.588 269.403 298.663 265.169 307.252Z" fill="url(#paint13_linear_16_15885)"/>
<path style="mix-blend-mode:overlay" opacity="0.5" d="M244.621 355.706C253.611 372.318 254.954 389.882 244.621 399.089C236.488 406.321 217.621 419.454 183.101 391.833C161.185 374.319 157.936 391.983 127.652 410.562C106.82 423.356 75.5716 413.433 75.5716 386.428C75.5716 358.907 103.776 339.193 79.8868 311.506C65.4904 294.826 53.5866 254.996 81.408 234.465C99.5643 221.058 116.591 220.103 130.423 223.806C129.773 225.341 129.24 226.825 129.09 228.109C127.09 244.162 136.289 260.251 149.556 269.507C162.822 278.764 179.471 282.033 195.638 282.084C211.804 282.135 227.82 279.198 243.87 277.164C249.486 276.458 255.187 275.862 260.754 276.746C264.414 277.343 267.951 278.543 271.219 280.298C274.635 310.955 235.703 339.276 244.621 355.706Z" fill="url(#paint14_linear_16_15885)"/>
<path style="mix-blend-mode:overlay" opacity="0.5" d="M265.169 307.252C255.437 327.033 238.404 344.246 244.621 355.705C253.611 372.318 254.954 389.881 244.621 399.088C236.488 406.321 217.621 419.453 183.101 391.833C161.185 374.318 157.936 391.982 127.652 410.562C106.82 423.355 75.5716 413.432 75.5716 386.427C75.5716 370.499 85.02 357.189 88.3375 343.429C90.7701 333.421 89.9539 323.164 79.8868 311.498C72.9381 303.442 66.5552 289.948 64.9705 275.863C66.346 277.506 67.5786 279.264 68.6546 281.117C71.2652 285.619 72.76 290.736 75.658 295.069C78.2845 298.996 81.9581 302.179 86.0582 304.475C91.6426 307.598 97.992 309.152 104.356 309.799C124.803 311.883 145.385 306.8 163.275 296.897L163.517 296.761C166.702 294.984 169.799 293.061 172.81 290.992C182.643 284.236 191.559 276.064 202.072 270.426C222.322 259.568 247.871 259.519 268.304 269.897C269.825 273.187 270.804 276.702 271.203 280.305C272.254 289.588 269.403 298.663 265.169 307.252Z" fill="url(#paint15_linear_16_15885)"/>
<path d="M179.116 300.626L181.766 297.969C184.8 294.926 187.877 292.947 190.996 292.033C194.115 291.119 198.13 290.967 203.04 291.576C208.918 292.269 213.05 292.373 215.436 291.888C217.822 291.404 220.011 290.165 222.001 288.172C224.319 285.848 225.326 283.289 225.021 280.493C224.716 277.698 223.116 274.847 220.22 271.941C217.599 269.312 214.799 267.25 211.819 265.756C209.372 264.53 202.588 268.428 202.588 268.428V261.896L206.396 251.103C215.115 253.593 222.676 258.048 229.078 264.469C234.487 269.893 237.453 275.525 237.977 281.365C238.502 287.205 236.432 292.463 231.769 297.139C229.698 299.214 227.552 300.758 225.332 301.769C223.112 302.78 220.656 303.403 217.966 303.637C215.274 303.872 211.252 303.658 205.899 302.993C201.319 302.443 197.932 302.395 195.738 302.848C193.544 303.301 191.33 304.65 189.095 306.895L187.229 308.763L179.116 307.158V300.626ZM164.215 312.169C168.382 307.99 172.495 307.934 176.554 312.001C178.54 313.994 179.513 316.062 179.472 318.207C179.463 318.678 179.574 325.023 179.472 325.484C179.108 327.133 177.982 322.854 176.428 324.413C174.471 326.376 172.388 327.4 170.179 327.485C167.969 327.569 165.886 326.627 163.928 324.658C162.894 323.622 161.559 326.721 161.089 325.627C160.67 324.647 161.06 319.478 161.089 318.451C161.158 316.282 162.2 314.187 164.215 312.168V312.169Z" fill="#291D88"/>
<path d="M178.974 307.11L181.63 304.464C184.671 301.43 187.756 299.458 190.882 298.548C194.009 297.637 198.033 297.486 202.955 298.094C208.847 298.782 212.989 298.885 215.381 298.403C217.773 297.921 219.967 296.69 221.962 294.708C224.286 292.391 225.295 289.84 224.99 287.055C224.684 284.27 223.08 281.429 220.177 278.533C217.55 275.914 214.743 273.86 211.756 272.371C208.763 270.88 205.671 269.594 202.502 268.524L206.32 257.769C215.06 260.25 222.639 264.69 229.057 271.088C234.478 276.492 237.451 282.104 237.977 287.923C238.503 293.743 236.428 298.982 231.754 303.641C229.678 305.71 227.527 307.248 225.301 308.254C223.076 309.261 220.614 309.881 217.917 310.116C215.219 310.35 211.187 310.136 205.822 309.474C201.23 308.926 197.835 308.878 195.636 309.329C193.437 309.781 191.216 311.123 188.973 313.356L187.106 315.217L178.974 307.11ZM164.037 318.611C168.213 314.447 172.333 314.392 176.397 318.446C178.388 320.431 179.363 322.492 179.322 324.629C179.282 326.767 178.265 328.828 176.272 330.813C174.31 332.769 172.222 333.789 170.007 333.874C167.793 333.958 165.704 333.019 163.741 331.057C161.779 329.101 160.832 327.039 160.9 324.872C160.967 322.705 162.013 320.618 164.037 318.61V318.611Z" fill="#F1F4FF"/>
<path d="M150.037 347.49H112.566C109.914 347.49 107.163 345.536 106.426 343.132L99.1868 319.626C98.4448 317.218 99.9922 315.269 102.648 315.269H140.115C142.766 315.269 145.517 317.218 146.255 319.626L153.494 343.132C154.236 345.536 152.689 347.49 150.037 347.49Z" fill="#291D8A"/>
<path d="M129.963 332.577C130.953 330.95 129.96 328.538 127.747 327.189C125.533 325.84 122.936 326.065 121.946 327.691C120.957 329.317 121.949 331.73 124.163 333.079C126.377 334.428 128.973 334.203 129.963 332.577Z" fill="white"/>
<path d="M175.826 347.212H111.55C111.518 347.212 111.491 347.238 111.491 347.271V352.153C111.491 352.185 111.518 352.212 111.55 352.212H175.826C175.858 352.212 175.885 352.185 175.885 352.153V347.271C175.885 347.238 175.858 347.212 175.826 347.212Z" fill="#291D8A"/>
<path d="M236.884 366.039C243.055 365.865 247.806 371.453 247.806 371.453C238.878 371.19 235.922 379.292 230.587 377.851C227.734 377.086 228.454 366.278 236.884 366.039Z" fill="#F1F4FF"/>
<path d="M250.383 379.238C252.967 378.677 255.465 379.425 257.291 380.283C256.608 379.774 255.926 379.258 255.195 378.783C247.687 373.687 244.673 366.968 242.881 358.808C234.413 359.266 231.318 366.972 225.942 365.52C222.946 364.711 223.703 353.316 232.594 353.063C236.936 352.94 240.594 355.516 242.56 357.251C241.997 354.409 241.536 351.4 241.103 348.233C233.779 347.048 229.697 353.063 225.372 350.822C222.959 349.572 225.713 339.971 233.376 341.409C236.874 342.068 239.427 344.647 240.854 346.488C240.533 344.216 240.171 341.846 239.786 339.404C234.748 334.43 227.877 335.722 226.133 331.032C225.109 328.221 234.475 322.469 239.629 329.324C242.1 332.613 242.158 336.838 241.905 339.363C242.291 341.754 242.632 344.059 242.929 346.279C243.222 344.361 244.01 342.553 245.216 341.033C250.185 335.038 258.441 340.661 257.383 343.164C255.486 347.646 248.509 345.637 243.642 351.202C244.083 354.421 244.699 357.613 245.485 360.765C245.775 358.204 246.782 353.647 250.229 350.775C257.056 345.084 265.162 353.128 263.448 355.72C260.312 360.458 252.653 356.479 245.898 362.231C247.147 366.408 248.943 370.039 251.847 373.182C251.445 370.989 250.956 366.032 253.66 362.224C258.54 355.341 267.916 360.742 266.971 363.536C265.244 368.659 257.236 366.852 252.445 373.807C253.639 375.01 254.947 376.095 256.349 377.048C258.794 378.718 261.122 380.555 263.315 382.544C262.974 380.474 262.813 377.188 264.523 374.456C268.254 368.499 276.312 372.539 275.664 374.91C274.513 379.104 268.155 378.192 264.435 383.576C267.344 386.327 270.015 389.32 272.421 392.521C272.347 390.967 272.725 389.424 273.51 388.081C276.391 383.483 282.609 386.602 282.107 388.422C281.264 391.497 276.79 391.025 273.885 394.536C275.155 396.371 275.838 397.573 275.933 397.723C276.057 397.95 276.093 398.214 276.036 398.466C275.978 398.718 275.83 398.94 275.619 399.09L275.527 399.148C275.406 399.216 275.272 399.259 275.134 399.275C274.996 399.291 274.856 399.28 274.722 399.242C274.588 399.204 274.463 399.139 274.354 399.053C274.245 398.967 274.154 398.859 274.087 398.738C272.859 396.688 271.499 394.721 270.015 392.849C264.8 393.973 263.82 399.086 260.387 398.813C258.499 398.663 257.684 391.749 262.984 390.615C265.489 390.072 267.885 391.117 269.281 391.927C266.392 388.342 263.152 385.056 259.609 382.117C252.724 383.514 251.472 390.233 246.98 389.877C244.571 389.679 243.516 380.71 250.383 379.238Z" fill="#F1F4FF"/>
<path d="M274.813 399.288C274.813 399.288 286.336 362.525 273.523 345.59C260.711 328.655 238.311 322.052 238.311 322.052C238.311 322.052 242.215 350.382 249.4 356.937C256.584 363.491 275.95 391.555 274.813 399.288Z" fill="#291D88"/>
<path d="M273.507 399.466C272.865 394.547 271.978 389.594 270.967 384.7C269.957 379.805 268.78 374.931 267.353 370.135C265.986 365.328 264.3 360.617 262.305 356.035C260.257 351.492 257.919 347.041 254.738 343.209C254.666 343.124 254.63 343.014 254.638 342.903C254.647 342.791 254.698 342.688 254.783 342.615C254.867 342.544 254.976 342.508 255.086 342.516C255.196 342.524 255.299 342.574 255.373 342.656C258.752 346.488 261.267 350.946 263.472 355.499C265.677 360.052 267.425 364.824 269.005 369.626C270.585 374.429 271.916 379.31 273.1 384.225C274.285 389.14 275.302 394.079 276.107 399.114C276.15 399.451 276.061 399.792 275.857 400.064C275.654 400.336 275.353 400.518 275.017 400.572C274.682 400.625 274.339 400.546 274.061 400.351C273.783 400.156 273.591 399.861 273.527 399.527C273.527 399.527 273.527 399.507 273.527 399.496L273.507 399.466Z" fill="white"/>
<path d="M338.897 345.251C328.586 344.961 320.668 354.296 320.668 354.296C335.58 353.852 340.518 367.388 349.43 364.98C354.178 363.699 352.976 345.651 338.897 345.251Z" fill="#F1F4FF"/>
<path d="M316.347 367.293C312.037 366.36 307.859 367.607 304.811 369.038C305.948 368.191 307.108 367.354 308.313 366.535C320.825 358.023 325.887 346.802 328.88 333.173C343.017 333.935 348.195 346.809 357.171 344.384C362.178 343.018 360.908 323.999 346.058 323.579C338.809 323.374 332.696 327.678 329.416 330.571C330.354 325.826 331.102 320.802 331.849 315.514C344.082 313.533 350.898 323.575 358.13 319.835C362.161 317.745 357.536 301.708 344.761 304.123C338.918 305.223 334.652 309.53 332.273 312.604C332.808 308.809 333.392 304.854 334.058 300.776C342.467 292.469 353.942 294.627 356.826 286.771C358.553 282.078 342.894 272.473 334.3 283.923C330.174 289.415 330.075 296.465 330.498 300.687C329.856 304.666 329.286 308.543 328.761 312.242C328.249 309.301 327.153 306.145 324.941 303.477C316.644 293.466 302.855 302.856 304.623 307.037C307.794 314.524 319.426 311.166 327.573 320.464C326.709 326.216 325.781 331.524 324.501 336.405C324.013 332.128 322.33 324.515 316.576 319.722C305.159 310.213 291.63 323.651 294.493 327.978C299.733 335.896 312.525 329.249 323.808 338.854C321.719 345.832 318.723 351.898 313.873 357.145C314.555 353.483 315.361 345.19 310.845 338.84C302.695 327.346 287.033 336.367 288.603 341.033C291.483 349.572 304.859 346.577 312.859 358.187C310.867 360.198 308.683 362.012 306.34 363.601C302.256 366.391 298.37 369.46 294.709 372.785C295.292 369.322 295.545 363.84 292.685 359.273C286.456 349.323 272.998 356.076 274.08 360.028C276.005 367.04 286.63 365.493 292.852 374.507C287.992 379.102 283.528 384.1 279.51 389.447C279.555 387.111 279.169 384.419 277.691 382.028C272.882 374.35 262.493 379.562 263.329 382.612C264.742 387.756 272.203 386.957 277.066 392.822C274.944 395.896 273.807 397.894 273.653 398.144C273.439 398.525 273.374 398.973 273.47 399.4C273.567 399.827 273.818 400.204 274.176 400.456L274.333 400.552C274.535 400.665 274.758 400.737 274.989 400.764C275.22 400.791 275.454 400.772 275.677 400.709C275.901 400.646 276.109 400.539 276.291 400.394C276.474 400.25 276.626 400.072 276.739 399.868C278.787 396.443 281.059 393.156 283.541 390.031C292.251 391.91 293.889 400.449 299.62 399.991C302.774 399.742 304.135 388.19 295.282 386.281C291.098 385.376 287.091 387.118 284.766 388.474C289.589 382.481 295.001 376.988 300.92 372.078C312.415 374.404 314.511 385.628 321.989 385.034C326.068 384.734 327.819 369.78 316.347 367.293Z" fill="#F1F4FF"/>
<path d="M314.941 403.936C303.729 403.178 298.838 399.421 296.746 394.489C294.653 389.556 296.063 386.875 293.865 382.807C291.667 378.739 285.984 377.591 284.947 368.14C283.909 358.689 295.558 351.16 296.176 352.592C296.793 354.023 291.469 361.018 294.213 364.888C296.957 368.758 295.773 370.633 297.869 368.427C299.964 366.22 296.677 365.134 297.783 360.181C298.889 355.228 308.258 348.838 311.463 349.128C314.668 349.418 308.244 353.087 309.295 358.289C310.347 363.491 311.941 365.609 313.613 363.658C315.285 361.708 312.794 348.233 319.128 348.319C325.463 348.404 330.811 350.607 328.217 352.581C325.624 354.556 321.023 357.561 322.733 359.413C324.443 361.264 326.449 360.55 328.084 357.063C329.719 353.575 329.508 350.132 332.091 350.129C334.675 350.125 352.962 353.545 352.041 358.426C351.119 363.307 346.921 376.529 344.593 377.553C342.266 378.578 339.412 372.088 336.303 373.209C333.194 374.329 331.183 377.031 337.74 378.896C344.296 380.761 348.054 383.128 341.446 386.865C334.839 390.601 329.644 387.1 326.518 385.027C323.391 382.954 319.166 384.996 322.255 386.673C325.344 388.351 336.313 390.687 335.224 392.992C334.136 395.298 322.886 404.459 314.941 403.936Z" fill="#291D88"/>
<path d="M274.51 400.726C274.384 400.663 274.275 400.573 274.189 400.461C274.103 400.35 274.044 400.221 274.016 400.083C273.988 399.946 273.991 399.803 274.026 399.667C274.06 399.531 274.126 399.405 274.216 399.298C293.456 376.997 320.917 367.341 342.689 361.421C342.919 361.373 343.159 361.414 343.359 361.537C343.56 361.659 343.706 361.854 343.768 362.081C343.829 362.308 343.802 362.549 343.692 362.757C343.582 362.964 343.396 363.122 343.174 363.197C321.651 369.048 294.521 378.568 275.595 400.5C275.464 400.651 275.286 400.755 275.091 400.795C274.895 400.836 274.691 400.811 274.51 400.726V400.726Z" fill="white"/>
<path d="M383 356.802V366.048C383.003 367.811 382.306 369.502 381.063 370.751C379.819 371.999 378.132 372.703 376.37 372.706H327.476C325.714 372.703 324.027 371.999 322.783 370.751C321.54 369.502 320.843 367.811 320.846 366.048V356.802C320.845 356.342 320.887 355.883 320.973 355.431C321.291 353.942 322.11 352.606 323.294 351.648C324.477 350.69 325.953 350.167 327.476 350.167H376.37C378.128 350.168 379.814 350.868 381.057 352.112C382.3 353.356 382.999 355.043 383 356.802V356.802Z" fill="#4F67EB"/>
<path d="M340.449 355.405H327.39V357.913H340.449V355.405Z" fill="white"/>
<path d="M375.244 361.435H327.39V364.493H375.244V361.435Z" fill="white"/>
<path d="M375.244 366.25H327.39V369.308H375.244V366.25Z" fill="white"/>
<path style="mix-blend-mode:overlay" opacity="0.5" d="M383 356.802V366.048C383.003 367.811 382.306 369.502 381.063 370.751C379.819 371.999 378.132 372.703 376.37 372.706H327.476C325.714 372.703 324.027 371.999 322.783 370.751C321.54 369.502 320.843 367.811 320.846 366.048V356.802C320.845 356.342 320.887 355.883 320.973 355.431C321.592 355.37 322.214 355.342 322.835 355.346C324.361 355.338 325.885 355.46 327.39 355.709C329.94 356.097 332.424 356.84 334.769 357.915C335.547 358.258 336.289 358.642 337.015 359.05C338.341 359.797 339.645 360.675 340.971 361.425C342.281 362.206 343.702 362.784 345.186 363.138C346.742 363.457 348.373 363.372 349.976 363.265C351.945 363.115 353.911 362.902 355.859 362.603C357.614 362.396 359.342 362.001 361.013 361.425C361.515 361.236 362.008 361.022 362.489 360.784C364.519 359.712 366.296 357.978 366.937 355.753C367.229 354.564 367.287 353.33 367.108 352.119C366.983 351.435 366.744 350.778 366.402 350.172H376.37C378.127 350.174 379.812 350.872 381.055 352.115C382.298 353.358 382.997 355.044 383 356.802V356.802Z" fill="url(#paint16_linear_16_15885)"/>
<path d="M316.416 310.517V320.702C316.414 322.639 315.644 324.497 314.275 325.867C312.905 327.238 311.049 328.008 309.113 328.01H255.265C253.329 328.008 251.472 327.238 250.103 325.867C248.734 324.497 247.964 322.639 247.962 320.702V310.517C247.96 309.556 248.148 308.603 248.514 307.714C248.88 306.825 249.417 306.017 250.095 305.336C250.774 304.655 251.579 304.115 252.466 303.746C253.353 303.376 254.304 303.186 255.265 303.184H309.113C311.053 303.188 312.912 303.962 314.281 305.337C315.651 306.713 316.418 308.576 316.416 310.517V310.517Z" fill="#4F67EB"/>
<path d="M269.556 308.961H255.172V311.723H269.556V308.961Z" fill="white"/>
<path d="M307.877 315.601H255.172V322.338H307.877V315.601Z" fill="white"/>
<path style="mix-blend-mode:overlay" opacity="0.5" d="M316.416 310.517V320.702C316.414 322.639 315.644 324.497 314.275 325.867C312.905 327.238 311.049 328.008 309.113 328.01H255.265C253.329 328.008 251.472 327.238 250.103 325.867C248.734 324.497 247.964 322.639 247.962 320.702V311.882C248.979 311.777 250.001 311.731 251.023 311.744C256.723 311.695 262.495 311.647 267.99 313.04C270.982 313.792 273.832 314.949 276.823 315.608L277.128 315.68C280.733 316.481 284.455 316.55 288.129 316.481C290.581 316.457 293.101 316.314 295.401 315.608C296.25 315.354 297.071 315.015 297.852 314.596C299.45 313.703 300.809 312.437 301.814 310.906C302.818 309.375 303.438 307.623 303.621 305.801C303.698 304.928 303.666 304.049 303.527 303.184H309.089C310.051 303.183 311.004 303.372 311.894 303.74C312.784 304.108 313.592 304.648 314.273 305.329C314.953 306.01 315.493 306.819 315.861 307.709C316.228 308.599 316.417 309.554 316.416 310.517V310.517Z" fill="url(#paint17_linear_16_15885)"/>
<defs>
<linearGradient id="paint0_linear_16_15885" x1="93501.8" y1="150074" x2="93501.8" y2="232658" gradientUnits="userSpaceOnUse">
<stop stop-color="#5B6ECE"/>
<stop offset="1" stop-color="#59207F"/>
</linearGradient>
<linearGradient id="paint1_linear_16_15885" x1="57078.4" y1="125071" x2="57078.4" y2="169301" gradientUnits="userSpaceOnUse">
<stop stop-color="#5B6ECE"/>
<stop offset="1" stop-color="#59207F"/>
</linearGradient>
<linearGradient id="paint2_linear_16_15885" x1="37702.6" y1="30564.5" x2="37702.6" y2="34151.3" gradientUnits="userSpaceOnUse">
<stop stop-color="#5B6ECE"/>
<stop offset="1" stop-color="#59207F"/>
</linearGradient>
<linearGradient id="paint3_linear_16_15885" x1="24565.1" y1="28304.9" x2="24565.1" y2="31348.6" gradientUnits="userSpaceOnUse">
<stop stop-color="#5B6ECE"/>
<stop offset="1" stop-color="#59207F"/>
</linearGradient>
<linearGradient id="paint4_linear_16_15885" x1="25744.1" y1="28304.9" x2="25744.1" y2="31348.6" gradientUnits="userSpaceOnUse">
<stop stop-color="#5B6ECE"/>
<stop offset="1" stop-color="#59207F"/>
</linearGradient>
<linearGradient id="paint5_linear_16_15885" x1="26661" y1="30564.5" x2="26661" y2="34151.3" gradientUnits="userSpaceOnUse">
<stop stop-color="#5B6ECE"/>
<stop offset="1" stop-color="#59207F"/>
</linearGradient>
<linearGradient id="paint6_linear_16_15885" x1="258808" y1="58770.9" x2="458622" y2="58770.9" gradientUnits="userSpaceOnUse">
<stop stop-color="#F0FBFC"/>
<stop offset="0.73" stop-color="#E0E5FC"/>
</linearGradient>
<linearGradient id="paint7_linear_16_15885" x1="35089.6" y1="2454.96" x2="37060.1" y2="2454.96" gradientUnits="userSpaceOnUse">
<stop stop-color="#B0D0FF"/>
<stop offset="0.75" stop-color="#779DE0"/>
<stop offset="1" stop-color="#6E6ECE"/>
</linearGradient>
<linearGradient id="paint8_linear_16_15885" x1="254430" y1="58766.3" x2="430344" y2="58766.3" gradientUnits="userSpaceOnUse">
<stop stop-color="#E0E5FC"/>
<stop offset="1" stop-color="#2E3192"/>
</linearGradient>
<linearGradient id="paint9_linear_16_15885" x1="93501.8" y1="113519" x2="93501.8" y2="145839" gradientUnits="userSpaceOnUse">
<stop stop-color="#5B6ECE"/>
<stop offset="1" stop-color="#59207F"/>
</linearGradient>
<linearGradient id="paint10_linear_16_15885" x1="87622.5" y1="42453.3" x2="87622.5" y2="45570.8" gradientUnits="userSpaceOnUse">
<stop stop-color="#5B6ECE"/>
<stop offset="1" stop-color="#59207F"/>
</linearGradient>
<linearGradient id="paint11_linear_16_15885" x1="268419" y1="4163.98" x2="496394" y2="4163.98" gradientUnits="userSpaceOnUse">
<stop stop-color="#5B6ECE"/>
<stop offset="1" stop-color="#59207F"/>
</linearGradient>
<linearGradient id="paint12_linear_16_15885" x1="256594" y1="52564.3" x2="443111" y2="52564.3" gradientUnits="userSpaceOnUse">
<stop stop-color="#E0E5FC"/>
<stop offset="1" stop-color="#2E3192"/>
</linearGradient>
<linearGradient id="paint13_linear_16_15885" x1="173.219" y1="205.015" x2="156.05" y2="440.194" gradientUnits="userSpaceOnUse">
<stop stop-color="#F1F4FF"/>
<stop offset="0.05" stop-color="#E0E5FD"/>
<stop offset="0.21" stop-color="#B4BFF7"/>
<stop offset="0.37" stop-color="#909FF3"/>
<stop offset="0.53" stop-color="#7387EF"/>
<stop offset="0.69" stop-color="#5F75ED"/>
<stop offset="0.84" stop-color="#536BEB"/>
<stop offset="1" stop-color="#4F67EB"/>
</linearGradient>
<linearGradient id="paint14_linear_16_15885" x1="171.425" y1="227.287" x2="157.474" y2="427.793" gradientUnits="userSpaceOnUse">
<stop stop-color="white"/>
<stop offset="0.09" stop-color="#F8F8F8"/>
<stop offset="0.22" stop-color="#E6E6E6"/>
<stop offset="0.37" stop-color="#C8C8C8"/>
<stop offset="0.53" stop-color="#9E9E9E"/>
<stop offset="0.71" stop-color="#676767"/>
<stop offset="0.9" stop-color="#272727"/>
<stop offset="1"/>
</linearGradient>
<linearGradient id="paint15_linear_16_15885" x1="163994" y1="65793.8" x2="181141" y2="214202" gradientUnits="userSpaceOnUse">
<stop stop-color="white"/>
<stop offset="0.09" stop-color="#F8F8F8"/>
<stop offset="0.22" stop-color="#E6E6E6"/>
<stop offset="0.37" stop-color="#C8C8C8"/>
<stop offset="0.53" stop-color="#9E9E9E"/>
<stop offset="0.71" stop-color="#676767"/>
<stop offset="0.9" stop-color="#272727"/>
<stop offset="1"/>
</linearGradient>
<linearGradient id="paint16_linear_16_15885" x1="320.846" y1="361.435" x2="383" y2="361.435" gradientUnits="userSpaceOnUse">
<stop stop-color="white"/>
<stop offset="0.19" stop-color="#FCFCFC"/>
<stop offset="0.32" stop-color="#F3F3F3"/>
<stop offset="0.44" stop-color="#E3E3E3"/>
<stop offset="0.55" stop-color="#CDCDCD"/>
<stop offset="0.65" stop-color="#B1B1B1"/>
<stop offset="0.74" stop-color="#8E8E8E"/>
<stop offset="0.83" stop-color="#646464"/>
<stop offset="0.92" stop-color="#363636"/>
<stop offset="1"/>
</linearGradient>
<linearGradient id="paint17_linear_16_15885" x1="72093.3" y1="29770.4" x2="85625.9" y2="29770.4" gradientUnits="userSpaceOnUse">
<stop stop-color="white"/>
<stop offset="0.19" stop-color="#FCFCFC"/>
<stop offset="0.32" stop-color="#F3F3F3"/>
<stop offset="0.44" stop-color="#E3E3E3"/>
<stop offset="0.55" stop-color="#CDCDCD"/>
<stop offset="0.65" stop-color="#B1B1B1"/>
<stop offset="0.74" stop-color="#8E8E8E"/>
<stop offset="0.83" stop-color="#646464"/>
<stop offset="0.92" stop-color="#363636"/>
<stop offset="1"/>
</linearGradient>
</defs>
</svg>
