<svg width="62" height="62" viewBox="0 0 62 62" fill="none" xmlns="http://www.w3.org/2000/svg">
<path d="M41.0359 13.6366C40.8402 13.6048 40.6557 13.7376 40.6239 13.9333C40.5921 14.129 40.7249 14.3135 40.9206 14.3453C41.4765 14.4365 42.0348 14.552 42.5947 14.6936C43.1538 14.8349 43.7068 15.0003 44.2525 15.1917C44.646 15.3296 44.947 15.8067 45.156 16.5507C45.3987 17.4146 45.5005 18.6014 45.4661 20.0201C45.4615 20.2181 45.6182 20.3825 45.8163 20.3871C46.0143 20.3917 46.1787 20.235 46.1833 20.0369C46.2194 18.5458 46.1093 17.2872 45.8478 16.3566C45.5739 15.3814 45.1235 14.7364 44.4888 14.5139C43.9236 14.3157 43.3498 14.1429 42.7692 13.9961C42.1978 13.8517 41.6196 13.7324 41.0359 13.6367V13.6366ZM46.0576 22.0664C46.0762 21.8692 45.9314 21.6941 45.7342 21.6755C45.5369 21.6568 45.3618 21.8017 45.3432 21.9989C45.3233 22.2074 45.298 22.4444 45.2674 22.7082C45.2372 22.9692 45.2065 23.2151 45.1753 23.4457C45.1489 23.6422 45.2868 23.8229 45.4833 23.8493C45.6798 23.8757 45.8605 23.7377 45.8869 23.5413C45.9208 23.2911 45.9525 23.0406 45.9818 22.7898C46.0075 22.5687 46.0327 22.3277 46.0576 22.0664V22.0664ZM45.1922 25.098C45.005 25.0328 44.8004 25.1316 44.7352 25.3188C44.7135 25.3808 44.7093 25.4476 44.723 25.5118C44.7367 25.576 44.7678 25.6353 44.8128 25.6831C44.8301 25.5928 44.8469 25.5025 44.8634 25.4122L45.0698 25.4492L44.9559 25.7759C44.9014 25.7569 44.8523 25.7251 44.8128 25.6831C44.789 25.8078 44.7619 25.9471 44.7317 26.0999C44.6834 26.3441 44.6357 26.5769 44.5887 26.7989C44.5476 26.993 44.6716 27.1838 44.8657 27.225C45.0599 27.2661 45.2507 27.1421 45.2918 26.9479C45.342 26.7115 45.3906 26.4748 45.4376 26.2377C45.4739 26.0542 45.5158 25.8332 45.5635 25.571C45.566 25.5621 45.5681 25.553 45.5698 25.5438C45.6076 25.3486 45.48 25.1597 45.2848 25.122L45.2164 25.4754L45.2839 25.1225C45.2704 25.1199 45.2548 25.1162 45.2374 25.1114C45.2222 25.1075 45.2071 25.103 45.1922 25.098V25.098ZM44.4352 28.4423C44.248 28.3771 44.0434 28.4759 43.9781 28.6631C43.9557 28.7273 43.952 28.7965 43.9675 28.8628C43.9829 28.929 44.0168 28.9894 44.0653 29.0371C44.0907 28.9375 44.1159 28.8378 44.1409 28.738L44.3168 28.782L44.1989 29.1201C44.1487 29.1027 44.1031 29.0744 44.0653 29.0371C43.9715 29.405 43.8739 29.7718 43.7726 30.1377C43.7198 30.3287 43.8319 30.5265 44.0229 30.5793C44.2139 30.632 44.4117 30.52 44.4645 30.329C44.5302 30.0924 44.5944 29.8553 44.6569 29.6179C44.7172 29.3893 44.7762 29.1603 44.8338 28.931C44.8386 28.9155 44.8423 28.8994 44.845 28.8829C44.8768 28.6866 44.7435 28.5017 44.5473 28.4699L44.4896 28.8252L44.5459 28.4708C44.5357 28.4692 44.5175 28.465 44.4912 28.4583C44.4661 28.4519 44.4473 28.4466 44.4352 28.4423V28.4423ZM43.5966 31.7971C43.4095 31.7319 43.2048 31.8307 43.1395 32.0179C43.1126 32.0947 43.1128 32.1784 43.1399 32.2552C43.1616 32.1873 43.1833 32.1191 43.2048 32.0507L43.4785 32.136L43.3603 32.4749C43.3094 32.4572 43.2632 32.4283 43.225 32.3902C43.1869 32.3522 43.1578 32.306 43.1399 32.2552C43.0937 32.3998 43.0469 32.5443 42.9995 32.6886C42.9396 32.8708 42.8789 33.0527 42.8173 33.2342C42.7999 33.2595 42.7857 33.287 42.7753 33.3158C42.71 33.4959 42.7977 33.6942 42.9718 33.7684C42.8083 33.6913 42.7253 33.5019 42.7851 33.3268L42.7858 33.3269L42.8173 33.2342C42.9077 33.1031 43.0783 33.0438 43.2352 33.1007L43.1127 33.4385L42.7858 33.3269L42.7855 33.3277L43.1127 33.4385L42.9904 33.7757C42.9841 33.7734 42.978 33.771 42.9718 33.7684C42.984 33.7741 42.9966 33.7793 43.0096 33.7837C43.1977 33.8479 43.4024 33.7473 43.4665 33.5592L43.1258 33.443L43.4661 33.5583C43.5396 33.3429 43.6119 33.127 43.6829 32.9108C43.7513 32.7028 43.8184 32.4945 43.8844 32.2858C43.8885 32.2748 43.8922 32.2636 43.8953 32.2521C43.9475 32.0603 43.8343 31.8624 43.6425 31.8102L43.5479 32.1576L43.6421 31.8102C43.6174 31.8035 43.6268 31.8068 43.6186 31.8043C43.6105 31.8018 43.6032 31.7994 43.5966 31.7971ZM42.7805 35.4593C42.8512 35.2736 42.758 35.0658 42.5724 34.9952C42.3868 34.9245 42.179 35.0177 42.1083 35.2033C41.9913 35.5104 41.8887 35.7745 41.8011 35.9942C41.7275 36.1787 41.6444 36.3827 41.5513 36.6072C41.4983 36.6486 41.4581 36.7042 41.4352 36.7675C41.3682 36.9524 41.4625 37.1564 41.646 37.2257C41.4729 37.1474 41.3894 36.9464 41.4591 36.7673C41.4761 36.7235 41.5015 36.6835 41.5338 36.6495L41.5513 36.6072C41.5987 36.5701 41.6548 36.5454 41.7142 36.5356C41.7736 36.5258 41.8346 36.5311 41.8914 36.551C41.7609 36.5144 41.6237 36.5552 41.5338 36.6495L41.4846 36.7678L41.484 36.7675C41.4112 36.9418 41.4858 37.1409 41.6508 37.226L41.6504 37.2273L41.6459 37.2257C41.6519 37.2284 41.6579 37.2309 41.664 37.2333L41.6643 37.2326L41.6775 37.2384C41.8609 37.315 42.0718 37.2284 42.1484 37.0449L41.8162 36.9062L42.148 37.044C42.2438 36.8146 42.3506 36.552 42.4677 36.2586C42.5911 35.9493 42.6953 35.683 42.7805 35.4593V35.4593ZM41.3339 38.8933C41.417 38.7131 41.3383 38.4996 41.1581 38.4165C40.978 38.3334 40.7645 38.4121 40.6814 38.5923C40.5201 38.94 40.3548 39.286 40.1857 39.63C39.8918 39.5729 39.5953 39.6162 39.3376 39.7401C39.0227 39.8915 38.7657 40.1628 38.6411 40.518C38.5319 40.8297 38.5431 41.1551 38.6503 41.4432C38.7185 41.6265 38.825 41.793 38.9628 41.9318C38.8951 42.0508 38.8266 42.1695 38.7574 42.2877C38.6359 42.4946 38.5125 42.7004 38.3873 42.905C38.284 43.0743 38.3375 43.2953 38.5068 43.3986C38.6761 43.5019 38.8972 43.4484 39.0004 43.2791C39.1276 43.0707 39.2528 42.8612 39.3761 42.6505C39.4967 42.4452 39.6155 42.2388 39.7325 42.0314C39.7353 42.0269 39.7381 42.0224 39.7407 42.0179C39.8393 41.8453 39.7794 41.6253 39.6067 41.5267L39.6066 41.527C39.4757 41.4523 39.3752 41.3341 39.3225 41.1929C39.2719 41.057 39.2669 40.9028 39.319 40.7543C39.3778 40.5863 39.499 40.4582 39.647 40.387C39.7236 40.3501 39.8066 40.3288 39.8915 40.3241C39.9763 40.3195 40.0612 40.3316 40.1413 40.3599C40.1483 40.3623 40.1602 40.3671 40.1769 40.3741C40.1821 40.3763 40.19 40.3798 40.2001 40.3847L40.2074 40.3885C40.3851 40.4777 40.6015 40.4061 40.6907 40.2284L40.369 40.0668L40.6897 40.2271C40.8004 40.007 40.9094 39.786 41.0165 39.5641C41.1239 39.3413 41.2297 39.1177 41.3339 38.8933V38.8933ZM37.9005 44.9711C38.0131 44.8081 37.9722 44.5845 37.8091 44.4719C37.646 44.3593 37.4225 44.4002 37.3099 44.5633C37.1334 44.8183 36.9531 45.0707 36.7691 45.3205C36.5902 45.5632 36.4076 45.8032 36.2212 46.0403C36.0985 46.1963 36.1256 46.4224 36.2817 46.5451C36.4378 46.6678 36.6638 46.6408 36.7865 46.4847C36.9777 46.2411 37.165 45.9946 37.3485 45.7452C37.5363 45.4899 37.7203 45.2318 37.9005 44.9711V44.9711ZM35.4918 48.0102C35.6253 47.8642 35.6152 47.6375 35.4693 47.504C35.3233 47.3704 35.0966 47.3804 34.963 47.5265C34.7522 47.7564 34.5366 47.9819 34.3164 48.2029C34.1011 48.4191 33.8811 48.6305 33.6566 48.8371C33.5107 48.9715 33.5012 49.1988 33.6355 49.3448C33.7699 49.4908 33.9972 49.5002 34.1432 49.3659C34.3753 49.152 34.6028 48.933 34.8254 48.7092C35.0434 48.4903 35.2656 48.2571 35.4918 48.0102ZM32.5732 50.6676C32.7324 50.5495 32.7658 50.3247 32.6477 50.1655C32.5297 50.0063 32.3049 49.973 32.1457 50.091C31.9523 50.2335 31.7554 50.3712 31.5553 50.504C31.3563 50.636 31.1544 50.7637 30.9498 50.8868C30.7797 50.9893 30.7249 51.2103 30.8275 51.3804C30.9299 51.5505 31.151 51.6052 31.321 51.5027C31.5342 51.3742 31.7446 51.2409 31.9519 51.103C32.1625 50.963 32.3697 50.8178 32.5732 50.6675V50.6676ZM29.4874 52.4402C29.6707 52.3642 29.7575 52.1538 29.6815 51.9706C29.6054 51.7873 29.395 51.7004 29.2118 51.7765C28.9525 51.8851 28.6892 51.9841 28.4226 52.0733C28.1564 52.1622 27.8873 52.2418 27.6156 52.3119C27.4238 52.3616 27.3086 52.5574 27.3582 52.7492C27.4079 52.9411 27.6038 53.0563 27.7956 53.0066C28.0834 52.9323 28.3685 52.848 28.6504 52.7539C28.9332 52.6596 29.2123 52.555 29.4874 52.4402V52.4402ZM25.8007 53.3408C25.9987 53.3253 26.1466 53.1521 26.1311 52.9541C26.1156 52.7561 25.9424 52.6082 25.7444 52.6237C25.4696 52.6464 25.1941 52.6587 24.9183 52.6604C24.6444 52.6618 24.3605 52.6524 24.0669 52.6327C23.8688 52.6195 23.6975 52.7693 23.6844 52.9673C23.6712 53.1653 23.821 53.3366 24.019 53.3498C24.315 53.3698 24.6159 53.3791 24.9212 53.3775C25.227 53.3759 25.5204 53.3638 25.8006 53.3408H25.8007ZM22.4325 52.8062C22.4954 52.6183 22.394 52.4149 22.2061 52.352C22.1732 52.341 22.1388 52.3348 22.1041 52.3336L22.17 52.3489L22.0915 52.6921L21.7519 52.5784C21.8035 52.4242 21.9496 52.3284 22.1041 52.3336C21.9641 52.3006 21.8245 52.2654 21.6856 52.2281C21.522 52.1843 21.3594 52.1371 21.1978 52.0866C21.0661 52.0454 20.958 52.0078 20.8499 51.9702C20.7804 51.9458 20.7107 51.9219 20.6408 51.8984C20.4529 51.8355 20.2495 51.9368 20.1866 52.1247C20.1237 52.3127 20.225 52.5161 20.413 52.5789C20.48 52.6016 20.5469 52.6247 20.6136 52.648C20.7415 52.6924 20.8695 52.7371 20.984 52.7729C21.155 52.8264 21.327 52.8764 21.5 52.9228C21.6614 52.966 21.8236 53.0063 21.9865 53.0438C22.1716 53.0995 22.3689 52.9985 22.431 52.814L22.0899 52.699L22.4302 52.813L22.4325 52.8062V52.8062ZM18.5776 51.896C18.7609 51.9721 18.9712 51.8852 19.0473 51.7019C19.1234 51.5187 19.0365 51.3083 18.8532 51.2323C18.6044 51.128 18.3576 51.019 18.1129 50.9054C17.8753 50.7951 17.6396 50.6808 17.406 50.5625C17.2289 50.4732 17.0129 50.5444 16.9236 50.7215C16.8343 50.8985 16.9055 51.1145 17.0826 51.2038C17.3237 51.326 17.5668 51.444 17.8119 51.5579C18.065 51.6755 18.3203 51.7882 18.5776 51.896V51.896ZM15.3409 50.2171C15.5079 50.3242 15.7302 50.2758 15.8373 50.1088C15.9445 49.9418 15.896 49.7195 15.729 49.6124C15.4799 49.4526 15.2355 49.2856 14.996 49.1117C14.764 48.9432 14.5362 48.7689 14.313 48.5889C14.1585 48.4646 13.9325 48.4892 13.8082 48.6437C13.6839 48.7983 13.7085 49.0243 13.863 49.1486C14.0958 49.3363 14.3326 49.5186 14.5741 49.6938C14.8246 49.8756 15.0803 50.0501 15.3409 50.2171H15.3409ZM12.385 47.7849C12.5209 47.9293 12.7482 47.9363 12.8926 47.8004C13.0371 47.6645 13.044 47.4371 12.9081 47.2927C12.7345 47.1084 12.5661 46.9191 12.4032 46.7252C12.2443 46.5363 12.0914 46.3424 11.9448 46.1438C11.8275 45.9838 11.6027 45.9492 11.4427 46.0664C11.2828 46.1837 11.2482 46.4085 11.3654 46.5685C11.521 46.7796 11.6833 46.9857 11.8519 47.1865C12.0239 47.391 12.2016 47.5905 12.385 47.7849H12.385ZM10.2913 44.8188C10.3806 44.9959 10.5966 45.067 10.7737 44.9777C10.9508 44.8884 11.0219 44.6724 10.9326 44.4954C10.8027 44.2378 10.6825 43.9754 10.5724 43.7087C10.4631 43.4437 10.3641 43.1746 10.2753 42.902C10.214 42.7133 10.0113 42.61 9.82252 42.6713C9.63382 42.7327 9.53056 42.9354 9.59188 43.1242C9.68479 43.4092 9.79042 43.6951 9.90862 43.9816C10.0256 44.2653 10.1533 44.5446 10.2913 44.8188V44.8188ZM9.11509 41.1128C9.14458 41.3092 9.32785 41.4446 9.52432 41.4151C9.72082 41.3856 9.85615 41.2024 9.82666 41.0059C9.7849 40.7287 9.75243 40.4503 9.72931 40.171C9.7048 39.8757 9.69013 39.591 9.68515 39.3169C9.68206 39.1189 9.51895 38.9609 9.32095 38.964C9.12289 38.9671 8.96491 39.1302 8.968 39.3282C8.9737 39.6428 8.98837 39.9437 9.01213 40.23C9.03658 40.5253 9.07093 40.8197 9.11512 41.1128H9.11509ZM9.06571 37.2965C9.04321 37.4937 9.18487 37.6719 9.38212 37.6944C9.5794 37.7169 9.75763 37.5753 9.78013 37.378C9.80997 37.1227 9.84648 36.8683 9.88963 36.6149C9.93253 36.3617 9.98236 36.1049 10.0377 35.8456C10.0788 35.6515 9.95479 35.4607 9.76066 35.4195C9.56653 35.3784 9.37573 35.5024 9.33457 35.6966C9.27769 35.9622 9.22645 36.229 9.18088 36.4968C9.13513 36.7665 9.09628 37.0333 9.06571 37.2964V37.2965ZM9.86746 33.7225C9.80611 33.9112 9.90937 34.114 10.0981 34.1753C10.2868 34.2366 10.4895 34.1334 10.5509 33.9446C10.6448 33.6572 10.7451 33.3719 10.8518 33.0889C10.9439 32.8445 11.0404 32.6018 11.1412 32.3609C11.1847 32.3216 11.2179 32.2722 11.2378 32.217C11.3039 32.0346 11.213 31.8336 11.0345 31.7617C11.2054 31.84 11.2886 32.0387 11.2208 32.217C11.2058 32.2565 11.1839 32.2931 11.1561 32.3251L11.1411 32.3609C11.0944 32.4031 11.0374 32.4323 10.9758 32.4456C10.9143 32.4589 10.8503 32.4557 10.7903 32.4364C10.9256 32.4731 11.0674 32.4272 11.1561 32.3251L11.199 32.2237L11.1999 32.224C11.2758 32.0454 11.1966 31.8396 11.0225 31.7575L11.0226 31.7572L11.0345 31.7617C11.0273 31.7584 11.0199 31.7553 11.0124 31.7525L11.0123 31.7528L11.0117 31.7526L11.0097 31.7517C10.8268 31.6738 10.6153 31.759 10.5374 31.9419L10.8686 32.0829L10.5381 31.9423C10.4123 32.2375 10.2928 32.5354 10.1796 32.8357C10.069 33.129 9.96491 33.4246 9.86746 33.7225V33.7225ZM11.4113 30.1076C11.3189 30.2831 11.3862 30.5003 11.5617 30.5927C11.7372 30.6851 11.9545 30.6178 12.0469 30.4423C12.1734 30.2018 12.3037 29.9633 12.4378 29.7269C12.5739 29.487 12.7137 29.2492 12.8571 29.0135C12.9604 28.8442 12.9069 28.6232 12.7376 28.52C12.5683 28.4167 12.3473 28.4702 12.244 28.6395C12.0968 28.8817 11.9532 29.126 11.8134 29.3726C11.6755 29.6155 11.5415 29.8605 11.4113 30.1076L11.4113 30.1076ZM13.3612 26.942C13.2471 27.1036 13.2855 27.3271 13.447 27.4412C13.6086 27.5554 13.8321 27.517 13.9462 27.3554C14.0603 27.1945 14.2027 26.9999 14.3703 26.7757C14.5333 26.5577 14.6793 26.3667 14.8101 26.1998C14.932 26.0437 14.9043 25.8182 14.7482 25.6963C14.5921 25.5744 14.3667 25.6021 14.2448 25.7582C14.0735 25.9768 13.9222 26.1736 13.7938 26.3454C13.67 26.511 13.5265 26.7087 13.3612 26.942V26.942ZM15.5397 24.205C15.4084 24.3533 15.4223 24.58 15.5706 24.7112C15.7189 24.8424 15.9456 24.8286 16.0768 24.6803C16.2565 24.4779 16.4385 24.2776 16.6227 24.0793C16.8074 23.8801 16.9948 23.6833 17.1848 23.489C17.3238 23.3477 17.3219 23.1204 17.1805 22.9814C17.0392 22.8424 16.8119 22.8443 16.6729 22.9856C16.4782 23.1844 16.2861 23.3859 16.0968 23.5899C15.9204 23.7799 15.734 23.9859 15.5397 24.205H15.5397ZM18.1326 21.5823C17.9858 21.7159 17.9751 21.9432 18.1087 22.09C18.2422 22.2367 18.4696 22.2474 18.6163 22.1139C18.8104 21.9377 19.0064 21.7635 19.2042 21.5915C19.4021 21.419 19.6021 21.2489 19.8041 21.0812C19.9571 20.9547 19.9785 20.728 19.8519 20.575C19.7253 20.4221 19.4986 20.4007 19.3457 20.5272C19.1389 20.6986 18.9343 20.8724 18.7317 21.0486C18.5301 21.2244 18.3304 21.4023 18.1326 21.5823V21.5823ZM20.9317 19.2904C20.7717 19.4076 20.7371 19.6325 20.8543 19.7924C20.9716 19.9524 21.1964 19.9871 21.3564 19.8698C21.6096 19.6836 21.8657 19.5011 22.1244 19.3226C22.3833 19.1439 22.6446 18.9689 22.9083 18.7974C23.0745 18.6895 23.1217 18.4671 23.0138 18.301C22.9059 18.1348 22.6836 18.0876 22.5174 18.1955C22.248 18.3707 21.981 18.5495 21.7165 18.732C21.4522 18.9142 21.1905 19.1004 20.9317 19.2904V19.2904ZM24.2492 17.1389C24.0768 17.2367 24.0164 17.4558 24.1142 17.6283C24.212 17.8007 24.4312 17.8611 24.6036 17.7633C24.8226 17.6387 25.0496 17.5131 25.2848 17.3866C25.5164 17.2621 25.7459 17.1422 25.9729 17.0275C26.15 16.9382 26.2212 16.7222 26.1318 16.5452C26.0426 16.3681 25.8266 16.297 25.6495 16.3863C25.4129 16.5058 25.1779 16.6283 24.9444 16.7538C24.7112 16.8794 24.4794 17.0077 24.2492 17.1389V17.1389ZM27.4869 15.5322C27.3044 15.6099 27.2193 15.8208 27.297 16.0033C27.3747 16.1858 27.5856 16.2708 27.7681 16.1932C27.9693 16.1073 28.1713 16.0236 28.3743 15.9422C28.5764 15.861 28.7795 15.7821 28.9836 15.7057C29.1691 15.6366 29.2636 15.4301 29.1945 15.2445C29.1254 15.0589 28.9188 14.9645 28.7332 15.0336C28.5236 15.1118 28.3148 15.1924 28.1071 15.2756C27.8994 15.3589 27.6927 15.4444 27.4869 15.5322V15.5322ZM30.6473 14.395C30.457 14.4509 30.3481 14.6505 30.404 14.8408C30.4599 15.031 30.6595 15.14 30.8498 15.084C31.1006 15.0099 31.3524 14.9391 31.6051 14.8717C31.8568 14.8045 32.1096 14.7416 32.3634 14.683C32.5567 14.6387 32.6776 14.446 32.6334 14.2527C32.5891 14.0593 32.3964 13.9384 32.2031 13.9827C31.9418 14.043 31.6814 14.1078 31.4223 14.177C31.1649 14.2455 30.9063 14.3186 30.6473 14.395V14.395ZM34.2038 13.6085C34.0073 13.6372 33.8713 13.8198 33.9001 14.0162C33.9288 14.2127 34.1114 14.3487 34.3078 14.32C34.561 14.2827 34.8147 14.2495 35.0689 14.2204L35.0296 13.8632L35.0704 14.2209C35.0767 14.2202 35.0828 14.2193 35.089 14.2183C35.3369 14.1902 35.5852 14.1662 35.8339 14.1461C36.0319 14.1306 36.1798 13.9574 36.1643 13.7594C36.1488 13.5614 35.9756 13.4135 35.7776 13.429C35.5206 13.4498 35.2639 13.4747 35.0076 13.5038C35.0013 13.5042 34.9951 13.5048 34.9888 13.5055L34.9888 13.506H34.9888V13.5061C34.7266 13.536 34.4649 13.5701 34.2038 13.6084V13.6085ZM37.8123 13.3565C37.6142 13.355 37.4524 13.5143 37.4509 13.7123C37.4494 13.9104 37.6087 14.0722 37.8067 14.0737C37.9921 14.0756 38.1845 14.0807 38.3827 14.0885C38.5642 14.0956 38.7576 14.1061 38.9614 14.1195C39.1595 14.132 39.3301 13.9815 39.3425 13.7834C39.3549 13.5854 39.2045 13.4148 39.0064 13.4024C38.8081 13.3894 38.6095 13.379 38.4109 13.3713C38.2114 13.3634 38.0119 13.3585 37.8123 13.3565V13.3565Z" fill="white"/>
<path d="M11.5222 44.1693C11.9086 44.3048 12.2038 44.5846 12.3685 44.9273C12.5328 45.2689 12.5668 45.6729 12.4317 46.0581L11.9798 45.9006L12.0221 45.9155L12.4317 46.0582L12.4314 46.0589L12.4328 46.0594C12.4277 46.0742 12.4218 46.0885 12.4154 46.1024C12.2746 46.467 12.0033 46.7461 11.6738 46.9044C11.3322 47.0687 10.9283 47.1028 10.5431 46.9677L10.7006 46.5158L10.6725 46.596L10.5429 46.9676L10.5422 46.9674L10.5418 46.9687C10.5272 46.9637 10.513 46.9579 10.499 46.9514C10.1342 46.8107 9.85509 46.5393 9.69663 46.2097C9.53241 45.8682 9.49833 45.4642 9.63339 45.0789L10.0853 45.2364L10.0447 45.2222L9.63342 45.0789L9.63372 45.0781L9.63228 45.0776C9.6375 45.0628 9.64335 45.0484 9.6498 45.0345C9.79068 44.6699 10.0619 44.3909 10.3913 44.2326C10.733 44.0683 11.137 44.0343 11.5222 44.1693V44.1693Z" fill="white"/>
<path d="M13.7113 46.9626C14.0976 47.0981 14.3928 47.3778 14.5576 47.7205C14.7218 48.0622 14.7558 48.4662 14.6208 48.8514C14.4853 49.2377 14.2056 49.5329 13.8629 49.6977C13.5213 49.8619 13.1173 49.896 12.732 49.761C12.3457 49.6255 12.0504 49.3457 11.8857 49.003C11.7215 48.6614 11.6874 48.2574 11.8224 47.8722C11.9579 47.4858 12.2376 47.1906 12.5804 47.0258C12.922 46.8616 13.326 46.8276 13.7113 46.9626V46.9626Z" fill="#2992CE"/>
<path d="M16.8223 49.1968C17.1865 49.3377 17.4652 49.6088 17.6234 49.938C17.7877 50.2797 17.8217 50.6837 17.6867 51.0689C17.5512 51.4552 17.2715 51.7505 16.9288 51.9152C16.5872 52.0795 16.1832 52.1135 15.7979 51.9785C15.4115 51.843 15.1163 51.5633 14.9516 51.2206C14.7935 50.8918 14.7561 50.5052 14.8739 50.1331C14.8814 50.1023 14.8919 50.0727 14.905 50.0444C15.0459 49.6803 15.317 49.4017 15.6463 49.2433C15.9752 49.0852 16.3618 49.0477 16.734 49.1657C16.7647 49.1732 16.7943 49.1837 16.8223 49.1968V49.1968Z" fill="white"/>
<path d="M19.9725 50.7425C20.0033 50.7501 20.033 50.7605 20.0611 50.7737C20.4252 50.9146 20.7038 51.1857 20.8621 51.5149C21.0201 51.8437 21.0577 52.2304 20.9397 52.6026C20.9322 52.633 20.9218 52.6626 20.9086 52.6909C20.7676 53.0552 20.4965 53.3338 20.1674 53.4921C19.8386 53.6502 19.452 53.6875 19.08 53.5697C19.0491 53.5622 19.0195 53.5517 18.9913 53.5386C18.6271 53.3977 18.3485 53.1265 18.1902 52.7973C18.0321 52.4684 17.9946 52.0817 18.1126 51.7097C18.1201 51.6789 18.1306 51.6493 18.1437 51.6212C18.2847 51.2571 18.5558 50.9784 18.8849 50.8202C19.2137 50.6621 19.6004 50.6246 19.9725 50.7425V50.7425Z" fill="#2992CE"/>
<path d="M23.4858 51.6109C23.5166 51.6184 23.5462 51.6289 23.5743 51.642C23.9383 51.7829 24.217 52.054 24.3752 52.3832C24.5333 52.712 24.5708 53.0987 24.4528 53.4709C24.4453 53.5016 24.4348 53.5312 24.4217 53.5593C24.2809 53.9235 24.0097 54.2021 23.6805 54.3603C23.3389 54.5246 22.9349 54.5586 22.5498 54.4236L22.7073 53.9717L22.6932 54.0118L22.5497 54.4236L22.5489 54.4233L22.5484 54.4247C22.534 54.4196 22.5198 54.4138 22.5058 54.4074C22.141 54.2666 21.8618 53.9953 21.7033 53.6656C21.5391 53.324 21.5051 52.92 21.6402 52.5348C21.7756 52.1484 22.0554 51.8532 22.3981 51.6885C22.7269 51.5304 23.1137 51.4929 23.4859 51.6109H23.4858Z" fill="white"/>
<path d="M27.31 51.6534C27.6742 51.7943 27.9528 52.0654 28.1111 52.3946C28.2753 52.7362 28.3094 53.1402 28.1743 53.5255C28.0388 53.9118 27.7591 54.207 27.4164 54.3718C27.0748 54.536 26.6708 54.57 26.2856 54.435C25.8992 54.2995 25.604 54.0197 25.4393 53.677C25.2811 53.3482 25.2438 52.9617 25.3616 52.5896C25.3691 52.5588 25.3796 52.5292 25.3927 52.501C25.5336 52.1368 25.8048 51.8582 26.1339 51.6999C26.4628 51.5418 26.8495 51.5043 27.2217 51.6223C27.2524 51.6298 27.282 51.6403 27.31 51.6534V51.6534Z" fill="#2992CE"/>
<path d="M30.7502 50.2875C31.1365 50.423 31.4317 50.7027 31.5965 51.0454C31.7607 51.387 31.7947 51.791 31.6597 52.1763C31.5242 52.5626 31.2445 52.8578 30.9018 53.0226C30.573 53.1807 30.1864 53.2181 29.8144 53.1003C29.7838 53.0928 29.7541 53.0824 29.7257 53.0691C29.3615 52.9283 29.0829 52.6571 28.9246 52.3279C28.7665 51.999 28.729 51.6123 28.847 51.2402C28.8545 51.2095 28.865 51.1799 28.8781 51.1518C29.019 50.7876 29.2901 50.5089 29.6193 50.3507C29.9609 50.1864 30.3649 50.1524 30.7502 50.2875V50.2875Z" fill="white"/>
<path d="M33.7157 48.4198C34.0798 48.5606 34.3585 48.8318 34.5167 49.161C34.681 49.5026 34.715 49.9065 34.58 50.2917L34.1281 50.1342L34.1682 50.1483L34.5799 50.2918L34.5796 50.2926L34.581 50.2931C34.5759 50.3076 34.5701 50.3219 34.5638 50.3357C34.423 50.7005 34.1516 50.9797 33.822 51.1381C33.4804 51.3024 33.0764 51.3364 32.6912 51.2013C32.3048 51.0659 32.0096 50.7861 31.8449 50.4434C31.6868 50.1147 31.6494 49.7281 31.7672 49.356C31.7747 49.3252 31.7852 49.2955 31.7983 49.2673C31.9392 48.9032 32.2103 48.6245 32.5395 48.4662C32.8683 48.3081 33.2549 48.2707 33.6269 48.3886C33.6578 48.3961 33.6875 48.4066 33.7157 48.4198V48.4198ZM37.3445 12.4235C37.7087 12.5645 37.9873 12.8356 38.1455 13.1647C38.3036 13.4935 38.3411 13.8801 38.2232 14.2522C38.2158 14.2827 38.2053 14.3124 38.1921 14.3409C38.0512 14.705 37.7801 14.9837 37.4509 15.1419C37.1222 15.3 36.7356 15.3374 36.3636 15.2196C36.3327 15.2121 36.303 15.2016 36.2748 15.1885C35.9107 15.0476 35.632 14.7765 35.4737 14.4473C35.3156 14.1184 35.2781 13.7318 35.396 13.3597C35.4035 13.3289 35.414 13.2993 35.4272 13.2711C35.5681 12.907 35.8392 12.6283 36.1684 12.4701C36.4973 12.312 36.884 12.2745 37.2561 12.3924C37.2868 12.3999 37.3164 12.4104 37.3445 12.4235V12.4235Z" fill="#2992CE"/>
<path d="M33.753 12.7177L33.7538 12.718L33.7543 12.7166C33.769 12.7217 33.7833 12.7275 33.7971 12.734C34.1619 12.8747 34.4408 13.1461 34.5993 13.4756C34.7635 13.8171 34.7975 14.2211 34.6625 14.6063L34.2106 14.4488L34.2908 14.4769L34.6624 14.6065L34.6622 14.6071L34.6636 14.6076C34.6585 14.6221 34.6527 14.6364 34.6462 14.6504C34.5055 15.0152 34.2341 15.2943 33.9045 15.4527C33.563 15.617 33.159 15.651 32.7738 15.5159L32.9313 15.0641L32.9172 15.1042L32.7737 15.5159L32.773 15.5156L32.7725 15.517C32.758 15.512 32.7438 15.5062 32.7299 15.4998C32.365 15.359 32.0859 15.0876 31.9274 14.758C31.7631 14.4164 31.7292 14.0124 31.8642 13.6272C31.9996 13.2408 32.2794 12.9456 32.6221 12.7808C32.9637 12.6166 33.3677 12.5825 33.753 12.7176L33.5955 13.1695L33.609 13.1309L33.753 12.7177V12.7177Z" fill="white"/>
<path d="M30.2541 13.5385C30.6404 13.674 30.9356 13.9537 31.1004 14.2965C31.2584 14.6252 31.2959 15.0118 31.178 15.3839C31.1705 15.4148 31.16 15.4445 31.1469 15.4727C31.006 15.8367 30.7348 16.1153 30.4057 16.2736C30.0768 16.4317 29.6901 16.4692 29.318 16.3512C29.2872 16.3437 29.2576 16.3332 29.2295 16.3201C28.8654 16.1793 28.5867 15.9081 28.4285 15.5789C28.2642 15.2373 28.2302 14.8333 28.3653 14.4481L28.8171 14.6056L28.7771 14.5916L28.3653 14.4481L28.3656 14.4473L28.3642 14.4468C28.3693 14.4322 28.3751 14.418 28.3815 14.4042C28.5222 14.0394 28.7936 13.7602 29.1232 13.6017C29.4648 13.4375 29.8688 13.4035 30.2541 13.5385V13.5385Z" fill="#2992CE"/>
<path d="M27.1802 14.824C27.5665 14.9595 27.8617 15.2392 28.0265 15.5819C28.1907 15.9236 28.2247 16.3276 28.0897 16.7128C27.9542 17.0991 27.6745 17.3943 27.3318 17.5591C27.003 17.7171 26.6164 17.7546 26.2443 17.6368C26.2138 17.6293 26.1841 17.6189 26.1557 17.6056C25.7915 17.4648 25.5129 17.1936 25.3546 16.8644C25.1965 16.5355 25.159 16.1488 25.277 15.7767C25.2845 15.746 25.295 15.7164 25.308 15.6884C25.449 15.3242 25.7201 15.0455 26.0493 14.8872C26.3909 14.723 26.7949 14.689 27.1802 14.824V14.824Z" fill="white"/>
<path d="M24.0683 16.5893C24.4546 16.7248 24.7498 17.0045 24.9146 17.3473C25.0788 17.6889 25.1128 18.0928 24.9778 18.4781C24.8424 18.8644 24.5626 19.1597 24.2199 19.3244C23.8783 19.4887 23.4743 19.5227 23.089 19.3877C22.7027 19.2522 22.4075 18.9725 22.2427 18.6297C22.0785 18.2881 22.0444 17.8841 22.1795 17.4989C22.315 17.1125 22.5947 16.8173 22.9374 16.6526C23.279 16.4883 23.683 16.4543 24.0683 16.5893Z" fill="#2992CE"/>
<path d="M20.7676 18.6885C21.154 18.824 21.4492 19.1038 21.6139 19.4465C21.7782 19.7881 21.8122 20.1921 21.6772 20.5773C21.5417 20.9637 21.262 21.2589 20.9192 21.4236C20.5776 21.5879 20.1736 21.6219 19.7884 21.4868C19.402 21.3514 19.1069 21.0716 18.9421 20.7289C18.7778 20.3874 18.7438 19.9834 18.8788 19.5981C19.0143 19.2117 19.294 18.9165 19.6368 18.7518C19.9784 18.5875 20.3824 18.5535 20.7676 18.6885Z" fill="white"/>
<path d="M18.2243 21.1996C18.5884 21.3405 18.8671 21.6116 19.0254 21.9408C19.1896 22.2825 19.2237 22.6864 19.0886 23.0717C18.9532 23.4581 18.6734 23.7533 18.3307 23.918C18.002 24.0761 17.6154 24.1135 17.2433 23.9957C17.2125 23.9882 17.1828 23.9777 17.1546 23.9646C16.7904 23.8237 16.5118 23.5525 16.3535 23.2234C16.1954 22.8945 16.1579 22.5079 16.2759 22.1358C16.2834 22.105 16.2939 22.0754 16.307 22.0472C16.4479 21.6831 16.719 21.4044 17.0482 21.2462C17.3771 21.088 17.7638 21.0505 18.1359 21.1685C18.1666 21.176 18.1962 21.1865 18.2243 21.1996V21.1996Z" fill="#2992CE"/>
<path d="M15.6347 23.7717C15.9989 23.9126 16.2776 24.1837 16.4358 24.5129C16.5939 24.8417 16.6313 25.2284 16.5134 25.6005C16.5059 25.6312 16.4954 25.6609 16.4823 25.689C16.3414 26.0532 16.0702 26.3318 15.7411 26.4901C15.4122 26.6481 15.0254 26.6857 14.6534 26.5677C14.6226 26.5602 14.5931 26.5497 14.565 26.5366C14.2008 26.3957 13.9222 26.1245 13.7639 25.7954C13.6058 25.4666 13.5684 25.08 13.6862 24.7079C13.6937 24.6771 13.7042 24.6475 13.7173 24.6193C13.8582 24.2551 14.1294 23.9765 14.4585 23.8182C14.7875 23.66 15.1742 23.6226 15.5463 23.7406C15.577 23.7482 15.6066 23.7586 15.6347 23.7717V23.7717Z" fill="white"/>
<path d="M13.5845 26.5838C13.9709 26.7194 14.2661 26.999 14.4308 27.3418C14.595 27.6834 14.6291 28.0874 14.494 28.4727C14.3586 28.8589 14.0788 29.1542 13.7361 29.319C13.3945 29.4832 12.9905 29.5172 12.6053 29.3821C12.2189 29.2467 11.9237 28.9669 11.759 28.6242C11.5947 28.2827 11.5607 27.8787 11.6957 27.4934C11.8312 27.107 12.1109 26.8118 12.4536 26.6471C12.7953 26.4828 13.1993 26.4488 13.5845 26.5838Z" fill="#2992CE"/>
<path d="M11.7219 29.7482C12.1082 29.8836 12.4034 30.1634 12.5682 30.5061C12.7263 30.8349 12.7637 31.2215 12.6458 31.5936C12.6383 31.6244 12.6278 31.6541 12.6147 31.6823C12.4738 32.0464 12.2027 32.3251 11.8735 32.4833C11.5448 32.6414 11.1582 32.6788 10.7862 32.561C10.7553 32.5535 10.7256 32.543 10.6974 32.5298C10.3333 32.3889 10.0546 32.1178 9.8963 31.7886C9.73823 31.4598 9.7007 31.073 9.81872 30.701C9.82622 30.6702 9.83666 30.6407 9.84977 30.6126C9.99074 30.2484 10.2618 29.9697 10.591 29.8114C10.9326 29.6472 11.3366 29.6132 11.7219 29.7482V29.7482Z" fill="white"/>
<path d="M10.4208 33.396C10.4515 33.4036 10.4811 33.414 10.5092 33.4271C10.8733 33.5681 11.152 33.8392 11.3102 34.1683C11.4683 34.4972 11.5058 34.8839 11.3878 35.256C11.3804 35.2864 11.37 35.316 11.3567 35.3444C11.2157 35.7086 10.9447 35.9872 10.6155 36.1455C10.2867 36.3036 9.90012 36.341 9.52809 36.2232C9.49728 36.2157 9.46761 36.2052 9.43941 36.192C9.07527 36.0511 8.79666 35.78 8.63835 35.4508C8.48025 35.1219 8.44275 34.7352 8.56074 34.3631C8.56824 34.3324 8.57874 34.3028 8.59182 34.2747C8.7327 33.9105 9.00387 33.6319 9.33303 33.4736C9.66189 33.3155 10.0486 33.278 10.4208 33.396V33.396Z" fill="#2992CE"/>
<path d="M10.0064 36.9378C10.3927 37.0733 10.6879 37.353 10.8527 37.6958C11.0169 38.0373 11.0509 38.4413 10.9159 38.8266C10.7805 39.2129 10.5007 39.5081 10.158 39.6729C9.81641 39.8371 9.41243 39.8712 9.02714 39.7361C8.64077 39.6006 8.34557 39.3209 8.18084 38.9782C8.01656 38.6366 7.98254 38.2326 8.1176 37.8473C8.25311 37.461 8.53283 37.1658 8.87552 37.001C9.21713 36.8367 9.62114 36.8027 10.0064 36.9378ZM40.4732 12.4559C40.8596 12.5913 41.1547 12.8711 41.3195 13.2138C41.4837 13.5554 41.5178 13.9594 41.3827 14.3447C41.2472 14.731 40.9675 15.0262 40.6248 15.191C40.296 15.3491 39.9094 15.3865 39.5374 15.2686C39.5066 15.2611 39.4769 15.2506 39.4487 15.2375C39.0846 15.0966 38.8059 14.8255 38.6476 14.4963C38.4895 14.1675 38.4521 13.7809 38.5699 13.4089C38.5774 13.378 38.5879 13.3484 38.6011 13.3202C38.742 12.956 39.0131 12.6774 39.3424 12.5191C39.6839 12.3548 40.088 12.3208 40.4732 12.4559V12.4559Z" fill="white"/>
<path d="M38.7233 42.5849C39.1097 42.7204 39.4048 43.0002 39.5696 43.3429C39.7277 43.6717 39.7651 44.0582 39.6472 44.4303C39.6398 44.4608 39.6294 44.4905 39.6161 44.519C39.4752 44.8831 39.2042 45.1618 38.8749 45.32C38.5462 45.4781 38.1596 45.5156 37.7877 45.3978C37.7568 45.3903 37.727 45.3798 37.6988 45.3666C37.3347 45.2257 37.056 44.9546 36.8977 44.6254C36.7396 44.2964 36.7021 43.9097 36.8201 43.5376C36.8276 43.5069 36.8381 43.4774 36.8512 43.4493C36.9922 43.0851 37.2632 42.8064 37.5924 42.6481C37.934 42.4839 38.338 42.4499 38.7233 42.5849V42.5849Z" fill="#2992CE"/>
<path d="M40.4167 39.5692C40.8031 39.7047 41.0982 39.9844 41.263 40.3271C41.4211 40.6559 41.4585 41.0425 41.3406 41.4145C41.3332 41.4451 41.3228 41.4748 41.3095 41.5032C41.1687 41.8674 40.8975 42.146 40.5683 42.3043C40.2394 42.4624 39.8528 42.4999 39.4806 42.3819C39.4498 42.3744 39.4203 42.3639 39.3921 42.3508C39.028 42.2099 38.7493 41.9388 38.5911 41.6096C38.4269 41.268 38.3928 40.864 38.5279 40.4788L38.9798 40.6363L38.9397 40.6222L38.5279 40.4787L38.5282 40.478L38.5268 40.4775C38.5319 40.4629 38.5377 40.4486 38.5441 40.4349C38.6848 40.07 38.9562 39.7908 39.2858 39.6324C39.6274 39.4681 40.0314 39.4341 40.4167 39.5692V39.5692Z" fill="white"/>
<path d="M41.9303 36.4379C42.3167 36.5734 42.6118 36.8531 42.7766 37.1958C42.9409 37.5374 42.9748 37.9414 42.8398 38.3267C42.7043 38.713 42.4246 39.0082 42.0819 39.173C41.7531 39.3311 41.3665 39.3685 40.9945 39.2506C40.9637 39.2431 40.934 39.2326 40.9058 39.2195C40.5417 39.0786 40.263 38.8075 40.1047 38.4783C39.9466 38.1495 39.9092 37.763 40.027 37.3909C40.0345 37.3601 40.045 37.3304 40.0582 37.3022C40.1991 36.938 40.4702 36.6594 40.7995 36.5011C41.141 36.3368 41.545 36.3029 41.9303 36.4379V36.4379Z" fill="#2992CE"/>
<path d="M43.2704 32.9863C43.6568 33.1219 43.952 33.4016 44.1167 33.7443C44.281 34.0859 44.315 34.4899 44.18 34.8751C44.0445 35.2615 43.7648 35.5566 43.422 35.7214C43.0804 35.8857 42.6764 35.9197 42.2912 35.7846C41.9048 35.6492 41.6097 35.3694 41.4449 35.0267C41.2807 34.6851 41.2466 34.2812 41.3816 33.8959C41.5171 33.5095 41.7968 33.2143 42.1396 33.0496C42.4812 32.8853 42.8852 32.8513 43.2704 32.9863Z" fill="white"/>
<path d="M44.257 29.7753C44.2878 29.7828 44.3173 29.7932 44.3454 29.8064C44.7096 29.9473 44.9882 30.2184 45.1464 30.5476C45.3045 30.8764 45.342 31.2631 45.224 31.6353C45.2165 31.666 45.206 31.6956 45.1929 31.7237C45.0521 32.0879 44.781 32.3665 44.4517 32.5247C44.1101 32.689 43.7062 32.7231 43.321 32.588L43.4785 32.1361L43.4644 32.1762L43.3209 32.588L43.3202 32.5877L43.3197 32.5891C43.3052 32.584 43.291 32.5782 43.2771 32.5718C42.9122 32.431 42.633 32.1596 42.4746 31.83C42.3103 31.4884 42.2763 31.0844 42.4114 30.6992C42.5468 30.3128 42.8266 30.0176 43.1693 29.8529C43.4982 29.6947 43.8849 29.6573 44.2571 29.7753H44.257Z" fill="#2992CE"/>
<path d="M45.1387 26.4348C45.5251 26.5703 45.8203 26.85 45.985 27.1928C46.1493 27.5343 46.1833 27.9383 46.0483 28.3236C45.9128 28.7099 45.6331 29.0052 45.2904 29.1699C44.9488 29.3341 44.5447 29.3682 44.1595 29.2332C43.7731 29.0976 43.4779 28.818 43.3132 28.4752C43.1489 28.1336 43.1149 27.7296 43.25 27.3444C43.3855 26.958 43.6652 26.6628 44.0079 26.4981C44.3495 26.3337 44.7535 26.2998 45.1387 26.4348Z" fill="white"/>
<path d="M45.9411 23.1073C46.3052 23.2482 46.5838 23.5193 46.7421 23.8485C46.9064 24.1901 46.9405 24.5941 46.8054 24.9794C46.6699 25.3657 46.3902 25.6609 46.0475 25.8257C45.7059 25.99 45.3018 26.0239 44.9166 25.8889C44.5302 25.7534 44.235 25.4737 44.0703 25.131C43.9122 24.8022 43.8748 24.4156 43.9926 24.0436C44.0001 24.0127 44.0106 23.9831 44.0238 23.9549C44.1647 23.5907 44.4358 23.3121 44.765 23.1538C45.0939 22.9957 45.4806 22.9582 45.8527 23.0762C45.8834 23.0837 45.913 23.0942 45.9411 23.1073V23.1073Z" fill="#2992CE"/>
<path d="M46.2082 19.617C46.2391 19.6246 46.2687 19.635 46.2969 19.6482C46.661 19.7891 46.9397 20.0602 47.0979 20.3894C47.256 20.7183 47.2935 21.1049 47.1755 21.4771C47.1681 21.5075 47.1577 21.5371 47.1445 21.5655C47.0035 21.9297 46.7324 22.2083 46.4033 22.3666C46.0616 22.5309 45.6576 22.5648 45.2724 22.4298C44.886 22.2943 44.5908 22.0146 44.4261 21.6719C44.2619 21.3303 44.2278 20.9263 44.3628 20.541C44.4983 20.1546 44.7781 19.8595 45.1208 19.6947C45.4496 19.5366 45.8362 19.4992 46.2082 19.617V19.617ZM36.4951 45.735C36.8815 45.8705 37.1767 46.1502 37.3414 46.4929C37.5057 46.8345 37.5397 47.2386 37.4047 47.6238C37.2692 48.0101 36.9894 48.3053 36.6468 48.4701C36.3051 48.6343 35.9012 48.6684 35.5159 48.5334C35.1295 48.3979 34.8344 48.1181 34.6696 47.7754C34.5054 47.4339 34.4713 47.0298 34.6063 46.6446C34.7418 46.2582 35.0215 45.963 35.3643 45.7983C35.7059 45.6339 36.1099 45.6 36.4951 45.735V45.735Z" fill="white"/>
<path d="M10.1894 40.6378C10.5757 40.7732 10.8709 41.053 11.0357 41.3957C11.1999 41.7373 11.2339 42.1413 11.0989 42.5266C10.9634 42.9129 10.6837 43.2081 10.341 43.3729C9.99934 43.5371 9.59536 43.5711 9.21013 43.4361C8.82373 43.3006 8.52859 43.0209 8.36383 42.6782C8.19958 42.3366 8.1655 41.9327 8.30056 41.5473C8.43607 41.161 8.71576 40.8658 9.05851 40.701C9.40012 40.5367 9.80413 40.5027 10.1894 40.6378Z" fill="#2992CE"/>
<path d="M45.9719 13.2788C45.5826 13.6371 45.5574 14.2433 45.9157 14.6326C46.274 15.0219 46.8801 15.0471 47.2694 14.6889L49.364 12.7623C49.7534 12.404 49.7786 11.7978 49.4203 11.4085C49.0621 11.0191 48.4559 10.994 48.0666 11.3522L45.9719 13.2788Z" fill="white"/>
<path d="M44.8996 14.922C44.705 15.1011 44.6924 15.4042 44.8715 15.5988C45.0506 15.7935 45.3537 15.8061 45.5484 15.627L48.4412 12.9661C48.6359 12.787 48.6484 12.484 48.4693 12.2893C48.2902 12.0946 47.9871 12.0821 47.7925 12.2612L44.8996 14.922V14.922Z" fill="white"/>
<path d="M48.3374 11.3861C48.0438 11.6517 48.0212 12.105 48.2868 12.3986C48.5524 12.6921 49.0057 12.7148 49.2993 12.4492L50.2923 11.5485C50.5859 11.2829 50.6085 10.8296 50.343 10.536C50.0773 10.2425 49.624 10.2198 49.3305 10.4854L48.3374 11.3861Z" fill="white"/>
<path d="M49.5907 10.5707C49.3971 10.7498 49.3854 11.0521 49.5645 11.2457C49.7436 11.4393 50.0458 11.4511 50.2395 11.272L52.3484 9.31944C52.542 9.14034 52.5537 8.83809 52.3746 8.6445C52.1955 8.45088 51.8933 8.43912 51.6997 8.61822L49.5907 10.5707V10.5707Z" fill="white"/>
<path d="M52.7394 6.9229C53.1165 6.93859 53.4509 7.10509 53.6865 7.36135C53.9223 7.61773 54.0604 7.96405 54.0447 8.33956C54.0289 8.7166 53.8625 9.05104 53.6063 9.28675C53.3499 9.52255 53.0036 9.66055 52.6281 9.64492C52.251 9.62914 51.9166 9.4627 51.6809 9.20647C51.4451 8.95006 51.3071 8.60371 51.3227 8.22829C51.3385 7.85119 51.505 7.51675 51.7612 7.2811C52.0175 7.0453 52.3639 6.90724 52.7394 6.9229V6.9229Z" fill="white"/>
</svg>
