<svg width="24" height="24" viewBox="0 0 24 24" fill="none" xmlns="http://www.w3.org/2000/svg">
<path d="M15.5 6H13V4C13 3.73478 12.8946 3.48043 12.7071 3.29289C12.5196 3.10536 12.2652 3 12 3C11.7348 3 11.4804 3.10536 11.2929 3.29289C11.1054 3.48043 11 3.73478 11 4V6H8.5C6.51088 6 4.60322 6.79018 3.1967 8.1967C1.79018 9.60322 1 11.5109 1 13.5C1 15.4891 1.79018 17.3968 3.1967 18.8033C4.60322 20.2098 6.51088 21 8.5 21H15.5C17.4891 21 19.3968 20.2098 20.8033 18.8033C22.2098 17.3968 23 15.4891 23 13.5C23 11.5109 22.2098 9.60322 20.8033 8.1967C19.3968 6.79018 17.4891 6 15.5 6V6ZM15.5 19H8.5C7.04131 19 5.64236 18.4205 4.61091 17.3891C3.57946 16.3576 3 14.9587 3 13.5C3 12.0413 3.57946 10.6424 4.61091 9.61091C5.64236 8.57946 7.04131 8 8.5 8H15.5C16.9587 8 18.3576 8.57946 19.3891 9.61091C20.4205 10.6424 21 12.0413 21 13.5C21 14.9587 20.4205 16.3576 19.3891 17.3891C18.3576 18.4205 16.9587 19 15.5 19V19ZM11 13.5C11 13.7652 10.8946 14.0196 10.7071 14.2071C10.5196 14.3946 10.2652 14.5 10 14.5H9V15.5C9 15.7652 8.89464 16.0196 8.70711 16.2071C8.51957 16.3946 8.26522 16.5 8 16.5C7.73478 16.5 7.48043 16.3946 7.29289 16.2071C7.10536 16.0196 7 15.7652 7 15.5V14.5H6C5.73478 14.5 5.48043 14.3946 5.29289 14.2071C5.10536 14.0196 5 13.7652 5 13.5C5 13.2348 5.10536 12.9804 5.29289 12.7929C5.48043 12.6054 5.73478 12.5 6 12.5H7V11.5C7 11.2348 7.10536 10.9804 7.29289 10.7929C7.48043 10.6054 7.73478 10.5 8 10.5C8.26522 10.5 8.51957 10.6054 8.70711 10.7929C8.89464 10.9804 9 11.2348 9 11.5V12.5H10C10.2652 12.5 10.5196 12.6054 10.7071 12.7929C10.8946 12.9804 11 13.2348 11 13.5ZM19 12C19 12.1978 18.9414 12.3911 18.8315 12.5556C18.7216 12.72 18.5654 12.8482 18.3827 12.9239C18.2 12.9996 17.9989 13.0194 17.8049 12.9808C17.6109 12.9422 17.4327 12.847 17.2929 12.7071C17.153 12.5673 17.0578 12.3891 17.0192 12.1951C16.9806 12.0011 17.0004 11.8 17.0761 11.6173C17.1518 11.4346 17.28 11.2784 17.4444 11.1685C17.6089 11.0586 17.8022 11 18 11C18.2652 11 18.5196 11.1054 18.7071 11.2929C18.8946 11.4804 19 11.7348 19 12ZM17 15C17 15.1978 16.9414 15.3911 16.8315 15.5556C16.7216 15.72 16.5654 15.8482 16.3827 15.9239C16.2 15.9996 15.9989 16.0194 15.8049 15.9808C15.6109 15.9422 15.4327 15.847 15.2929 15.7071C15.153 15.5673 15.0578 15.3891 15.0192 15.1951C14.9806 15.0011 15.0004 14.8 15.0761 14.6173C15.1518 14.4346 15.28 14.2784 15.4444 14.1685C15.6089 14.0586 15.8022 14 16 14C16.2652 14 16.5196 14.1054 16.7071 14.2929C16.8946 14.4804 17 14.7348 17 15Z" fill="#2992CE"/>
</svg>
