<svg width="64" height="64" viewBox="0 0 64 64" fill="none" xmlns="http://www.w3.org/2000/svg">
<g opacity="0.997">
<path fill-rule="evenodd" clip-rule="evenodd" d="M15.943 15.9429H48.057V48.057H15.943V15.9429ZM17.1084 17.1084V46.8916H46.8916V17.1084H17.1084Z" fill="#2992CE"/>
<path fill-rule="evenodd" clip-rule="evenodd" d="M32 9.31479L54.6852 32L32 54.6852L9.31481 32L32 9.31479ZM32 12.8009L12.8009 32L32 51.1991L51.1991 32L32 12.8009Z" fill="#2992CE"/>
<path fill-rule="evenodd" clip-rule="evenodd" d="M32 0L40.3932 8.39315H55.6068V23.6068L64 32L55.6068 40.3932V55.6068H40.3932L32 64L23.6068 55.6068H8.39317V40.3932L0 32L8.39317 23.6068V8.39315H23.6068L32 0ZM32 2.42308L24.3165 10.1065H10.1066V24.3165L2.42309 32L10.1066 39.6835V53.8934H24.3165L32 61.5769L39.6835 53.8934H53.8935V39.6835L61.5769 32L53.8935 24.3165V10.1065H39.6835L32 2.42308Z" fill="#2992CE"/>
<path d="M24.8655 32L19.3976 26.5321V37.4678L24.8655 32Z" fill="#2992CE"/>
<path d="M39.1345 32L44.6024 26.5321V37.4678L39.1345 32Z" fill="#2992CE"/>
<path d="M32 39.1345L37.4678 44.6024H26.5322L32 39.1345Z" fill="#2992CE"/>
<path d="M32 24.8654L37.4678 19.3976H26.5322L32 24.8654Z" fill="#2992CE"/>
<path d="M38.4317 38.4316L33.6006 34.7723L34.3542 40.7858L32 35.2012L29.6459 40.7858L30.3994 34.7723L25.5683 38.4316L29.2277 33.6006L23.2142 34.3541L28.7988 32L23.2142 29.6458L29.2277 30.3994L25.5683 25.5683L30.3994 29.2276L29.6459 23.2141L32 28.7987L34.3542 23.2141L33.6006 29.2276L38.4317 25.5683L34.7724 30.3994L40.7859 29.6458L35.2013 32L40.7859 34.3541L34.7724 33.6006L38.4317 38.4316Z" fill="#2992CE"/>
</g>
</svg>
