<svg width="136" height="87" viewBox="0 0 136 87" fill="none" xmlns="http://www.w3.org/2000/svg">
<path d="M6.9282 4.78467L18.9282 11.7129L6.9282 18.6411L6.9282 4.78467Z" fill="#2992CE"/>
<path d="M32.9282 59.7847L44.9282 66.7129L32.9282 73.6411L32.9282 59.7847Z" fill="#2992CE"/>
<path d="M43.5449 9.39825L59.8367 18.8043L43.5449 28.2104L43.5449 9.39825Z" fill="#2992CE"/>
<path d="M58.4061 68.2152L65.5374 72.3324L58.4061 76.4497L58.4061 68.2152Z" fill="#2992CE"/>
<path d="M93.6681 2.70213L98.3484 20.169L80.8815 15.4888L93.6681 2.70213Z" fill="#2992CE"/>
<path d="M98.5874 64.1083L100.88 72.6647L92.3237 70.3721L98.5874 64.1083Z" fill="#2992CE"/>
<path d="M117.932 78.2305L119.12 82.6647L114.686 81.4766L117.932 78.2305Z" fill="#2992CE"/>
<path d="M114.839 9.32454L127.58 17.5727L114.066 24.4826L114.839 9.32454Z" fill="#2992CE"/>
<path d="M71 9.78467L71.8262 14.2418L75.1145 11.1215L73.1631 15.2131L77.6574 14.6215L73.6738 16.7847L77.6574 18.9478L73.1631 18.3563L75.1145 22.4478L71.8262 19.3276L71 23.7847L70.1738 19.3276L66.8855 22.4478L68.8369 18.3563L64.3426 18.9478L68.3262 16.7847L64.3426 14.6215L68.8369 15.2131L66.8855 11.1215L70.1738 14.2418L71 9.78467Z" fill="#2992CE"/>
<path d="M81 72.7847L81.8262 77.2418L85.1145 74.1215L83.1631 78.2131L87.6574 77.6215L83.6738 79.7847L87.6574 81.9478L83.1631 81.3563L85.1145 85.4478L81.8262 82.3276L81 86.7847L80.1738 82.3276L76.8855 85.4478L78.8369 81.3563L74.3426 81.9478L78.3262 79.7847L74.3426 77.6215L78.8369 78.2131L76.8855 74.1215L80.1738 77.2418L81 72.7847Z" fill="#2992CE"/>
<path d="M129 65.7847L129.826 70.2418L133.114 67.1215L131.163 71.2131L135.657 70.6215L131.674 72.7847L135.657 74.9478L131.163 74.3563L133.114 78.4478L129.826 75.3276L129 79.7847L128.174 75.3276L124.886 78.4478L126.837 74.3563L122.343 74.9478L126.326 72.7847L122.343 70.6215L126.837 71.2131L124.886 67.1215L128.174 70.2418L129 65.7847Z" fill="#2992CE"/>
</svg>
