<svg width="62" height="62" viewBox="0 0 62 62" fill="none" xmlns="http://www.w3.org/2000/svg">
<path fill-rule="evenodd" clip-rule="evenodd" d="M16.9036 10.0056H45.7037V51.2857H15.9437V10.0056H16.9037H16.9036ZM27.752 36.3156C27.6183 36.0553 27.5075 35.7873 27.4293 35.5142C27.3503 35.6596 27.2368 35.7813 27.0997 35.8667V37.4713H27.1192L27.4456 36.8756L27.4447 36.8751L27.7328 36.3489C27.739 36.3376 27.7454 36.3265 27.752 36.3156V36.3156ZM27.5517 33.5227C27.8658 32.844 28.432 32.3243 29.0258 31.8894C29.3139 31.6783 29.6138 31.4853 29.9143 31.2926C30.1156 31.1635 31.0885 30.5581 31.128 30.3218C31.1376 30.2054 31.1377 30.2316 31.1563 30.1594L31.1603 30.1441L31.1693 30.1152L31.1768 30.093C31.207 29.9997 31.2533 29.9125 31.3138 29.8354L31.3188 29.7468C31.2018 29.6364 31.1086 29.5032 31.045 29.3555C30.9813 29.2078 30.9485 29.0486 30.9486 28.8877C30.9486 28.6778 31.0051 28.4718 31.1111 28.2908C31.2171 28.1096 31.3693 27.96 31.5523 27.8572C31.6464 27.8044 31.7507 27.7723 31.8583 27.7631C31.9658 27.754 32.074 27.7679 32.1757 27.8041C32.7019 27.991 33.51 28.749 33.1939 29.4023C33.1018 29.5923 32.9605 29.7541 32.7846 29.8709C32.8236 29.9263 32.8566 29.9856 32.8832 30.0478L32.889 30.0612L32.9 30.0906L32.9031 30.1001L32.9075 30.1129L32.915 30.1371L32.9165 30.142C32.9458 30.2431 32.941 30.2195 32.9495 30.3214C32.9886 30.5576 33.9621 31.1636 34.1633 31.2926C34.4637 31.4853 34.7636 31.6784 35.0517 31.8894C35.646 32.3246 36.2126 32.8448 36.5266 33.5242C36.9669 34.477 36.7751 35.4416 36.3243 36.3181C36.3357 36.3361 36.3465 36.3546 36.3568 36.3734L36.6862 36.9746L36.6872 36.9741L36.9596 37.4712H37.8918C38.3964 37.4712 38.8059 37.8807 38.8059 38.3853V41.6831C38.8059 42.1877 38.3964 42.5971 37.8918 42.5971H24.5716C24.067 42.5971 23.6575 42.1876 23.6575 41.683V35.8687C23.6462 35.8618 23.6349 35.8547 23.6239 35.8474L23.4075 35.9063L23.2624 35.3744C23.2574 35.3591 23.2527 35.3436 23.2485 35.3281L23.0907 34.7492L23.0919 34.7489L23.0004 34.4135C22.9758 34.3229 22.9594 34.2404 22.9594 34.1454C22.9594 33.6665 23.3281 33.2734 23.797 33.2345V32.8535C23.7917 32.8499 23.7865 32.8462 23.7813 32.8424L23.5637 32.8922L23.4369 32.3447C23.4338 32.3333 23.4309 32.3218 23.4282 32.3102L23.2928 31.7256L23.2935 31.7254L23.2156 31.3889C23.198 31.3127 23.1865 31.2405 23.1865 31.1617C23.1865 30.809 23.3866 30.5027 23.6794 30.3504V30.2164C23.6794 29.7779 23.8486 29.3592 24.1507 29.0432C24.1257 28.9134 24.1131 28.7816 24.1131 28.6495C24.1131 28.3325 24.1848 28.0171 24.328 27.7339C24.4142 27.5635 24.5256 27.4065 24.6596 27.2714C24.6769 27.1401 24.7005 27.0022 24.7364 26.8707L24.7319 26.8481L24.7992 26.6816C25.0216 26.1316 25.7658 26.1536 25.9684 26.709C26.0332 26.8864 26.0727 27.0833 26.0976 27.2714C26.2316 27.4065 26.3431 27.5635 26.4292 27.7339C26.5724 28.0171 26.6442 28.3326 26.6442 28.6495C26.6442 28.7816 26.6316 28.9136 26.6065 29.0432C26.9086 29.3592 27.0779 29.7779 27.0779 30.2164V30.3506C27.4383 30.5385 27.6429 30.9548 27.5472 31.3679L27.4131 31.9473L27.4124 31.9471L27.3331 32.2893C27.2793 32.522 27.1443 32.7207 26.9603 32.8515V33.2306C27.0041 33.2306 27.0196 33.235 27.1242 33.2636C27.2881 33.3082 27.4362 33.3979 27.5516 33.5227H27.5517ZM40.0271 26.2106L38.4062 26.2026L38.4057 26.2045C38.1406 26.2031 37.9268 25.9872 37.9281 25.7221C37.9282 25.7038 37.9294 25.6856 37.9315 25.6674C38.1336 21.9138 36.8638 21.544 34.9582 20.9897C33.7522 20.6389 32.3258 20.2239 30.821 19.063C29.3141 20.2106 27.8896 20.611 26.6853 20.9494C24.7769 21.4857 23.5069 21.8426 23.7174 25.623L23.7185 25.6229C23.7332 25.8876 23.5306 26.1142 23.2659 26.1289C23.2416 26.1302 23.2175 26.1297 23.1939 26.1275L21.6202 26.1198V44.934L40.0271 45.0248V26.2106V26.2106ZM39.7637 18.1844H37.5248V15.9455L35.7643 14.185L34.9449 13.3656H42.3437V13.8456L42.2949 20.7588L39.7637 18.1845V18.1844ZM20.2637 18.4469L21.3455 17.3651L21.4861 17.2244H23.1625V15.548L23.3031 15.4074L24.3849 14.3256H20.2637V18.4469V18.4469ZM21.8836 18.1844L19.3149 20.89L19.3036 13.8456V13.3656H26.7024L25.883 14.185L24.1225 15.9455V18.1844H21.8836H21.8836ZM40.3018 17.3651L41.3836 18.4469V14.3256H37.2624L38.3442 15.4074L38.4849 15.548V17.2244H40.1612L40.3019 17.3651H40.3018ZM38.907 25.2488L40.4673 25.2565C40.4804 25.2554 40.4937 25.2548 40.5072 25.2548C40.7722 25.2548 40.9872 25.4698 40.9872 25.7348V45.5053H40.9871L40.9871 45.5077C40.9858 45.7727 40.7698 45.9866 40.5048 45.9853V45.9834L21.18 45.8881C21.1668 45.8891 21.1536 45.8897 21.1401 45.8897C20.8751 45.8897 20.6601 45.6748 20.6601 45.4097V25.6393H20.6602L20.6602 25.6369C20.6615 25.3718 20.8774 25.158 21.1425 25.1593V25.1612L22.7402 25.169C22.63 21.0946 24.1643 20.6626 26.4265 20.0269C27.6166 19.6925 29.0373 19.2931 30.4887 18.1069C30.6627 17.9371 30.9405 17.9231 31.1312 18.0823L30.8236 18.4508L31.1311 18.0833C32.5965 19.3065 34.0273 19.7228 35.2245 20.071C37.4853 20.7286 39.0183 21.1753 38.907 25.2487V25.2488Z" fill="white"/>
<path d="M17.1043 8.23435C17.1043 7.96927 16.8893 7.75435 16.6243 7.75435C16.3592 7.75435 16.1443 7.96927 16.1443 8.23435V10.9655C16.1443 11.2305 16.3592 11.4455 16.6243 11.4455C16.8893 11.4455 17.1043 11.2305 17.1043 10.9655V8.23435ZM18.7861 8.23435C18.7861 7.96927 18.5712 7.75435 18.3061 7.75435C18.041 7.75435 17.8261 7.96927 17.8261 8.23435V10.9655C17.8261 11.2305 18.041 11.4455 18.3061 11.4455C18.5712 11.4455 18.7861 11.2305 18.7861 10.9655V8.23435ZM20.468 8.23435C20.468 7.96927 20.253 7.75435 19.988 7.75435C19.7229 7.75435 19.508 7.96927 19.508 8.23435V10.9655C19.508 11.2305 19.7229 11.4455 19.988 11.4455C20.253 11.4455 20.468 11.2305 20.468 10.9655V8.23435ZM22.1498 8.23435C22.1498 7.96927 21.9349 7.75435 21.6698 7.75435C21.4047 7.75435 21.1898 7.96927 21.1898 8.23435V10.9655C21.1898 11.2305 21.4047 11.4455 21.6698 11.4455C21.9349 11.4455 22.1498 11.2305 22.1498 10.9655V8.23435ZM23.8317 8.23435C23.8317 7.96927 23.6167 7.75435 23.3517 7.75435C23.0866 7.75435 22.8717 7.96927 22.8717 8.23435V10.9655C22.8717 11.2305 23.0866 11.4455 23.3517 11.4455C23.6167 11.4455 23.8317 11.2305 23.8317 10.9655V8.23435ZM25.5135 8.23435C25.5135 7.96927 25.2985 7.75435 25.0335 7.75435C24.7684 7.75435 24.5535 7.96927 24.5535 8.23435V10.9655C24.5535 11.2305 24.7684 11.4455 25.0335 11.4455C25.2985 11.4455 25.5135 11.2305 25.5135 10.9655V8.23435ZM27.1953 8.23435C27.1953 7.96927 26.9804 7.75435 26.7153 7.75435C26.4502 7.75435 26.2353 7.96927 26.2353 8.23435V10.9655C26.2353 11.2305 26.4502 11.4455 26.7153 11.4455C26.9804 11.4455 27.1953 11.2305 27.1953 10.9655V8.23435ZM28.8772 8.23435C28.8772 7.96927 28.6622 7.75435 28.3972 7.75435C28.1321 7.75435 27.9172 7.96927 27.9172 8.23435V10.9655C27.9172 11.2305 28.1321 11.4455 28.3972 11.4455C28.6622 11.4455 28.8772 11.2305 28.8772 10.9655V8.23435ZM30.559 8.23435C30.559 7.96927 30.3441 7.75435 30.079 7.75435C29.814 7.75435 29.599 7.96927 29.599 8.23435V10.9655C29.599 11.2305 29.814 11.4455 30.079 11.4455C30.3441 11.4455 30.559 11.2305 30.559 10.9655V8.23435ZM32.2408 8.23435C32.2408 7.96927 32.0259 7.75435 31.7608 7.75435C31.4958 7.75435 31.2808 7.96927 31.2808 8.23435V10.9655C31.2808 11.2305 31.4958 11.4455 31.7608 11.4455C32.0259 11.4455 32.2408 11.2305 32.2408 10.9655V8.23435ZM37.2862 8.23435C37.2862 7.96927 37.0713 7.75435 36.8062 7.75435C36.5412 7.75435 36.3262 7.96927 36.3262 8.23435V10.9655C36.3262 11.2305 36.5412 11.4455 36.8062 11.4455C37.0713 11.4455 37.2862 11.2305 37.2862 10.9655V8.23435ZM33.9226 8.23435C33.9226 7.96927 33.7077 7.75435 33.4426 7.75435C33.1776 7.75435 32.9626 7.96927 32.9626 8.23435V10.9655C32.9626 11.2305 33.1776 11.4455 33.4426 11.4455C33.7077 11.4455 33.9226 11.2305 33.9226 10.9655V8.23435ZM35.6044 8.23435C35.6044 7.96927 35.3895 7.75435 35.1244 7.75435C34.8594 7.75435 34.6444 7.96927 34.6444 8.23435V10.9655C34.6444 11.2305 34.8594 11.4455 35.1244 11.4455C35.3895 11.4455 35.6044 11.2305 35.6044 10.9655V8.23435ZM38.9683 8.23435C38.9683 7.96927 38.7534 7.75435 38.4883 7.75435C38.2233 7.75435 38.0083 7.96927 38.0083 8.23435V10.9655C38.0083 11.2305 38.2233 11.4455 38.4883 11.4455C38.7534 11.4455 38.9683 11.2305 38.9683 10.9655V8.23435ZM40.6501 8.23435C40.6501 7.96927 40.4352 7.75435 40.1701 7.75435C39.9051 7.75435 39.6901 7.96927 39.6901 8.23435V10.9655C39.6901 11.2305 39.9051 11.4455 40.1701 11.4455C40.4352 11.4455 40.6501 11.2305 40.6501 10.9655V8.23435ZM42.3319 8.23435C42.3319 7.96927 42.117 7.75435 41.8519 7.75435C41.5869 7.75435 41.3719 7.96927 41.3719 8.23435V10.9655C41.3719 11.2305 41.5869 11.4455 41.8519 11.4455C42.117 11.4455 42.3319 11.2305 42.3319 10.9655V8.23435ZM44.0137 8.23435C44.0137 7.96927 43.7988 7.75435 43.5337 7.75435C43.2687 7.75435 43.0537 7.96927 43.0537 8.23435V10.9655C43.0537 11.2305 43.2687 11.4455 43.5337 11.4455C43.7988 11.4455 44.0137 11.2305 44.0137 10.9655V8.23435ZM45.6955 8.23435C45.6955 7.96927 45.4806 7.75435 45.2155 7.75435C44.9505 7.75435 44.7355 7.96927 44.7355 8.23435V10.9655C44.7355 11.2305 44.9505 11.4455 45.2155 11.4455C45.4806 11.4455 45.6955 11.2305 45.6955 10.9655V8.23435ZM17.1043 50.4744C17.1043 50.2093 16.8893 49.9944 16.6243 49.9944C16.3592 49.9944 16.1443 50.2093 16.1443 50.4744V53.2055C16.1443 53.4705 16.3592 53.6855 16.6243 53.6855C16.8893 53.6855 17.1043 53.4705 17.1043 53.2055V50.4744ZM18.7861 50.4744C18.7861 50.2093 18.5712 49.9944 18.3061 49.9944C18.041 49.9944 17.8261 50.2093 17.8261 50.4744V53.2055C17.8261 53.4705 18.041 53.6855 18.3061 53.6855C18.5712 53.6855 18.7861 53.4705 18.7861 53.2055V50.4744ZM20.468 50.4744C20.468 50.2093 20.253 49.9944 19.988 49.9944C19.7229 49.9944 19.508 50.2093 19.508 50.4744V53.2055C19.508 53.4705 19.7229 53.6855 19.988 53.6855C20.253 53.6855 20.468 53.4705 20.468 53.2055V50.4744ZM22.1498 50.4744C22.1498 50.2093 21.9349 49.9944 21.6698 49.9944C21.4047 49.9944 21.1898 50.2093 21.1898 50.4744V53.2055C21.1898 53.4705 21.4047 53.6855 21.6698 53.6855C21.9349 53.6855 22.1498 53.4705 22.1498 53.2055V50.4744ZM23.8317 50.4744C23.8317 50.2093 23.6167 49.9944 23.3517 49.9944C23.0866 49.9944 22.8717 50.2093 22.8717 50.4744V53.2055C22.8717 53.4705 23.0866 53.6855 23.3517 53.6855C23.6167 53.6855 23.8317 53.4705 23.8317 53.2055V50.4744ZM25.5135 50.4744C25.5135 50.2093 25.2985 49.9944 25.0335 49.9944C24.7684 49.9944 24.5535 50.2093 24.5535 50.4744V53.2055C24.5535 53.4705 24.7684 53.6855 25.0335 53.6855C25.2985 53.6855 25.5135 53.4705 25.5135 53.2055V50.4744ZM27.1953 50.4744C27.1953 50.2093 26.9804 49.9944 26.7153 49.9944C26.4502 49.9944 26.2353 50.2093 26.2353 50.4744V53.2055C26.2353 53.4705 26.4502 53.6855 26.7153 53.6855C26.9804 53.6855 27.1953 53.4705 27.1953 53.2055V50.4744ZM28.8772 50.4744C28.8772 50.2093 28.6622 49.9944 28.3972 49.9944C28.1321 49.9944 27.9172 50.2093 27.9172 50.4744V53.2055C27.9172 53.4705 28.1321 53.6855 28.3972 53.6855C28.6622 53.6855 28.8772 53.4705 28.8772 53.2055V50.4744ZM30.559 50.4744C30.559 50.2093 30.3441 49.9944 30.079 49.9944C29.814 49.9944 29.599 50.2093 29.599 50.4744V53.2055C29.599 53.4705 29.814 53.6855 30.079 53.6855C30.3441 53.6855 30.559 53.4705 30.559 53.2055V50.4744ZM32.2408 50.4744C32.2408 50.2093 32.0259 49.9944 31.7608 49.9944C31.4958 49.9944 31.2808 50.2093 31.2808 50.4744V53.2055C31.2808 53.4705 31.4958 53.6855 31.7608 53.6855C32.0259 53.6855 32.2408 53.4705 32.2408 53.2055V50.4744ZM37.2862 50.4744C37.2862 50.2093 37.0713 49.9944 36.8062 49.9944C36.5412 49.9944 36.3262 50.2093 36.3262 50.4744V53.2055C36.3262 53.4705 36.5412 53.6855 36.8062 53.6855C37.0713 53.6855 37.2862 53.4705 37.2862 53.2055V50.4744ZM33.9226 50.4744C33.9226 50.2093 33.7077 49.9944 33.4426 49.9944C33.1776 49.9944 32.9626 50.2093 32.9626 50.4744V53.2055C32.9626 53.4705 33.1776 53.6855 33.4426 53.6855C33.7077 53.6855 33.9226 53.4705 33.9226 53.2055V50.4744ZM35.6044 50.4744C35.6044 50.2093 35.3895 49.9944 35.1244 49.9944C34.8594 49.9944 34.6444 50.2093 34.6444 50.4744V53.2055C34.6444 53.4705 34.8594 53.6855 35.1244 53.6855C35.3895 53.6855 35.6044 53.4705 35.6044 53.2055V50.4744ZM38.9683 50.4744C38.9683 50.2093 38.7534 49.9944 38.4883 49.9944C38.2233 49.9944 38.0083 50.2093 38.0083 50.4744V53.2055C38.0083 53.4705 38.2233 53.6855 38.4883 53.6855C38.7534 53.6855 38.9683 53.4705 38.9683 53.2055V50.4744ZM40.6501 50.4744C40.6501 50.2093 40.4352 49.9944 40.1701 49.9944C39.9051 49.9944 39.6901 50.2093 39.6901 50.4744V53.2055C39.6901 53.4705 39.9051 53.6855 40.1701 53.6855C40.4352 53.6855 40.6501 53.4705 40.6501 53.2055V50.4744ZM42.3319 50.4744C42.3319 50.2093 42.117 49.9944 41.8519 49.9944C41.5869 49.9944 41.3719 50.2093 41.3719 50.4744V53.2055C41.3719 53.4705 41.5869 53.6855 41.8519 53.6855C42.117 53.6855 42.3319 53.4705 42.3319 53.2055V50.4744ZM44.0137 50.4744C44.0137 50.2093 43.7988 49.9944 43.5337 49.9944C43.2687 49.9944 43.0537 50.2093 43.0537 50.4744V53.2055C43.0537 53.4705 43.2687 53.6855 43.5337 53.6855C43.7988 53.6855 44.0137 53.4705 44.0137 53.2055V50.4744ZM45.6955 50.4744C45.6955 50.2093 45.4806 49.9944 45.2155 49.9944C44.9505 49.9944 44.7355 50.2093 44.7355 50.4744V53.2055C44.7355 53.4705 44.9505 53.6855 45.2155 53.6855C45.4806 53.6855 45.6955 53.4705 45.6955 53.2055V50.4744Z" fill="white"/>
<path fill-rule="evenodd" clip-rule="evenodd" d="M26.4996 38.0711H27.6234C27.6028 38.0285 27.5921 37.9818 27.5921 37.9344C27.5921 37.8701 27.6115 37.8102 27.6448 37.7604L28.2595 36.6382L28.5343 36.7879L28.2589 36.637C28.286 36.5876 28.3258 36.5463 28.3743 36.5176C28.4228 36.4889 28.4781 36.4737 28.5345 36.4737C27.2352 34.4288 28.1485 33.2753 29.3802 32.3733C29.6608 32.1677 29.9534 31.9801 30.238 31.7975C30.9912 31.3145 31.6821 30.8714 31.7257 30.3719C31.7274 30.3503 31.7313 30.3294 31.7371 30.3092L31.7374 30.3081L31.7392 30.3023L31.7399 30.3003L31.7412 30.2963L31.7427 30.292L31.7431 30.2906L31.7454 30.2845L31.7456 30.284C31.7736 30.2107 31.8283 30.1507 31.8988 30.1159L31.9372 29.4366C31.855 29.4076 31.7804 29.3606 31.7189 29.299C31.6648 29.245 31.6219 29.1809 31.5926 29.1103C31.5634 29.0397 31.5484 28.964 31.5485 28.8876C31.5485 28.7832 31.577 28.6821 31.6288 28.5938C31.6808 28.5046 31.7557 28.431 31.8457 28.3804C31.8652 28.3694 31.8868 28.3628 31.9091 28.3609C31.9313 28.359 31.9538 28.3619 31.9748 28.3694C31.8271 28.4486 31.7266 28.6045 31.7266 28.7838C31.7266 29.0434 31.9372 29.254 32.1967 29.254C32.3909 29.254 32.5576 29.1363 32.6293 28.9684C32.65 28.9915 32.6634 29.0202 32.6677 29.0509C32.672 29.0817 32.6672 29.113 32.6537 29.1409C32.6059 29.2393 32.5314 29.3221 32.4387 29.38C32.35 29.4359 32.2478 29.4668 32.143 29.4693L32.1796 30.1164C32.2495 30.1513 32.3037 30.2111 32.3316 30.284L32.3318 30.2845L32.3341 30.2906L32.3346 30.292L32.3361 30.2963L32.3374 30.3003L32.338 30.3023L32.3398 30.3081L32.3401 30.3092C32.346 30.3294 32.3498 30.3503 32.3516 30.3719C32.3951 30.8715 33.086 31.3145 33.8392 31.7975C34.1238 31.9801 34.4165 32.1677 34.6971 32.3733C35.9287 33.2753 36.8421 34.4289 35.5428 36.4738H35.5429C35.6714 36.4738 35.7819 36.551 35.8305 36.6616L36.4455 37.7841L36.4465 37.7836C36.4706 37.8274 36.4838 37.8764 36.4851 37.9265C36.4863 37.9765 36.4756 38.0261 36.4538 38.0711H37.8916C38.0651 38.0711 38.2057 38.2118 38.2057 38.3852V41.6829C38.2057 41.8564 38.0651 41.997 37.8916 41.997H24.5715C24.398 41.997 24.2574 41.8564 24.2574 41.6829V35.4016H24.1359C23.9955 35.4041 23.8659 35.3117 23.8273 35.1701L24.1303 35.0875L23.8285 35.1697L23.5792 34.2556C23.566 34.2203 23.5593 34.1829 23.5593 34.1453C23.5593 33.9718 23.6999 33.8312 23.8734 33.8312H24.3969V32.4179H24.3229C24.1782 32.42 24.0466 32.3214 24.0126 32.1747L24.3186 32.1039L24.0131 32.1738L23.8 31.2535C23.791 31.2237 23.7864 31.1928 23.7864 31.1616C23.7864 30.9882 23.927 30.8476 24.1005 30.8476H24.2793V30.2162C24.2793 29.9136 24.4029 29.6387 24.6019 29.4396C24.6741 29.3675 24.7559 29.3056 24.8449 29.2558C24.8101 29.1812 24.7821 29.1035 24.7612 29.0238C24.7292 28.9016 24.713 28.7757 24.713 28.6494C24.713 28.4142 24.768 28.1931 24.8634 28.0045C24.9535 27.8263 25.0801 27.6767 25.2312 27.5704C25.2366 27.5027 25.2433 27.4378 25.2509 27.3763C25.2759 27.1773 25.312 27.0139 25.3554 26.9067L25.3554 26.9064C25.3711 26.8673 25.3906 26.8729 25.4047 26.9145C25.4467 27.0217 25.4818 27.182 25.5061 27.3763C25.5139 27.4378 25.5205 27.5027 25.5259 27.5704C25.677 27.6766 25.8036 27.8262 25.8937 28.0045C25.989 28.1931 26.0441 28.4142 26.0441 28.6494C26.0441 28.7787 26.0272 28.9045 25.9958 29.0238C25.9749 29.1035 25.9469 29.1811 25.9121 29.2558C26.0012 29.3056 26.083 29.3675 26.1551 29.4396C26.3542 29.6387 26.4778 29.9136 26.4778 30.2162V30.8476H26.6517C26.6767 30.8472 26.7021 30.8498 26.7275 30.8557C26.8964 30.8948 27.0017 31.0635 26.9626 31.2325L26.962 31.2323L26.7485 32.1538C26.7246 32.3035 26.5949 32.4179 26.4385 32.4179H26.3602V33.8312H26.8782C26.9079 33.8307 26.9376 33.8344 26.9663 33.8423C27.1337 33.8879 27.2323 34.0606 27.1867 34.2279L27.1854 34.2276L26.9361 35.142C26.9103 35.2894 26.7816 35.4016 26.6268 35.4016H26.4996V38.0711V38.0711ZM30.8104 40.0556C30.9483 40.0556 31.0732 40.1115 31.1636 40.2019C31.2101 40.2483 31.2469 40.3033 31.2721 40.3639C31.2972 40.4246 31.3101 40.4895 31.31 40.5552C31.31 40.6931 31.2541 40.818 31.1636 40.9084C31.1173 40.9549 31.0622 40.9918 31.0016 41.0169C30.941 41.042 30.876 41.0549 30.8104 41.0548C30.7447 41.0549 30.6797 41.042 30.6191 41.0169C30.5585 40.9917 30.5034 40.9549 30.4571 40.9084C30.4106 40.8621 30.3738 40.807 30.3486 40.7464C30.3235 40.6858 30.3106 40.6208 30.3107 40.5552C30.3107 40.4172 30.3667 40.2923 30.4571 40.2019C30.5034 40.1555 30.5585 40.1186 30.6191 40.0935C30.6798 40.0684 30.7447 40.0555 30.8104 40.0556V40.0556ZM32.0386 38.8563C32.1766 38.8563 32.3015 38.9122 32.3919 39.0026C32.4384 39.049 32.4752 39.1041 32.5003 39.1647C32.5255 39.2253 32.5383 39.2903 32.5383 39.3559C32.5383 39.4939 32.4823 39.6188 32.3919 39.7092C32.3456 39.7557 32.2905 39.7925 32.2299 39.8176C32.1692 39.8427 32.1042 39.8556 32.0386 39.8555C31.9007 39.8555 31.7758 39.7996 31.6854 39.7092C31.6389 39.6629 31.6021 39.6078 31.5769 39.5472C31.5518 39.4866 31.5389 39.4216 31.539 39.3559C31.539 39.2179 31.5949 39.0931 31.6854 39.0026C31.7317 38.9562 31.7868 38.9193 31.8474 38.8942C31.908 38.8691 31.973 38.8562 32.0386 38.8563V38.8563ZM33.2669 40.0556C33.4049 40.0556 33.5298 40.1115 33.6202 40.2019C33.6667 40.2483 33.7035 40.3033 33.7286 40.364C33.7537 40.4246 33.7666 40.4896 33.7665 40.5552C33.7665 40.6931 33.7106 40.818 33.6202 40.9084C33.5739 40.9549 33.5188 40.9918 33.4582 41.0169C33.3975 41.042 33.3325 41.0549 33.2669 41.0548C33.2013 41.0549 33.1363 41.042 33.0757 41.0169C33.015 40.9917 32.96 40.9549 32.9136 40.9084C32.8672 40.8621 32.8303 40.807 32.8052 40.7464C32.7801 40.6858 32.7672 40.6208 32.7673 40.5552C32.7673 40.4172 32.8232 40.2923 32.9136 40.2019C32.96 40.1555 33.015 40.1186 33.0757 40.0935C33.1363 40.0684 33.2013 40.0555 33.2669 40.0556V40.0556Z" fill="#2992CE"/>
</svg>
