<svg width="24" height="24" viewBox="0 0 24 24" fill="none" xmlns="http://www.w3.org/2000/svg">
<g clip-path="url(#clip0_16_16141)">
<path d="M11.8249 9.45431C11.803 9.45417 11.7812 9.4537 11.7593 9.4537C5.94358 9.4537 1.18404 14.0614 0.939819 19.8181H6.07919C6.31652 16.8923 8.77343 14.5842 11.7593 14.5842C11.7682 14.5842 11.7771 14.5846 11.786 14.5847L14.3707 12L11.8249 9.45431V9.45431Z" fill="#2992CE"/>
<path d="M15.0276 11.3429L10.1772 6.49231L13.7776 2.8921L18.628 7.74268L15.0276 11.3429Z" fill="#2992CE"/>
<path d="M23.8638 11.6627L14.1065 1.90536C13.9249 1.72377 13.6305 1.72377 13.449 1.90536L9.19125 6.16311C9.14806 6.20628 9.11379 6.25753 9.09041 6.31394C9.06703 6.37036 9.055 6.43083 9.055 6.49189C9.055 6.55296 9.06703 6.61343 9.09041 6.66984C9.11379 6.72625 9.14806 6.77751 9.19125 6.82067L10.9244 8.55378C4.82845 8.98349 0 14.0797 0 20.283C0 20.5398 0.208172 20.7479 0.464953 20.7479H6.52533C6.78211 20.7479 6.99028 20.5398 6.99028 20.283C6.99028 18.0006 8.60241 16.0885 10.7475 15.6231L9.1912 17.1793C9.14801 17.2225 9.11374 17.2738 9.09036 17.3302C9.06699 17.3866 9.05495 17.4471 9.05495 17.5081C9.05495 17.5692 9.06699 17.6297 9.09036 17.6861C9.11374 17.7425 9.14801 17.7937 9.1912 17.8369L13.449 22.0947C13.4921 22.1379 13.5433 22.1722 13.5997 22.1956C13.6561 22.2189 13.7166 22.2309 13.7777 22.2309C13.8388 22.231 13.8992 22.219 13.9557 22.1956C14.0121 22.1722 14.0633 22.1379 14.1064 22.0947L16.4875 19.7135C16.6691 19.532 16.6691 19.2375 16.4875 19.056C16.3059 18.8744 16.0115 18.8744 15.83 19.056L13.7777 21.1084L10.1775 17.5082L19.2773 8.40838L22.8775 12.0085L18.1861 16.7C18.1429 16.7431 18.1087 16.7944 18.0853 16.8508C18.0619 16.9072 18.0499 16.9677 18.0499 17.0287C18.0499 17.0898 18.0619 17.1502 18.0853 17.2066C18.1087 17.263 18.1429 17.3143 18.1861 17.3575C18.3677 17.5391 18.6621 17.5391 18.8436 17.3575L23.8638 12.3373C23.907 12.2941 23.9413 12.2428 23.9646 12.1864C23.988 12.13 24 12.0696 24 12.0085C24 12.0057 23.9997 12.003 23.9996 12.0002C24.0009 11.9377 23.9896 11.8756 23.9662 11.8176C23.9429 11.7595 23.908 11.7069 23.8638 11.6627V11.6627ZM11.7593 14.5841C8.77341 14.5841 6.31655 16.8922 6.07917 19.818H0.939797C1.18392 14.0613 5.94356 9.45364 11.7593 9.45364C11.7812 9.45364 11.8031 9.45416 11.8249 9.45425L14.3706 11.9999L11.7859 14.5846C11.777 14.5846 11.7682 14.5841 11.7593 14.5841V14.5841ZM10.1775 6.49184L13.7778 2.8917L18.6284 7.74228L15.0281 11.3425L10.1775 6.49184V6.49184Z" fill="black"/>
<path d="M18.1861 16.7L22.8775 12.0086L19.2773 8.40845L10.1776 17.5081L13.7778 21.1083L15.8301 19.056C16.0117 18.8744 16.3061 18.8744 16.4876 19.056L18.1861 17.3575C18.0045 17.1759 18.0045 16.8816 18.1861 16.7Z" fill="#2992CE"/>
</g>
<defs>
<clipPath id="clip0_16_16141">
<rect width="24" height="24" fill="white"/>
</clipPath>
</defs>
</svg>
