<svg width="34" height="34" viewBox="0 0 34 34" fill="none" xmlns="http://www.w3.org/2000/svg">
<path d="M33.247 17.001C33.247 25.976 25.971 33.251 16.997 33.251C8.027 33.251 0.75 25.976 0.75 17.001C0.75 8.023 8.026 0.75 16.997 0.75C25.971 0.75 33.247 8.023 33.247 17.001Z" fill="#75C6A4"/>
<path fill-rule="evenodd" clip-rule="evenodd" d="M16.997 1.5C8.44024 1.5 1.5 8.43718 1.5 17.001C1.5 25.5618 8.44124 32.501 16.997 32.501C25.5568 32.501 32.497 25.5618 32.497 17.001C32.497 8.43727 25.5568 1.5 16.997 1.5ZM0 17.001C0 7.60882 7.61176 0 16.997 0C26.3852 0 33.997 7.60873 33.997 17.001C33.997 26.3902 26.3852 34.001 16.997 34.001C7.61276 34.001 0 26.3902 0 17.001Z" fill="#335C5F"/>
<path d="M16.997 0.75C15.704 0.75 14.453 0.917 13.247 1.201C20.41 2.896 25.746 9.317 25.746 17.001C25.746 24.682 20.411 31.103 13.247 32.8C14.453 33.084 15.704 33.251 16.997 33.251C25.971 33.251 33.247 25.976 33.247 17.001C33.247 8.023 25.971 0.75 16.997 0.75V0.75Z" fill="#65AD90"/>
<path d="M24.069 10.152L15.67 18.548L9.92802 12.801L7.27502 15.454L15.67 23.854L26.722 12.801L24.069 10.152Z" fill="#E9EAEF"/>
<path fill-rule="evenodd" clip-rule="evenodd" d="M23.5388 9.62155C23.8315 9.32891 24.306 9.32877 24.599 9.62125L27.252 12.2702C27.3928 12.4109 27.4719 12.6017 27.472 12.8007C27.4721 12.9997 27.3931 13.1906 27.2524 13.3313L16.2004 24.3843C16.0597 24.525 15.8689 24.604 15.6699 24.604C15.471 24.604 15.2802 24.5249 15.1395 24.3841L6.74454 15.9841C6.45179 15.6912 6.45186 15.2165 6.74469 14.9236L9.39769 12.2706C9.53839 12.13 9.72922 12.0509 9.92819 12.051C10.1272 12.051 10.318 12.1301 10.4586 12.2709L15.6704 17.4872L23.5388 9.62155ZM24.0693 11.2121L16.2003 19.0784C16.0596 19.2191 15.8687 19.298 15.6698 19.298C15.4708 19.2979 15.2801 19.2188 15.1395 19.0781L9.92779 13.8619L8.33553 15.4541L15.6702 22.7931L25.661 12.8014L24.0693 11.2121Z" fill="#335C5F"/>
<path fill-rule="evenodd" clip-rule="evenodd" d="M16.997 1.5C8.44024 1.5 1.5 8.43718 1.5 17.001C1.5 25.5618 8.44124 32.501 16.997 32.501C25.5568 32.501 32.497 25.5618 32.497 17.001C32.497 8.43727 25.5568 1.5 16.997 1.5ZM0 17.001C0 7.60882 7.61176 0 16.997 0C26.3852 0 33.997 7.60873 33.997 17.001C33.997 26.3902 26.3852 34.001 16.997 34.001C7.61276 34.001 0 26.3902 0 17.001Z" fill="#335C5F"/>
</svg>
