<svg width="48" height="48" viewBox="0 0 48 48" fill="none" xmlns="http://www.w3.org/2000/svg">
<path fill-rule="evenodd" clip-rule="evenodd" d="M24 34.8591L40.2058 7.86212L14.7158 33.1038L16.579 37.3327L24 34.8591Z" fill="#2992CE"/>
<path fill-rule="evenodd" clip-rule="evenodd" d="M12.7958 32.1607L12.9631 32.52L16.8002 40.6554C17.0849 41.263 17.6311 41.733 18.2603 41.9199C18.883 42.1013 19.5122 41.9711 19.9205 41.5696C21.5754 39.9563 24.1047 37.4295 23.9999 37.3328L12.7958 32.1607L12.7958 32.1607Z" fill="#2992CE"/>
<path fill-rule="evenodd" clip-rule="evenodd" d="M7.4195 25.2002C6.65478 25.6437 6.19097 26.4685 6.21771 27.3533C6.23933 28.2384 6.74287 29.0428 7.53267 29.4407L16.1598 33.8401L40.2058 7.862L19.7099 35.6553L31.5083 41.6674C32.2549 42.0495 33.1457 42.0641 33.9098 41.6919C34.6682 41.321 35.2066 40.6156 35.3733 39.7896L41.7668 7.02959C41.8334 6.69646 41.6963 6.35473 41.4199 6.16037C41.2385 6.0314 41.0214 5.97958 40.8107 6.0069L40.7652 6.01413C40.6701 6.03198 40.5769 6.06653 40.4888 6.11719L7.41942 25.2002L7.4195 25.2002Z" fill="#48B1ED"/>
</svg>
