<svg width="48" height="48" viewBox="0 0 48 48" fill="none" xmlns="http://www.w3.org/2000/svg">
<path d="M20.1473 20.3766C20.6368 20.4907 21.1093 20.6433 21.5614 20.8306C22.0237 21.0222 22.4664 21.2501 22.8857 21.5105L24.6903 19.7059L24.6903 19.7059C24.9099 19.4862 25.2661 19.4862 25.4858 19.7059L25.4878 19.7079L27.656 21.8762L27.2583 22.2739L27.6561 21.8762C27.8757 22.0958 27.8757 22.452 27.6561 22.6717L27.6529 22.6747L25.8514 24.4762C26.1117 24.8955 26.3395 25.3381 26.5311 25.8004C26.7186 26.2525 26.8711 26.7251 26.9853 27.2146H29.5379C29.8485 27.2146 30.1004 27.4665 30.1004 27.7771V30.8464C30.1004 31.1571 29.8485 31.4089 29.5379 31.4089H26.9854C26.8712 31.8985 26.7187 32.371 26.5313 32.8231C26.3397 33.2854 26.1118 33.728 25.8515 34.1473L27.6561 35.9519L27.6561 35.9519C27.8758 36.1715 27.8758 36.5277 27.6561 36.7474L27.653 36.7504L25.4857 38.9177L25.088 38.52L25.4858 38.9177C25.2661 39.1374 24.9099 39.1374 24.6903 38.9177L24.6872 38.9146L22.8857 37.1131C22.4663 37.3735 22.0236 37.6013 21.5612 37.793C21.1092 37.9804 20.6368 38.1329 20.1473 38.247V40.7995C20.1473 41.1101 19.8955 41.362 19.5848 41.362H16.5155C16.2049 41.362 15.953 41.1101 15.953 40.7995V38.247C15.4636 38.1329 14.9911 37.9804 14.5391 37.793C14.0768 37.6013 13.6341 37.3734 13.2146 37.1131L11.41 38.9177L11.41 38.9177C11.1904 39.1374 10.8342 39.1374 10.6146 38.9177L10.6126 38.9156L8.44429 36.7474L8.842 36.3496L8.44424 36.7474C8.22458 36.5277 8.22461 36.1715 8.44427 35.9519L8.44739 35.9488L10.2489 34.1474C9.98857 33.7281 9.7608 33.2855 9.56918 32.8232C9.38175 32.3711 9.22922 31.8985 9.11503 31.4089H6.5625C6.25185 31.4089 6 31.1571 6 30.8464V27.7771C6 27.4665 6.25185 27.2146 6.5625 27.2146H9.11503C9.22919 26.7252 9.38169 26.2528 9.56904 25.8008C9.76069 25.3384 9.98854 24.8957 10.2489 24.4763L8.44429 22.6716L8.842 22.2739L8.44424 22.6716C8.22458 22.452 8.22461 22.0958 8.44426 21.8761L8.44739 21.8731L10.6146 19.7059L11.0123 20.1036L10.6146 19.7058C10.8343 19.4862 11.1904 19.4862 11.4101 19.7059L11.4131 19.709L13.2146 21.5105C13.6339 21.2501 14.0766 21.0223 14.5389 20.8307C14.991 20.6433 15.4635 20.4907 15.953 20.3766V17.8241C15.953 17.5134 16.2049 17.2616 16.5155 17.2616H19.5848C19.8955 17.2616 20.1473 17.5134 20.1473 17.8241V20.3766L20.1473 20.3766ZM21.1307 21.8678C20.619 21.6557 20.0842 21.4951 19.5328 21.3925C19.2465 21.3663 19.0223 21.1255 19.0223 20.8324V18.3866H17.078V20.8264C17.0812 21.0962 16.8894 21.3367 16.6151 21.3861L16.5155 20.8324L16.6144 21.384C16.0464 21.4861 15.4957 21.6497 14.9696 21.8678C14.4437 22.0858 13.9447 22.3589 13.4799 22.68C13.2594 22.8474 12.9438 22.8305 12.7426 22.6293L12.7426 22.6293L11.0123 20.899L9.6374 22.2739L11.3596 23.9962C11.556 24.1843 11.592 24.4925 11.432 24.7229L10.97 24.4019L11.4314 24.7228C11.1047 25.193 10.8271 25.6984 10.6062 26.2315C10.3941 26.7431 10.2335 27.2778 10.1309 27.8292C10.1047 28.1154 9.86395 28.3396 9.57085 28.3396H7.12496V30.284H9.56478C9.83457 30.2807 10.0751 30.4725 10.1245 30.7469L9.57084 30.8465L10.1224 30.7476C10.2245 31.3156 10.3882 31.8663 10.6063 32.3925C10.8242 32.9182 11.0971 33.417 11.4181 33.8816C11.5858 34.1021 11.569 34.4181 11.3677 34.6194L11.3677 34.6194L9.63739 36.3497L11.0123 37.7246L12.7345 36.0024C12.9226 35.806 13.2308 35.7699 13.4612 35.93L13.1403 36.392L13.4611 35.9306C13.9314 36.2573 14.4368 36.5349 14.9698 36.7558C15.4814 36.9679 16.0162 37.1285 16.5676 37.2311C16.8538 37.2574 17.078 37.4981 17.078 37.7912V40.237H19.0223V37.7972C19.0191 37.5274 19.2109 37.2869 19.4853 37.2376L19.5848 37.7912L19.4859 37.2397C20.0538 37.1376 20.6045 36.9739 21.1305 36.7559C21.6563 36.5379 22.1552 36.2649 22.6199 35.944C22.8404 35.7762 23.1564 35.7929 23.3578 35.9942L22.96 36.392L23.3577 35.9943L25.088 37.7246L26.4629 36.3497L24.7397 34.6265C24.5442 34.4383 24.5086 34.1307 24.6684 33.9007L25.1303 34.2217L24.6689 33.9009C24.9956 33.4307 25.2732 32.9254 25.4941 32.3924C25.7062 31.8807 25.8668 31.3458 25.9694 30.7944C25.9956 30.5082 26.2364 30.284 26.5295 30.284H28.9753V28.3396H26.5366C26.2664 28.3433 26.0252 28.1514 25.9758 27.8767L26.5294 27.7771L25.9779 27.876C25.8758 27.308 25.7121 26.7573 25.494 26.2311C25.276 25.7052 25.0029 25.2063 24.6819 24.7415C24.5145 24.5211 24.5314 24.2054 24.7326 24.0042L24.7326 24.0042L26.4629 22.2739L25.088 20.899L23.3658 22.6213C23.1776 22.8176 22.8694 22.8536 22.639 22.6935L22.96 22.2316L22.6392 22.693C22.169 22.3663 21.6637 22.0887 21.1307 21.8678H21.1307Z" fill="#101443"/>
<path d="M18.0501 22.6338C19.8942 22.6338 21.5637 23.3813 22.7722 24.5897C23.9807 25.7982 24.7282 27.4678 24.7282 29.3118C24.7282 31.1558 23.9807 32.8254 22.7722 34.0338C21.5637 35.2423 19.8942 35.9898 18.0501 35.9898C16.2061 35.9898 14.5366 35.2423 13.3281 34.0338C12.1196 32.8254 11.3721 31.1558 11.3721 29.3118C11.3721 27.4678 12.1196 25.7982 13.3281 24.5897C14.5366 23.3813 16.2061 22.6338 18.0501 22.6338V22.6338ZM21.9768 25.3852C20.9719 24.3803 19.5836 23.7587 18.0501 23.7587C16.5167 23.7587 15.1284 24.3803 14.1235 25.3852C13.1187 26.39 12.4971 27.7783 12.4971 29.3118C12.4971 30.8452 13.1187 32.2335 14.1235 33.2384C15.1284 34.2432 16.5167 34.8648 18.0501 34.8648C19.5836 34.8648 20.9719 34.2432 21.9768 33.2384C22.9816 32.2335 23.6032 30.8452 23.6032 29.3118C23.6032 27.7783 22.9816 26.39 21.9768 25.3852Z" fill="#101443"/>
<path d="M18.0502 25.8773C18.9985 25.8773 19.8572 26.2618 20.4787 26.8833C21.1002 27.5048 21.4846 28.3634 21.4846 29.3118C21.4846 30.2601 21.1002 31.1187 20.4787 31.7402C19.8572 32.3617 18.9985 32.7462 18.0502 32.7462C17.1018 32.7462 16.2432 32.3617 15.6218 31.7402C15.0002 31.1187 14.6158 30.2601 14.6158 29.3118C14.6158 28.3634 15.0002 27.5048 15.6218 26.8833C16.2432 26.2618 17.1019 25.8773 18.0502 25.8773V25.8773ZM19.6832 27.6787C19.2654 27.2608 18.6879 27.0023 18.0502 27.0023C17.4124 27.0023 16.835 27.2608 16.4172 27.6787C15.9993 28.0966 15.7408 28.674 15.7408 29.3118C15.7408 29.9495 15.9993 30.5269 16.4172 30.9448C16.835 31.3627 17.4124 31.6212 18.0502 31.6212C18.6879 31.6212 19.2654 31.3627 19.6832 30.9448C20.1011 30.5269 20.3596 29.9495 20.3596 29.3118C20.3596 28.674 20.1011 28.0966 19.6832 27.6787Z" fill="#101443"/>
<path d="M33.6862 8.56541C33.9793 8.5633 34.272 8.58193 34.5623 8.62025C34.8556 8.65892 35.1446 8.71821 35.4275 8.79697L36.2097 7.44226L36.6953 7.72132L36.2081 7.44007C36.3634 7.17103 36.7075 7.07885 36.9765 7.23418C36.9877 7.24065 36.9985 7.24746 37.0091 7.25458L38.7566 8.26345L38.7572 8.26229C39.0263 8.41761 39.1185 8.76165 38.9631 9.03069C38.9567 9.0419 38.9499 9.05272 38.9427 9.06333L38.1796 10.3851C38.3885 10.5904 38.5842 10.8111 38.7647 11.0462C38.9416 11.2766 39.1036 11.5208 39.2489 11.7775L40.7599 11.3727L40.7597 11.372C41.0598 11.2916 41.3682 11.4697 41.4486 11.7697C41.4511 11.7791 41.4534 11.7884 41.4554 11.7978L41.9801 13.7561L41.9808 13.7559C42.0612 14.0559 41.8831 14.3644 41.583 14.4448C41.5737 14.4473 41.5643 14.4495 41.555 14.4515L40.0725 14.8488C40.0745 15.1418 40.0559 15.4345 40.0176 15.7249C39.979 16.0181 39.9197 16.3072 39.8409 16.5901L41.1956 17.3722L40.9166 17.8578L41.1978 17.3707C41.4669 17.526 41.5591 17.87 41.4037 18.1391C41.3973 18.1503 41.3904 18.1611 41.3833 18.1717L40.3745 19.9191L40.3756 19.9198C40.2203 20.1888 39.8763 20.281 39.6072 20.1257C39.592 20.1169 39.5773 20.1074 39.5632 20.0975L38.2536 19.3413C38.048 19.5506 37.827 19.7467 37.5915 19.9275C37.3624 20.1034 37.1183 20.2651 36.8602 20.4108L37.2652 21.9224L37.2659 21.9223C37.3463 22.2223 37.1683 22.5308 36.8682 22.6112C36.8588 22.6137 36.8495 22.6159 36.8401 22.6179L34.8818 23.1426L34.882 23.1434C34.5819 23.2238 34.2735 23.0457 34.1931 22.7456C34.1906 22.7362 34.1883 22.7269 34.1863 22.7176L33.7891 21.2351C33.4961 21.2371 33.2035 21.2185 32.9132 21.1802C32.6203 21.1416 32.3316 21.0823 32.0489 21.0037L31.266 22.3597L31.2672 22.3604C31.1119 22.6294 30.7678 22.7216 30.4988 22.5663C30.4876 22.5598 30.4768 22.553 30.4662 22.5459L28.7187 21.537L28.7181 21.5382C28.449 21.3829 28.3569 21.0388 28.5122 20.7698C28.521 20.7545 28.5304 20.7399 28.5404 20.7258L29.2965 19.4161C29.0873 19.2106 28.8913 18.9897 28.7106 18.7543C28.5347 18.5251 28.3729 18.2809 28.2271 18.0228L26.7154 18.4278L26.7156 18.4285C26.4156 18.5089 26.1071 18.3308 26.0267 18.0307C26.0242 18.0214 26.0219 18.012 26.02 18.0027L25.4952 16.0444L25.4945 16.0446C25.4141 15.7445 25.5922 15.4361 25.8923 15.3557C25.9016 15.3532 25.911 15.3509 25.9203 15.3489L27.4028 14.9516C27.4008 14.6586 27.4194 14.366 27.4577 14.0757C27.4963 13.7828 27.5555 13.4941 27.6342 13.2115L26.2781 12.4286L26.2775 12.4298C26.0084 12.2745 25.9163 11.9304 26.0716 11.6614C26.0781 11.6502 26.0849 11.6393 26.092 11.6287L27.1009 9.8813L27.0997 9.88064C27.255 9.6116 27.5991 9.51942 27.8681 9.67474C27.8793 9.68122 27.8901 9.68803 27.9007 9.69514L29.2225 10.4583C29.4278 10.2493 29.6485 10.0536 29.8836 9.87309C30.1128 9.69714 30.357 9.53542 30.6151 9.38967L30.2101 7.87804L30.2094 7.87823C30.129 7.57815 30.3071 7.26969 30.6071 7.18931C30.6165 7.18681 30.6258 7.18454 30.6352 7.18255L32.5935 6.65784L32.5933 6.65712C32.8934 6.57673 33.2018 6.75481 33.2822 7.05488C33.2847 7.06424 33.287 7.07357 33.289 7.08292L33.6862 8.56541L33.6862 8.56541ZM34.4173 9.73207C34.0647 9.68556 33.6993 9.67585 33.326 9.70588C33.0529 9.73822 32.7904 9.56612 32.7172 9.29273L33.2605 9.14715L32.7178 9.29217L32.3417 7.8885L31.4408 8.12988L31.8094 9.50546C31.8961 9.77124 31.7733 10.0662 31.5138 10.1883L31.2743 9.67934L31.5117 10.1869C31.1749 10.3453 30.8581 10.54 30.5648 10.7652C30.2786 10.9849 30.0175 11.2334 29.7845 11.5052C29.6166 11.7319 29.3017 11.8015 29.0516 11.6571L29.3328 11.1699L29.0516 11.6555L27.7923 10.9285L27.3253 11.7372L28.5518 12.4453C28.8066 12.5695 28.9322 12.8683 28.8341 13.1411L28.8319 13.1403C28.7072 13.4871 28.6185 13.8492 28.5696 14.2207C28.523 14.5733 28.5133 14.9387 28.5433 15.3119C28.5757 15.5849 28.4036 15.8475 28.1302 15.9207L27.9846 15.3774L28.1296 15.9201L26.7259 16.2962L26.9673 17.1971L28.3432 16.8285C28.6089 16.7419 28.9037 16.8646 29.0258 17.124L28.5168 17.3635L29.0244 17.1262C29.1828 17.4629 29.3775 17.7798 29.6027 18.0731C29.8224 18.3593 30.0708 18.6204 30.3427 18.8534C30.5694 19.0212 30.639 19.3361 30.4945 19.5863L30.4924 19.5851L29.7649 20.8451L30.5747 21.3126L31.2828 20.0861C31.4069 19.8313 31.7058 19.7057 31.9786 19.8038L31.9778 19.806C32.3246 19.9307 32.6867 20.0193 33.0582 20.0684C33.4108 20.1149 33.7761 20.1246 34.1494 20.0946C34.4224 20.0623 34.6849 20.2344 34.7582 20.5077L34.2148 20.6533L34.7576 20.5083L35.1337 21.912L36.0346 21.6706L35.666 20.2949C35.5793 20.0291 35.7021 19.7342 35.9616 19.6121L36.201 20.1211L35.9637 19.6136C36.3004 19.4552 36.6171 19.2605 36.9104 19.0354C37.1966 18.8156 37.4578 18.5671 37.6908 18.2952C37.8587 18.0685 38.1736 17.9989 38.4238 18.1434L38.4225 18.1455L39.6825 18.8729L40.1506 18.0623L38.9357 17.3609C38.6728 17.2404 38.5416 16.9364 38.6413 16.6593L38.6435 16.66C38.7683 16.3134 38.8568 15.9513 38.9058 15.5799C38.9523 15.2272 38.962 14.8618 38.932 14.4885C38.8997 14.2155 39.0718 13.953 39.3452 13.8797L39.4907 14.4231L39.3457 13.8803L40.7494 13.5042L40.508 12.6033L39.1323 12.972C38.8666 13.0586 38.5717 12.9359 38.4496 12.6764L38.4507 12.6759C38.2905 12.3356 38.096 12.0183 37.8726 11.7273C37.6529 11.4412 37.4045 11.18 37.1327 10.9471C36.906 10.7792 36.8364 10.4643 36.9808 10.2142L37.468 10.4954L36.9824 10.2142L37.7094 8.95484L36.8997 8.48734L36.1983 9.70217C36.0779 9.96515 35.7738 10.0963 35.4967 9.99657L35.4975 9.99438C35.1508 9.86965 34.7888 9.78106 34.4173 9.73207L34.4173 9.73207Z" fill="#2992CE"/>
<path d="M32.719 10.9658C33.7913 10.6879 34.8773 10.866 35.7696 11.381L35.7703 11.3798C35.787 11.3895 35.8031 11.3999 35.8184 11.411C36.6965 11.9347 37.3789 12.7862 37.6637 13.8487C37.9538 14.9317 37.7772 16.0307 37.257 16.9321L37.2582 16.9327C37.2485 16.9495 37.2381 16.9655 37.227 16.9809C36.7033 17.8589 35.8518 18.5414 34.7893 18.8261C33.7071 19.1161 32.6085 18.9393 31.7074 18.4191L31.9865 17.9335L31.7053 18.4207C31.6929 18.4135 31.6808 18.406 31.6692 18.398C30.7948 17.8812 30.1124 17.0382 29.8207 15.984C29.8136 15.9626 29.8078 15.9409 29.8033 15.9191C29.5255 14.8474 29.7039 13.7619 30.2189 12.8699L30.7045 13.149L30.2173 12.8677C30.2245 12.8553 30.232 12.8433 30.24 12.8317C30.7568 11.9573 31.5998 11.2749 32.6539 10.9832C32.6754 10.976 32.6972 10.9702 32.719 10.9658L32.719 10.9658ZM35.489 11.867L35.2077 12.3526C34.5635 11.9806 33.7779 11.8521 33.0007 12.0534C32.9928 12.0559 32.9848 12.0583 32.9768 12.0604L32.9766 12.0597L32.9763 12.0598L32.8545 11.6043L32.8312 11.5171L32.9762 12.0598C32.204 12.2668 31.5863 12.7624 31.2082 13.3994C31.203 13.4098 31.1975 13.4201 31.1916 13.4302L31.1905 13.4296L31.1901 13.4302L31.1891 13.4297C30.8177 14.074 30.6896 14.8595 30.8908 15.6369C30.8933 15.6449 30.8957 15.653 30.8979 15.6612L30.8972 15.6614L30.8973 15.6617L30.4418 15.7834L30.3546 15.8067L30.8973 15.6617C31.1042 16.434 31.5999 17.0517 32.2369 17.4298C32.2473 17.435 32.2576 17.4405 32.2677 17.4464L32.2671 17.4475L32.2677 17.4479L32.2672 17.4488C32.9184 17.8242 33.7137 17.9511 34.4992 17.7407C35.2688 17.5345 35.8842 17.0434 36.2619 16.4124C36.2686 16.3981 36.2759 16.3841 36.2839 16.3702L36.771 16.6515L36.2854 16.3702C36.6613 15.7192 36.7886 14.9239 36.5782 14.1387C36.372 13.3692 35.8809 12.7538 35.2499 12.3761C35.2356 12.3694 35.2216 12.3621 35.2077 12.3541L35.489 11.867L35.489 11.867Z" fill="#2992CE"/>
<path d="M33.1336 12.778C33.156 12.7705 33.1786 12.7644 33.2014 12.7599C33.7777 12.6151 34.3607 12.7128 34.8408 12.9898L34.8415 12.9886C34.8593 12.999 34.8764 13.0102 34.8927 13.0221C35.3483 13.3023 35.7034 13.7457 35.86 14.296C35.8675 14.3183 35.8736 14.3409 35.8781 14.3635C36.0227 14.9392 35.9249 15.5218 35.6479 16.0017C35.3647 16.4922 34.8958 16.8744 34.3086 17.0318C33.7218 17.1889 33.1257 17.0928 32.6363 16.8103L32.9154 16.3247L32.6341 16.8119C32.6209 16.8042 32.6081 16.7961 32.5957 16.7876C32.1253 16.5031 31.7598 16.0437 31.6063 15.471C31.4491 14.8842 31.5452 14.2881 31.8277 13.7988L32.3133 14.0778L31.8262 13.7966C31.8338 13.7834 31.8419 13.7706 31.8504 13.7583C32.1292 13.2969 32.5764 12.9366 33.1336 12.778L33.1336 12.778ZM34.5602 13.4758L34.279 13.9614C34.0459 13.8268 33.7619 13.779 33.4796 13.8484C33.4724 13.8507 33.4651 13.8528 33.4577 13.8548L33.4575 13.8541L33.4572 13.8542L33.334 13.3929L33.3121 13.3114L33.4571 13.8542C33.179 13.9287 32.9553 14.1048 32.8152 14.3318C32.8106 14.3409 32.8057 14.3501 32.8005 14.3591L32.7993 14.3584L32.7989 14.3591L32.798 14.3585C32.6603 14.598 32.6141 14.891 32.6918 15.1809C32.7663 15.4591 32.9424 15.6828 33.1694 15.8228C33.1786 15.8275 33.1877 15.8324 33.1966 15.8376L33.196 15.8387L33.1966 15.8391L33.1961 15.84C33.4355 15.9777 33.7285 16.024 34.0185 15.9463C34.3087 15.8686 34.539 15.6821 34.6767 15.4436C34.8115 15.2099 34.8593 14.925 34.7895 14.6416C34.7873 14.6345 34.7852 14.6273 34.7832 14.6201L34.7839 14.6199L34.7839 14.6195L35.2465 14.4959L35.3266 14.4745L34.7838 14.6195C34.71 14.3439 34.5381 14.1223 34.3167 13.9828C34.304 13.9767 34.2914 13.9701 34.279 13.9629L34.5602 13.4758V13.4758Z" fill="#2992CE"/>
</svg>
