<svg width="24" height="24" viewBox="0 0 24 24" fill="none" xmlns="http://www.w3.org/2000/svg">
<g clip-path="url(#clip0_16_16199)">
<path d="M13.7587 12.771L19.4478 18.4604L15.2249 22.6832L9.53571 16.9938L13.7587 12.771Z" fill="#2992CE"/>
<path d="M3.395 12.3956L14.8397 23.8403C14.8903 23.8909 14.9504 23.9311 15.0166 23.9585C15.0828 23.9859 15.1537 24.0001 15.2253 24.0001C15.2969 24.0001 15.3679 23.9859 15.434 23.9585C15.5002 23.9311 15.5603 23.8909 15.6109 23.8403L20.605 18.8462C20.818 18.6332 20.818 18.2879 20.605 18.075L14.53 12L20.605 5.925C20.7072 5.82272 20.7646 5.68403 20.7646 5.53941C20.7646 5.39479 20.7072 5.25609 20.605 5.15381L15.6109 0.159797C15.5604 0.109066 15.5002 0.0688353 15.4341 0.0414195C15.3679 0.0140037 15.2969 -5.74436e-05 15.2253 4.62458e-05C15.0857 4.62336e-05 14.9461 0.0532503 14.8396 0.159797L12.0467 2.95266C11.8337 3.16566 11.8337 3.51089 12.0467 3.72389C12.2597 3.9368 12.6049 3.93689 12.8179 3.72389L15.2252 1.31663L19.4479 5.53931L8.77456 16.2127L4.55183 11.99L10.0546 6.48722C10.2676 6.27422 10.2676 5.92889 10.0546 5.71598C9.84162 5.50298 9.49639 5.50308 9.28334 5.71598L3.3949 11.6043C3.29265 11.7066 3.23521 11.8453 3.2352 11.9899C3.2352 11.9932 3.23562 11.9963 3.23572 11.9996C3.23416 12.0729 3.24747 12.1458 3.27485 12.2139C3.30222 12.282 3.34309 12.3438 3.395 12.3956V12.3956ZM15.2253 22.6834L9.53585 16.994L13.7586 12.7713L19.4481 18.4606L15.2253 22.6834V22.6834Z" fill="black"/>
<path d="M10.0547 6.48722L4.55194 11.99L8.77468 16.2127L19.4481 5.53941L15.2254 1.31668L12.8181 3.72394C12.6052 3.93694 12.2598 3.93694 12.0468 3.72394L10.0547 5.71603C10.2677 5.92894 10.2677 6.27427 10.0547 6.48722V6.48722Z" fill="#2992CE"/>
</g>
<defs>
<clipPath id="clip0_16_16199">
<rect width="24" height="24" fill="white" transform="translate(24 24) rotate(-180)"/>
</clipPath>
</defs>
</svg>
