<svg width="24" height="24" viewBox="0 0 24 24" fill="none" xmlns="http://www.w3.org/2000/svg">
<g clip-path="url(#clip0_16_16185)">
<path d="M10.2413 11.229L4.55216 5.53962L8.77511 1.31681L14.4643 7.00619L10.2413 11.229Z" fill="#2992CE"/>
<path d="M20.605 11.6044L9.16034 0.159749C9.1097 0.109085 9.04959 0.0688945 8.98342 0.0414736C8.91725 0.0140527 8.84632 -6.10352e-05 8.77469 -6.10352e-05C8.70307 -6.10352e-05 8.63214 0.0140527 8.56597 0.0414736C8.4998 0.0688945 8.43969 0.109085 8.38905 0.159749L3.39504 5.15376C3.18204 5.36676 3.18204 5.71209 3.39504 5.925L9.47004 12L3.39504 18.075C3.29279 18.1773 3.23536 18.316 3.23536 18.4606C3.23536 18.6052 3.29279 18.7439 3.39504 18.8462L8.38905 23.8402C8.43964 23.8909 8.49976 23.9312 8.56595 23.9586C8.63214 23.986 8.7031 24.0001 8.77474 24C8.91429 24 9.05388 23.9467 9.16043 23.8402L11.9533 21.0473C12.1663 20.8343 12.1663 20.4891 11.9533 20.2761C11.7403 20.0632 11.3951 20.0631 11.1821 20.2761L8.77479 22.6834L4.55206 18.4607L15.2254 7.7873L19.4482 12.01L13.9454 17.5128C13.7324 17.7258 13.7324 18.0711 13.9454 18.284C14.1584 18.497 14.5036 18.4969 14.7167 18.284L20.6051 12.3957C20.7074 12.2934 20.7648 12.1547 20.7648 12.0101C20.7648 12.0068 20.7644 12.0037 20.7643 12.0004C20.7658 11.9271 20.7525 11.8542 20.7252 11.7861C20.6978 11.718 20.6569 11.6562 20.605 11.6044V11.6044ZM8.77474 1.31658L14.4641 7.00598L10.2414 11.2287L4.55192 5.53941L8.77474 1.31658V1.31658Z" fill="black"/>
<path d="M13.9453 17.5128L19.4481 12.01L15.2253 7.78729L4.55188 18.4606L8.77462 22.6833L11.1819 20.2761C11.3948 20.0631 11.7402 20.0631 11.9532 20.2761L13.9453 18.284C13.7323 18.0711 13.7323 17.7257 13.9453 17.5128V17.5128Z" fill="#2992CE"/>
</g>
<defs>
<clipPath id="clip0_16_16185">
<rect width="24" height="24" fill="white"/>
</clipPath>
</defs>
</svg>
