<svg width="145" height="145" viewBox="0 0 145 145" fill="none" xmlns="http://www.w3.org/2000/svg">
<path d="M64.0293 19.2688H81.721V41.3834H64.0293V19.2688Z" fill="#4BB4F0"/>
<path d="M55.1833 6H90.5667V23.6917H55.1833V6Z" fill="#4BB4F0"/>
<path d="M109.278 35.316L116.054 41.002L104.682 54.5546L97.9061 48.8686L109.278 35.316Z" fill="#67D0FE"/>
<path d="M111.57 25.726L125.122 37.0979L119.436 43.8742L105.884 32.5023L111.57 25.726Z" fill="#4BB4F0"/>
<path d="M72.8751 138.687C102.188 138.687 125.95 114.925 125.95 85.6125C125.95 56.3 102.188 32.5375 72.8751 32.5375C43.5625 32.5375 19.8 56.3 19.8 85.6125C19.8 114.925 43.5625 138.687 72.8751 138.687Z" fill="#4BB4F0"/>
<path d="M72.8751 125.419C94.8595 125.419 112.681 107.597 112.681 85.6125C112.681 63.6281 94.8595 45.8063 72.8751 45.8063C50.8907 45.8063 33.0688 63.6281 33.0688 85.6125C33.0688 107.597 50.8907 125.419 72.8751 125.419Z" fill="#67D0FE"/>
</svg>
