<svg width="78" height="78" viewBox="0 0 78 78" fill="none" xmlns="http://www.w3.org/2000/svg">
<path d="M31.6875 9.75H41.4375V21.9375H31.6875V9.75Z" fill="#4BB4F0"/>
<path d="M26.8125 2.4375H46.3125V12.1875H26.8125V2.4375Z" fill="#4BB4F0"/>
<path d="M56.6245 18.5938L60.359 21.7274L54.0918 29.1963L50.3574 26.0627L56.6245 18.5938Z" fill="#67D0FE"/>
<path d="M57.8875 13.3083L65.3564 19.5755L62.2228 23.31L54.7539 17.0428L57.8875 13.3083Z" fill="#4BB4F0"/>
<path d="M36.5625 75.5625C52.7168 75.5625 65.8125 62.4668 65.8125 46.3125C65.8125 30.1582 52.7168 17.0625 36.5625 17.0625C20.4082 17.0625 7.3125 30.1582 7.3125 46.3125C7.3125 62.4668 20.4082 75.5625 36.5625 75.5625Z" fill="#4BB4F0"/>
<path d="M36.5625 68.25C48.6782 68.25 58.5 58.4282 58.5 46.3125C58.5 34.1968 48.6782 24.375 36.5625 24.375C24.4468 24.375 14.625 34.1968 14.625 46.3125C14.625 58.4282 24.4468 68.25 36.5625 68.25Z" fill="#67D0FE"/>
</svg>
