<svg width="48" height="48" viewBox="0 0 48 48" fill="none" xmlns="http://www.w3.org/2000/svg">
<path d="M12.7031 16.2656H12.75L19.6172 10.3828L20.9531 9.23438C21.2812 8.95312 21.6094 8.67188 21.9375 8.39062V9.79688V11.5547V23.9766V24H12.7266V23.9766V16.2656H12.7031Z" fill="#039BE5"/>
<path d="M8.78906 16.2656H12.7031V31.7344H8.78906C8.01562 31.7344 7.33594 31.4062 6.82031 30.8672C6.30469 30.3281 6 29.5781 6 28.7578V24V23.9531V19.2422C6 18.4219 6.30469 17.6719 6.82031 17.1328C7.33594 16.5938 8.01562 16.2656 8.78906 16.2656Z" fill="#424242"/>
<path d="M12.7031 31.7344H8.78906C8.01562 31.7344 7.33594 31.4062 6.82031 30.8672C6.30469 30.3281 6 29.5781 6 28.7578V24H12.7031V31.7344Z" fill="#3C3C3C"/>
<path d="M21.9375 24V36.4453V39.5859L19.6172 37.6172L12.75 31.7344H12.7266H12.7031V24H21.9375Z" fill="#2992CE"/>
<path d="M35.288 24.6H31V23H35.288V24.6Z" fill="#101443"/>
</svg>
