<svg width="64" height="64" viewBox="0 0 64 64" fill="none" xmlns="http://www.w3.org/2000/svg">
<path d="M12.8017 53.4252C11.9276 53.4252 11.0734 53.1895 10.3314 52.7437C9.63629 52.3259 9.05335 51.7319 8.64563 51.0257C8.23791 50.3196 8.01491 49.5177 8.00072 48.7068C7.98557 47.8413 8.20857 46.9837 8.6456 46.2267L27.8439 12.9742C28.281 12.2173 28.9122 11.5953 29.6693 11.1757C30.3786 10.7825 31.1846 10.5747 32 10.5747C32.8154 10.5747 33.6213 10.7826 34.3306 11.1757C35.0878 11.5953 35.719 12.2172 36.156 12.9742L55.3543 46.2267C55.7914 46.9836 56.0144 47.8412 55.9993 48.7068C55.9851 49.5176 55.7621 50.3195 55.3544 51.0257C54.9466 51.7318 54.3637 52.3259 53.6685 52.7437C52.9266 53.1896 52.0724 53.4252 51.1983 53.4252H12.8017V53.4252Z" fill="#E6C86B"/>
<path d="M30.3762 14.587L11.3084 47.6134C10.5868 48.8634 11.4889 50.4259 12.9323 50.4259H51.0678C52.5111 50.4259 53.4133 48.8634 52.6915 47.6134L33.6238 14.587C32.9021 13.337 31.0979 13.337 30.3762 14.587Z" fill="#F7E07F"/>
<path d="M32 40.7178C31.2175 40.7178 30.5832 40.0835 30.5832 39.3011V24.3926C30.5832 23.6101 31.2175 22.9758 32 22.9758C32.7825 22.9758 33.4168 23.6101 33.4168 24.3926V39.3011C33.4168 40.0835 32.7825 40.7178 32 40.7178Z" fill="#FC636E"/>
<path d="M32 46.5366C32.8827 46.5366 33.5982 45.821 33.5982 44.9383C33.5982 44.0557 32.8827 43.3401 32 43.3401C31.1173 43.3401 30.4018 44.0557 30.4018 44.9383C30.4018 45.821 31.1173 46.5366 32 46.5366Z" fill="#FC636E"/>
</svg>
