<svg width="34" height="34" viewBox="0 0 34 34" fill="none" xmlns="http://www.w3.org/2000/svg">
<path d="M33.25 17.001C33.25 25.976 25.976 33.251 17.001 33.251C8.026 33.251 0.75 25.976 0.75 17.001C0.75 8.023 8.026 0.75 17.001 0.75C25.976 0.75 33.25 8.023 33.25 17.001Z" fill="#FA7E7E" stroke="#335C5F" stroke-width="1.5" stroke-miterlimit="10" stroke-linecap="round" stroke-linejoin="round"/>
<path d="M17.001 0.75C15.706 0.75 14.456 0.917 13.251 1.201C20.413 2.896 25.751 9.317 25.751 17.001C25.751 24.682 20.413 31.105 13.251 32.8C14.456 33.084 15.706 33.251 17.001 33.251C25.976 33.251 33.25 25.976 33.25 17.001C33.25 8.023 25.976 0.75 17.001 0.75Z" fill="#D86F6F"/>
<path d="M25.396 11.2551L22.743 8.60205L17.001 14.3481L11.253 8.60205L8.60101 11.2581L14.347 17.0011L8.60101 22.7481L11.253 25.4041L17.001 19.6541L22.743 25.4041L25.396 22.7481L19.653 17.0011L25.396 11.2551Z" fill="#E9EAEF" stroke="#335C5F" stroke-width="1.5" stroke-miterlimit="10" stroke-linecap="round" stroke-linejoin="round"/>
<path fill-rule="evenodd" clip-rule="evenodd" d="M17.001 1.5C8.44012 1.5 1.5 8.4373 1.5 17.001C1.5 25.5617 8.44015 32.501 17.001 32.501C25.5617 32.501 32.5 25.5618 32.5 17.001C32.5 8.43718 25.5618 1.5 17.001 1.5ZM0 17.001C0 7.6087 7.61188 0 17.001 0C26.3902 0 34 7.60882 34 17.001C34 26.3902 26.3903 34.001 17.001 34.001C7.61185 34.001 0 26.3903 0 17.001Z" fill="#335C5F"/>
</svg>
